<?xml version="1.0" encoding="utf-8"?>
<!-- Generator: Adobe Illustrator 24.0.2, SVG Export Plug-In . SVG Version: 6.00 Build 0)  -->
<svg version="1.1" id="Calque_1" xmlns="http://www.w3.org/2000/svg" xmlns:xlink="http://www.w3.org/1999/xlink" x="0px" y="0px"
	 width="237px" height="115px" viewBox="0 0 237 115" style="enable-background:new 0 0 237 115;" xml:space="preserve">
<g>
	<path d="M12.97,98.47H5.72v4.79h6.43v3.04H5.72v5.06h7.25v3.12H1.89V95.35h11.08V98.47z"/>
	<path d="M35.51,95.35v19.12h-3.83l-8.67-13.1v13.1h-3.83V95.35h3.83l8.67,13.13V95.35H35.51z"/>
	<path d="M48.61,114.67c-3.97,0-7.03-2.08-7.09-5.69h4.1c0.11,1.53,1.12,2.54,2.9,2.54c1.81,0,2.87-0.96,2.87-2.33
		c0-4.13-9.85-1.64-9.82-8.56c0-3.45,2.79-5.53,6.73-5.53c3.91,0,6.59,2,6.84,5.44h-4.21c-0.08-1.26-1.09-2.24-2.74-2.27
		c-1.5-0.05-2.63,0.68-2.63,2.24c0,3.83,9.79,1.7,9.79,8.43C55.37,111.96,52.96,114.67,48.61,114.67z"/>
	<path d="M72.49,98.47h-7.25v4.79h6.43v3.04h-6.43v5.06h7.25v3.12H61.41V95.35h11.08V98.47z"/>
	<path d="M78.7,95.38h3.83v19.1H78.7V95.38z"/>
	<path d="M106.74,101.13h-4.4c-0.88-1.62-2.46-2.46-4.49-2.46c-3.42,0-5.8,2.44-5.8,6.24c0,3.88,2.41,6.29,5.96,6.29
		c2.96,0,4.84-1.7,5.42-4.4h-6.57v-2.93h10.34v3.34c-0.77,3.88-4.24,7.44-9.33,7.44c-5.55,0-9.77-4.02-9.77-9.74
		c0-5.72,4.21-9.77,9.74-9.77C102.12,95.13,105.51,97.3,106.74,101.13z"/>
	<path d="M129.12,95.35v19.12h-3.83l-8.67-13.1v13.1h-3.83V95.35h3.83l8.67,13.13V95.35H129.12z"/>
	<path d="M146.7,98.47h-7.25v4.79h6.43v3.04h-6.43v5.06h7.25v3.12h-11.08V95.35h11.08V98.47z"/>
	<path d="M152.91,95.38h4.35l6.07,14.2l6.07-14.2h4.32v19.1h-3.83v-12.42l-5.12,12.42h-2.9l-5.14-12.42v12.42h-3.83V95.38z"/>
	<path d="M191.32,98.47h-7.25v4.79h6.43v3.04h-6.43v5.06h7.25v3.12h-11.08V95.35h11.08V98.47z"/>
	<path d="M213.86,95.35v19.12h-3.83l-8.67-13.1v13.1h-3.83V95.35h3.83l8.67,13.13V95.35H213.86z"/>
	<path d="M219.36,95.38h14.01v3.09h-5.09v16h-3.83v-16h-5.09V95.38z"/>
</g>
<g>
	<path d="M11.03,9.9h12.06l-8.15,46.59h30.78l-1.83,10.48H1.05L11.03,9.9z"/>
	<path d="M66.35,67.8c-3.27,0-5.95-0.83-8.03-2.5c-2.08-1.66-3.12-4.1-3.12-7.32V33.36l-5.32-2.58v-1.33h13.15v24.71
		c0,2.33,0.71,4.11,2.12,5.32c1.41,1.22,3.26,1.83,5.53,1.83c1.39,0,2.91-0.24,4.58-0.71c1.66-0.47,3-1.18,3.99-2.12V33.36
		l-5.66-2.58v-1.33h13.56v33.78l5.74,2.41v1.33H79.25v-5.24h-0.42c-2.05,2.05-4.05,3.58-5.99,4.58C70.9,67.3,68.74,67.8,66.35,67.8z
		"/>
	<path d="M157.45,66.97h-10.82V34.11h-13.73v32.86H122.1V34.11h-13.73v32.86H97.55V24.13h59.9V66.97z"/>
	<path d="M166.94,66.97v-1.33l5.32-2.66V38.1l-5.07-4.16v-0.67l11.48-4.66h0.58l0.75,6.16h0.42c2.11-2.05,4.13-3.59,6.07-4.62
		c1.94-1.03,4.13-1.54,6.57-1.54c3.22,0,5.89,0.82,8.03,2.45c2.13,1.64,3.2,4.09,3.2,7.36v24.54l5.24,2.66v1.33H190.9v-1.33
		l5.49-2.66V42.26c0-2.38-0.72-4.17-2.16-5.37c-1.44-1.19-3.3-1.79-5.57-1.79c-1.39,0-2.91,0.22-4.58,0.67
		c-1.66,0.44-3,1.14-3.99,2.08v25.13l5.49,2.66v1.33H166.94z"/>
	<path d="M224.43,14.12c-1.54,0-2.99-0.16-4.35-0.49c-1.35-0.32-2.53-0.77-3.51-1.34c-0.99-0.57-1.77-1.26-2.36-2.07
		c-0.58-0.81-0.87-1.71-0.87-2.68c0-1.08,0.28-2.04,0.85-2.86c0.57-0.83,1.35-1.51,2.36-2.05c1-0.54,2.18-0.95,3.53-1.22
		C221.44,1.14,222.9,1,224.47,1c1.57,0,3.04,0.14,4.41,0.41c1.37,0.27,2.55,0.68,3.55,1.22c1,0.54,1.79,1.23,2.36,2.05
		c0.57,0.83,0.85,1.78,0.85,2.86c0,0.97-0.29,1.87-0.87,2.68c-0.58,0.81-1.37,1.5-2.38,2.07c-1,0.57-2.19,1.02-3.55,1.34
		C227.47,13.96,226,14.12,224.43,14.12z M215.61,23.14h17.55v43.83h-17.55V23.14z"/>
</g>
</svg>
