<?xml version="1.0" standalone="no"?>
<!DOCTYPE svg PUBLIC "-//W3C//DTD SVG 1.1//EN" "http://www.w3.org/Graphics/SVG/1.1/DTD/svg11.dtd">
<svg xmlns="http://www.w3.org/2000/svg">
<metadata>(C) N+ Sakurai Nan aka "Bosskete"</metadata>
<defs>
<font id="evilz" horiz-adv-x="1000" >
<font-face font-family="evilz" font-weight="400" font-stretch="normal" units-per-em="1000" ascent="850" descent="-150" />
<missing-glyph horiz-adv-x="1000" />
<glyph glyph-name="potion-croix" unicode="&#xe800;" d="m213-18q5-83 150-116 60-14 144-16 80 3 137 17 137 35 138 123l6 468q8 77-78 132 17 9 46 35l0 164q0 25-74 43-74 18-180 18-105 0-180-18-74-18-74-43l0-160q10-18 49-40-94-61-84-138 9-109 0-469z m94 112l0 262q0 67 84 66 52-1 113-3l103-1q85 0 85-68l0-262q0-32-15-47-16-19-59-26-50-9-114-11-32 0-124 13-73 11-73 77z m54 60l80-67 62 53 62-53 80 67-62 53 62 52-80 68-62-52-62 52-80-68 62-52z" horiz-adv-x="1000" />
<glyph glyph-name="potion-coeur" unicode="&#xe801;" d="m165 46q0-89 64-143 63-53 157-53l227 0q96 0 159 49 63 48 63 138l0 354q0 131-131 174l0 73q105 17 105 55 0 44-135 60l4 54q-29 41-180 43-44 0-77-5-82-10-100-38l5-54q-135-16-135-60 0-37 104-54l0-74q-130-41-130-170l0-349z m170 208q-1 42 23 69 24 27 59 27 51 0 87-55 34 55 85 55 35 0 60-27 24-27 22-69-4-30-22-65-43-82-145-172-153 132-169 237z" horiz-adv-x="1000" />
<glyph glyph-name="plume" unicode="&#xe802;" d="m0 675q-1 84 40 104 22 11 43 11 35 0 78-34 33-32 66-64 26-23 113-125 87-101 113-121 26-21 164-144l10-124 21 112 52-46q1-41-2-125l52 53-17-65 58-6-31-47q84-46 169-71 36-8 71-14l-8-59q-38 6-77 14-88 22-169 65l-4-22-53 39-38-45-5 47-45-50-44 38 27 94-1 0-75-87q-24 16-48 36-58 48-108 104l41 70-72-50q-27 22-61 53-79 73-176 184l53 81-81-45q-21 41-37 108-19 73-19 131z" horiz-adv-x="1000" />
<glyph glyph-name="maison" unicode="&#xe803;" d="m24 202q0-62 25-57 20 7 25 28 0 12 1 22 14-43 33-43 20 0 39 62l90-353 525-11 76 364q24-73 51-73 12 0 18 14 3 7 7 14 2-11 7-20 9-18 29-25 26-4 26 53 0 13-2 30l-487 643-461-613q-2-19-2-35z m260 13q16-12 49-25l33-108 39 87q25-4 47-6l36-85 36 88q20 2 41 5l36-83 37 103q32 10 57 22-16-126-114-193l-31 66-29-89q-17-3-34-3-23-1-45 4l-32 90-32-64q-26 20-45 46-47 63-49 145z m3 87q0 21 15 35 14 14 35 14 20 0 34-14 14-14 14-35 0-20-14-34-15-14-34-14-21 0-35 14-15 14-15 34z m96 134l0 51 65 0 0-51-65 0z m0 109l0 20q19 29 65 41l0-60z m139-109l0 52 63 0 0-52-63 0z m0 110l0 58q14-4 24-9 28-13 39-30l0-19-63 0z m55-248q0 21 14 35 15 14 35 14 20 0 35-14 14-14 14-35 0-20-14-34-15-14-35-14-20 0-35 14-14 14-14 34z" horiz-adv-x="1000" />
<glyph glyph-name="lutin-prisonnier" unicode="&#xe804;" d="m0 101q0 38 26 65 27 27 65 27 38 0 64-27 27-27 27-65l0-7 7-1 19 19q8 9 20 6l34-8 31 24q7 7 17 5l42-8q11 12 23 22 11 28 15 95-43-13-71-13-41 0-46 28 0 5 0 10 0 59 107 85-3 9-8 26l-11 37q-4 15-4 42 0 82 47 141 72 90 233 90 161 0 230-87 41-53 41-127 0-25-8-61-11-52-11-63 111-32 111-91 0-38-46-38-28 0-71 14 0-46 8-85 3-7 8-14 35-30 35-62 0-51-73-67-28-5-64-5-94 0-133 29-17 13-31 23-19-15-31-27-27-27-128-27-60 0-94 10-16 4-26 10-20 12-24 30-2 9-2 17 0 8 2 19l-18 3-30-24q-9-7-19-5l-33 8-19-19q-8-8-19-6l-23 4q-27-42-78-43-38 0-65 27-26 27-26 64z m36 15q0-12 9-21 9-8 21-8 11 0 20 8 9 9 9 21 0 12-9 21-9 8-20 8-13 0-22-8-8-9-8-21z m379 328q1-4 2-11l9-30q5-15 13-46 96-14 202-17 105-1 190 16 4 38 15 83-78-18-210-18-138 0-221 23z m21-286q78-18 200-16 116 1 197 16-6 37-7 77-88-15-190-16-101-1-190 15-3-45-10-76z m50 396q0-15 10-25 10-10 25-10 14 0 24 10 11 10 11 25 0 14-11 25-10 10-24 10-15 0-25-10-10-11-10-25z m221 26q0-14 10-24 11-11 25-11 14 0 25 11 10 10 10 24 0 15-10 26-11 10-25 10-15 0-25-10-10-11-10-26z" horiz-adv-x="1000" />
<glyph glyph-name="lutin-mort" unicode="&#xe805;" d="m1000 502q-122 128-400 159l42-309q37-13 37-46 0-25-25-40l46-335-64-9-48 345q-4 3-8 6-10-25-51-113l-28 60-32-54-29 56q-6-32-15-66-24-82-58-158 12-10 12-21 0-13-12-23-12-7-33-17-54-25-153-59l-9 24-72-2 49 42-44 7 44 49q-74 198-74 293l0 8q3 25 15 51-90 65-90 164 0 102 84 203 87 105 184 105 95 0 178-108 80-103 80-206 0-84-67-143 85-18 118-20l-48 353-8 64q53 13 102 13 165 0 288-137 51-56 89-136z m-541 41q0 78-60 131-56 51-135 51l-1 0q-78 0-135-51-61-54-61-131 0-45 31-80 30-35 87-49l0-7q0-15 10-26 10-12 25-13 14-1 22 5 11-8 23-8 14 0 26 9 7-7 23-6 15 1 25 13 10 11 10 26l0 8q110 33 110 128z m-59 15q0-26-16-45-15-18-37-18-23 0-39 18-15 19-15 45 0 26 15 44 16 19 39 19 22 0 37-18 16-19 16-45z m-114-99q0-17-23-17-20 0-20 15 0 10 6 21 7 12 15 12 7 0 14-10 8-10 8-21z m-47 99q0-26-16-45-16-18-38-18-22 0-38 18-16 19-16 45 0 26 16 44 16 19 38 19 22 0 38-18 16-19 16-45z" horiz-adv-x="1000" />
<glyph glyph-name="lutin-marchant" unicode="&#xe806;" d="m129 163q0-23 16-39 16-17 39-17 35 0 49 31l62 18q-5-18-5-35 0-45 25-79l-34-24q-32 39-66 44l-7 0q-44 0-46-35l92-132q8-2 19-2 51 0 51 52l0 6-4 7 58 43q10-2 18-2 14 0 27 4 6-3 52-32-21-36-21-66 0-6 1-12 25-43 41-43 2 0 4 0l88 125q-4 64-42 64-10 0-17-4-8-3-12-6 2-1 4-1-1-1-2-2-18 13-25 14-7 1-13 7 22 32 22 74 0 6-1 15l45-16q10-42 53-42 23 0 40 16 16 16 16 39 0 38-36 53-10 4-19 4l-23-5-90 37q67 11 109 80 40 64 40 141 0 22-4 45l14-4q1 7 1 17 0 31-6 85-4 39-16 98l103-41q-6-14-6-29 0-31 22-53 21-22 52-22 31 0 53 22 22 22 22 53 0 30-22 52-22 22-53 22-20 0-38-11-82 107-128 134-18 10-42 18-58 18-132 21-45-23-88-56-104-75-184-182l23-6q-59-66-63-176l0-10q0-70 42-124 39-50 96-69l-67-19q-15 10-32 10-23 0-39-16-16-16-16-39z m98 331q0 18 13 31 13 13 31 13 19 0 32-13 13-14 13-31 0-19-13-32-13-13-32-13-18 0-31 13-13 13-13 32z m67-129q37-21 73-21 52 0 91 40-12-79-84-82-21 2-37 9-38 17-43 54z m175 78q0 18 12 31 13 13 32 13 18 0 31-13 13-13 13-31 0-19-13-31-13-13-31-13-19 0-32 13-12 12-12 31z" horiz-adv-x="1000" />
<glyph glyph-name="lutin-lutin" unicode="&#xe807;" d="m121 603q0-32 23-56 22-23 54-23 32 0 55 23 24 23 24 56 0 16-7 30l107 43q-7-20-17-101-6-61-6-94 0-8 1-13l16 4q-5-25-5-47 0-81 42-143 42-62 118-91l-94-77q-6 1-12 1-19 0-34-13-20-16-20-44 0-19 11-35 17-22 45-22 19 0 36 13 20 17 20 43l29 27q2-47 30-81l-13-56q-66-1-95-31-17-19-17-37 0-16 14-27l165-2q25 20 25 43 0 20-20 40l11 34q6-1 7-1 10 0 21 2l9-43q-13-15-13-31 0-24 26-44l165 2q14 11 14 27 0 19-17 37-28 29-94 29l-9 0-14 74q20 31 20 71l0 1 38-34q0-22 15-38 14-17 35-19 3 0 6 0 20 0 36 12 19 15 21 38 0 5 0 8 0 19-12 34-16 19-39 21-6 1-15 0l-90 79q70 19 116 75 46 57 46 133 0 50-17 106-18 56-47 88l24 6q-124 165-285 250-115-4-182-41-47-29-133-140-19 10-41 10-32 0-54-22-23-23-23-54z m351-174q0 18 14 32 14 14 33 14 19 0 33-14 13-14 13-32 0-20-13-33-14-14-33-14-19 0-33 14-14 13-14 33z m93-86q47-26 99-26 51 0 92 27-1-60-75-66-27 0-50 6-52 17-66 59z m150 143q0 19 14 33 14 13 33 13 20 0 33-13 13-14 13-33 0-20-13-33-13-13-33-13-19 0-33 13-14 13-14 33z" horiz-adv-x="1000" />
<glyph glyph-name="lutin-fourche" unicode="&#xe808;" d="m0 699l45-238q3-14 16-23 12-8 27-5l93 18q51-223 83-553l72 7q-5 52-26 223 24-2 48-2 82 0 166 17-7-20-7-42 0-68 53-108l-49-96 64-33 54 104q7-1 6-1 12 0 24 3l34-105 70 23-38 111q47-43 102-43l6 0q67 3 119 63l38-48-5 140-129-36 52-22q-35-40-78-42l-5 0q-37 0-72 40 10 24 10 50 0 16-4 32 14-1 31-1 52 0 101 21 57 25 89 71l-59 42q-22-31-62-48-34-14-66-14l-2 0q-10 0-18 2 63 28 100 76 37 48 37 106 0 80-70 140-9 93-17 184-12 119-33 124l-2 0q-19 0-40-94-34-151-35-154-18 3-34 5-24 4-40 4l-5 0q-37-4-87-11-18 75-36 151-22 90-41 90l-2 0q-23-5-34-126-8-92-16-183-60-58-60-130 0-55 33-102 33-46 90-75-68-12-133-12-29 0-58 3-23 155-48 264l81 15q15 3 23 15 9 12 6 26l-36 238-72-11 31-203-47-9-41 204-71-15 39-204-55-10-39 201z m446-275q0 19 12 32 12 12 31 12 18 0 31-13 13-13 13-31 0-17-13-30-13-13-31-13-19 0-31 13-12 13-12 30z m82-81q43-26 94-27 62 0 122 36-9-66-113-74-27 0-47 7-48 15-56 58z m210 81q0 19 13 32 12 12 31 12 18 0 30-13 13-13 13-31 0-17-13-30-12-13-30-13-19 0-31 13-13 13-13 30z" horiz-adv-x="1000" />
<glyph glyph-name="lutin-diable" unicode="&#xe809;" d="m165 388q0-61 41-113 42-51 110-79-68-46-118-115l57-41q28 38 64 69-1-8-1-15 0-74 58-115l-30-111 68-18 29 106 6-1q9 0 19 2l19-107 70 12-19 106q51-43 108-43 58 0 124 48l13-53 52 125-127 20 38-44q-56-45-99-45-6 0-10 1-41 5-76 42 21 33 21 75 0 10-3 22 40-22 91-54l38 58q-75 49-127 76 70 27 111 79 42 52 42 113 0 83-74 145-7 96-16 190-12 123-34 127l-2 0q-20 0-41-96-36-155-38-160-84 7-80 8-14-1-89-9-19 77-38 156-23 92-42 92l-1 0q-24-5-37-129-7-94-15-188-62-60-62-136z m83 39q0 18 13 31 13 14 31 14 20 0 33-14 14-13 14-31 0-19-14-33-13-13-33-13-18 0-31 13-13 14-13 33z m50-100q47-18 109-18 96 0 196 36-20-87-156-97-40 1-69 9-71 19-80 70z m250 100q0 18 13 31 13 14 32 14 19 0 32-14 14-13 14-31 0-19-14-33-13-13-32-13-19 0-32 13-13 14-13 33z" horiz-adv-x="1000" />
<glyph glyph-name="lutin-bouffon" unicode="&#xe80a;" d="m49 256q0-32 70-76 63-35 127-69 16-10 33-25 0-28 21-28 29 0 90 49-14-44 1-78 6-16 20-28-21-69-24-90-25-10-25-28 0-8 4-14 12-19 53-19 63 0 69 36 4 26 1 88 15-1 29 1-3-63 1-89 6-36 70-36 41 0 52 19 4 6 4 14 0 18-25 28-3 21-25 95 37 31 28 85 48-36 73-36 23 0 23 27 17 18 35 29 64 34 128 69 69 44 69 76 0 16-13 29-12 13-27 13-32 0-86-57-47-51-93-103-12-13-27-24-28 39-116 77 82 20 134 65 58 50 58 114 0 19-6 37-26 98-91 157l7 155 103-22q-2-5-2-10 0-21 15-36 15-15 37-15 21 0 36 15 15 15 15 36 0 21-15 35-15 15-36 15-28 0-44-23-134 143-174 136-39-8-117-215l-3 0q-77 206-117 215-40 7-174-136-15 23-43 23-21 0-36-15-15-14-15-35 0-21 15-36 15-15 36-15 21 0 36 15 15 15 15 36 0 5-1 10l102 22 6-135q-90-63-111-177-3-18-3-34 0-70 53-119 49-45 132-63-83-37-111-74-48 53-97 107-68 74-103 74-16 0-28-13-13-13-13-29z m250 161q0 18 14 32 13 13 32 13 19 0 32-13 13-14 13-32 0-19-13-33-13-13-32-13-19 0-32 13-14 14-14 33z m130-103q19-5 43-5 49 0 102 15-5-58-65-69-61-2-80 59z m178 104q0 19 13 32 13 13 31 13 19 0 32-13 14-13 14-32 0-18-14-32-13-13-32-13-18 0-31 13-13 14-13 32z" horiz-adv-x="1000" />
<glyph glyph-name="lune" unicode="&#xe80b;" d="m1000 467q-21 4-40 4-26 0-42-7-23-17-23-40 0-6 1-11-21 12-41 12-16 0-27-8-22-19-22-50l0-6q-31 19-65 19-9 0-17-1-6-9-12-17-14-16-37-23-10-3-18-3-16 0-33 9-18 9-19 9l-1 0q-35 0-57-48-11 37-40 45-6 1-11 1-26 0-51-27-3 33-38 39-3 1-6 1-31 0-72-26 55 140 101 144 25-5 126-55-1 3-2 6-1 6-1 10 0 23 18 45-2 27-2 47 0 47 9 50 1 1 2 1 13 0 47-64 12 3 26 4 11 78 24 78 14-1 42-93 28-19 30-48 83 89 107 103 2 2 8 2 45 0 136-102z m-131-233q-40-142-158-233-117-91-268-91-183 0-313 130-130 129-130 312 0 165 107 289 107 124 267 149-78-52-123-135-45-83-45-179 0-156 110-265 110-110 266-110 174 0 287 133z" horiz-adv-x="1000" />
<glyph glyph-name="loup" unicode="&#xe80c;" d="m45 308q0-49 55-82 25-16 53-17 29-44 89-85 59-40 128-63l176-177q-41-8-86-8 73-26 141-26 159 0 265 115 89 121 89 287 0 83-26 169 21 167 21 267 0 81-13 100-2 1-3 1-49 0-210-289l-109 10q1 45 1 83 0 229-24 257-11-5-33-37-50-80-143-290l-32-75q-115-56-196-111-35 29-76 29-27 0-47-16-20-16-20-42z m464-263q7 2 12 3l132-125q-45-26-101-38z m109 40q9 4 22 12l95-86-34 128q32 22 103 91 1-9 1-19 0-180-150-287z m2 253l137 39q1-8 1-15 0-54-57-79-10-3-22-4-48 0-59 59z" horiz-adv-x="1000" />
<glyph glyph-name="lezard" unicode="&#xe80d;" d="m1000 388l-54-21 4-54-45 9-22-44-22 75-61 35-66-73q18 3 36 3 78 0 132-61 48-56 48-134 0-79-44-127-62-64-160-64-53 0-102 23-47 22-74 72-23 41-23 87 0 8 1 17l-95-51 19-68 68-39-48-11-1-46-52 17-33-47-21 74q-20 37-31 104-1 3-1 5 0 47 146 91-111 36-182 95-6-35-20-47-13-13-44-13-45 0-110 29l-22-78-23 52-54-9 17 57-61 15 47 35q21 15 55 19 15-1 35-6 49-13 115-51l10 55q-49 68-49 155 0 23 4 49 21 133 154 219 120 78 258 78 94 0 150-39 66-46 66-97 0-26-17-44-16-17-36-17-23 0-23 18 0 5 5 22 4 16 4 26 0 44-86 69-28 7-61 8-71 0-149-45-88-52-88-119 0-22 20-41 14-14 54-38l81-11q-9 50-9 90 0 45 11 67 7 11 40 39l49 32-7-62 60-5-28-48 40-39-98 4q6-33 6-58 0-63-32-81l-5-2q62-48 113-113 87 153 139 153 5 0 10-2 18-9 34-17 38-22 60-44z m-130-181q-9 11-23 11-32 0-32-32 0-14 10-24 10-11 24-11 31 0 31 31 0 15-10 25z m-158-175q0 14-10 24-10 11-24 11-31 0-31-32 0-14 10-25 9-10 23-10 32 0 32 32z" horiz-adv-x="1000" />
<glyph glyph-name="fantome-tendre" unicode="&#xe80e;" d="m0 42q0-48 103-61 15-2 30-2 54 0 112 25 57 24 86 24l2 0q34 0 77-30 43-31 87-31l3 0q43 0 93 24 43 20 76 20 4 0 8-1 27-2 73-28 42-22 106-23 40 2 69 13 70 26 75 91-26-27-64-28-62 0-87 68-25 69-53 238-25 165-57 243-28 72-84 114-56 43-130 43l-5 0q-186 0-247-154-27-69-60-245-18-107-38-214-16-77-107-77-28 0-65 6-3-7-3-15z m336 470q0 16 11 27 11 11 28 11 16 0 27-11 12-11 12-27 0-16-12-27-11-11-27-11-17 0-28 11-11 11-11 27z m76-131q0 9 3 20 28-36 82-36 28 0 55 9-27-48-75-48l-1 0q-11 0-19 2-45 17-45 53z m171 102q0 16 12 28 11 11 27 11 16 0 27-11 12-12 12-28 0-16-12-27-11-12-27-12-16 0-27 12-12 11-12 27z" horiz-adv-x="1000" />
<glyph glyph-name="griffes" unicode="&#xe80f;" d="m61 383q0-69 38-118 39-49 95-49 54 0 93 49 39 49 39 118 0 53-24 95-24 43-63 61l-8 192q-69-100-83-191-39-18-63-61-24-42-24-96z m177-368q0-68 76-116 76-49 184-49 108 0 184 49 76 48 76 116 0 48-39 88-40 39-105 60-34 67-120 67-89 0-122-70-60-21-97-60-37-38-37-85z m129 486q0-69 39-118 40-49 94-49 55 0 94 49 39 49 39 118 0 107-78 152l-24 197q-51-74-68-189-42-16-69-60-27-44-27-100z m307-138q0-69 39-117 39-49 93-49 55 0 94 49 39 48 39 117 1 95-65 144l-26 192q-52-76-67-172-46-10-77-57-30-46-30-107z" horiz-adv-x="1000" />
<glyph glyph-name="fantome-petit" unicode="&#xe810;" d="m0 136q10-79 138-89l16 0q57 0 94 19 39 20 73 20l5 0q44-2 91-32 46-29 79-31l3 0q33 0 76 30 44 30 86 30l4 0q43-2 76-18 32-16 75-18 27 2 54 9 67 20 130 71-17-1-31-1-119 0-137 92-40 459-336 459l-6 0q-172-4-252-121-57-82-76-242-13-117-57-154-27-24-90-24l-15 0z m278 273q0 23 16 39 17 17 39 17 23 0 38-17 16-16 16-39 0-22-16-38-15-16-38-16-22 0-39 16-16 17-16 38z m124-134q43-11 80-11 30 0 56 7-22-55-72-55l-3 0q-15 2-27 8-29 17-34 51z m191 105q0 22 16 39 16 16 39 16 23 0 39-16 16-17 16-39 0-23-16-39-16-16-39-16-23 0-39 16-16 17-16 39z" horiz-adv-x="1000" />
<glyph glyph-name="fantome-faceur" unicode="&#xe811;" d="m56 250q0 49 88 95-6 41-8 88-6 195 94 305 92 100 247 111 154 12 270-101 124-120 124-314 0-37-5-76 78-45 78-88 0-15-11-29-17-20-41-20-22 0-52 20 0-2-2-5-41-97-116-171-180-178-502-215 85 71 78 145-10 60-52 123-57 83-71 116-38-33-69-33-23 0-38 20-12 14-12 29z m248 205q14-44 59-92l31 31 54-59 50 54 54-69 35 74 54-54 34 89 60-50 15 80 27-20q8 22 19 79-67-81-214-104-21-2-49-2-126 0-229 43z m14 97q0-20 14-34 14-14 33-14 20 0 34 14 14 14 14 34 0 20-14 33-14 14-34 14-20 0-34-14-13-13-13-33z m330 65q0-20 14-34 14-13 33-13 20 0 34 13 14 14 14 34 0 19-14 33-14 14-34 14-19 0-33-14-14-14-14-33z" horiz-adv-x="1000" />
<glyph glyph-name="fantome-lapin" unicode="&#xe812;" d="m238-108q24-7 38-8 21 0 30 19 11 23 19 28 8 4 15 4 9 0 22-8 13-9 18-9 11 0 22 20 4 7 4 17 0 22-28 82-43 90-57 127-35 91-48 181-3 22-3 53l0 3q0 106 35 213 1 218 16 236 7-5 18-28 26-55 67-194l226-1q81 196 108 208 11-8 11-81 0-61-9-160 20-78 20-161 0-60-9-107-28-127-74-217-20-39-79-126-29-42-75-78-50-38-85-38l-3 0q-23 1-49 10-26 8-32 8-14 0-21-21-7-14-24-14-28 0-73 42z m97 544q22-39 74-64 47-23 96-26l6 0q124 0 183 82-92-34-179-34l-9 0q-26 2-53 7-64 12-118 35z m28 81q0-24 23-39 23-16 46-16 26 0 44 18l-108 57q-5-11-5-20z m200-34q19-25 52-25 18 0 37 6 28 15 28 44 0 7-1 13z" horiz-adv-x="1000" />
<glyph glyph-name="face-vampire" unicode="&#xe813;" d="m77 163q0-90 70-175 66-81 156-111 81-27 189-27 112 0 204 27 103 29 165 110 62 81 62 176 0 123-109 215-12 141-24 283-20 182-52 189-1 0-3 0-21 0-42-68-13-42-37-160-24-113-36-153-26 3-51 7-39 4-60 4l-8 0q-22-1-134-13-27 115-56 232-33 136-63 136-1 0-3 0-34-6-52-191-12-140-23-280-93-88-93-201z m119 56q0 27 18 44 19 18 45 18 25 0 43-18 19-17 19-44 0-25-19-43-18-18-43-18-26 0-45 18-18 18-18 43z m14-123q23-6 68-12 37-80 46-80 9 0 37 71 55-5 108-5 98 0 190 16 31-66 40-66 10 0 40 81 36 9 67 19-21-104-165-152-60-20-139-27-80 0-137 15-140 35-155 140z m463 135q0 26 19 44 18 18 43 18 26 0 45-18 18-18 18-44 0-25-18-43-19-19-45-19-25 0-43 19-19 18-19 43z" horiz-adv-x="1000" />
<glyph glyph-name="fantome-citrouille" unicode="&#xe814;" d="m120 486q0-25 5-49 17-102 95-178 71-70 131-70 7 0 14 3-78-56-93-109-1-6-1-13 0-40 48-40 9 0 20 2l-62-182q58 39 111 39l1 0q21 0 35-4 47-21 100-21 48 0 82 18 19 8 49 8 34 0 68-12 34-11 43-25-28 188-145 343 14-7 26-7 60 0 130 70 76 76 97 178 6 28 6 56 0 95-58 165-57 71-123 71-47 0-87-38-28 22-62 30-6 89-78 129l-50-35q49-32 57-89-49-5-91-36-42 39-90 39-67 0-120-71-58-72-58-172z m143 80l163-56q-21-55-74-55-15 0-26 4-64 26-64 89 0 9 1 18z m21-166l72-48 59 48 80-55 83 59 65-56 75 48-33-71-374 0z m123-181l4 3 1-1q-1-1-5-2z m178 291l162 56q1-8 1-16 0-64-63-91-13-4-26-4-55 0-74 55z" horiz-adv-x="1000" />
<glyph glyph-name="face-rieur" unicode="&#xe815;" d="m5 235q0-39 5-72 23-147 153-230 129-83 331-83l12 0q204 0 332 82 128 83 152 231 5 32 5 73 0 173-83 288-54 303-135 326-24-5-52-32-64-66-128-229l-194 0q-84 243-168 261-24-6-47-40-57-82-101-286-82-115-82-289z m98 28q29-32 104-65l1-83q-26 21-47 43-49 53-58 105z m12 85q63 68 132 68 14 0 23-2 22-8 42-25 48-39 73-105-85 74-137 83-56 6-133-19z m113-246l58 69q92-24 204-24 118 0 214 28l55-65q-103-69-271-69-159 0-260 61z m380 177q39 99 115 130 9 3 23 3 69 0 133-69-77 26-134 19-21-8-42-19-52-27-95-64z m179-150l1 77q19 9 34 19 38 23 55 42-12-69-90-138z" horiz-adv-x="1000" />
<glyph glyph-name="face-mickey" unicode="&#xe816;" d="m6 656q0-58 29-105 28-47 76-71-82-102-82-228 0-166 138-284 137-118 332-118 196 0 334 118 138 118 138 284 0 126-83 228 47 24 77 71 29 47 29 105 0 80-56 137-55 57-134 57-78 0-134-57-55-57-55-137l0-14q-58 14-116 14-56 0-116-14 1 9 2 14 0 80-56 137-55 57-134 57-78 0-134-57-55-57-55-137z m162-246l195-69q-32-63-92-63-18 0-34 6-70 37-70 107 0 9 1 19z m59-232q21-12 66-26l51-66 46 48q34-5 64-6l51-55 47 57q25 1 53 5l48-49 52 69q43 9 76 20-21-120-154-185l-44 40-36-62q-25-2-47-2-31 0-60 4l-42 72-44-48q-35 20-61 45-63 59-66 139z m392 159l195 70q2-10 2-19 0-71-71-108-16-6-35-6-59 0-91 63z" horiz-adv-x="1000" />
<glyph glyph-name="face-lapin" unicode="&#xe817;" d="m76 162q0-90 71-175 65-80 156-110 81-27 189-27 111 0 204 27 97 27 162 109 66 83 66 176 0 124-109 216-13 141-24 283-19 183-53 189l-3 0q-20 0-42-68-13-43-36-160-23-113-37-153-25 3-52 7-37 4-60 4l-8 0q-22-1-133-13-28 116-56 231-33 138-63 138l-3 0q-34-7-52-191-12-140-23-281-94-89-94-202z m119 58q0 26 18 45 18 19 44 19 28 0 46-19 18-19 18-45 0-26-18-45-18-19-46-19-26 0-44 19-18 19-18 45z m128-156q57-22 129-22 110 0 228 45-24-108-182-119-46 0-80 10-83 23-95 86z m346 156q0 26 18 45 19 19 45 19 27 0 45-19 19-19 19-45 0-26-19-45-18-19-45-19-26 0-45 19-18 19-18 45z" horiz-adv-x="1000" />
<glyph glyph-name="face-fumeur" unicode="&#xe818;" d="m41 119q3-49 45-49l3 0q-3-16-3-31 0-46 34-78 35-26 60-26l2 0q-27 22-32 86 0 4 0 10 0 16 4 40 6 34 6 47 0 29-18 45-21 19-44 19-23 0-40-18-16-18-17-45z m172-163l20-70 128 36q103-72 238-72 149 0 255 84 105 84 105 202 0 128-120 213 78 217 78 340 0 61-25 107-31 54-89 54-78 0-118-96-33-79-33-265l0-6q0-32 1-66-30 4-54 4-41 0-86-9 1 36 1 71 0 191-33 271-40 96-119 96-56 0-87-54-25-46-25-107 0-131 84-361-95-81-95-192 0-85 59-156z m144 266l135-38q-28-40-69-40-9 0-17 2-49 21-49 76z m5-173q13-9 48-21l-1-17-31-9q-15 27-16 47z m98-113l4 81q34-5 74-6l-3-92q-42 5-75 17z m130-21l3 97q35 1 63 7l15-97q-30-6-61-7l-20 0z m95 275l135 38q0-56-48-76-8-3-18-3-40 0-69 41z m23-157q30 11 57 26l26-78q-30-27-68-43z m104 57q23 17 67 67-6-60-47-128z" horiz-adv-x="1000" />
<glyph glyph-name="face-coupee" unicode="&#xe819;" d="m100 350q0-492 400-500-2 0 13 0 1 26 2 50l-49-3-5 47 56 5q0 27 1 62l-18 0q-219 0-277 128 111-50 285-50l8 0 3 1 0 99-60 13 9 47 51-10q-1 42-1 78l-64-6-4 49 67 6q-1 42-2 95l-59-11-10 48 67 14-3 84-47-2-3 49 48 2-3 67-57 13 10 47 45-10-4 88q-166-1-283-147-116-146-116-353z m101 111q0 25 18 43 17 18 42 18 26 0 44-18 18-17 18-43 0-25-18-42-18-18-44-18-25 0-42 18-18 17-18 42z m322 387l5-90 56-11-10-48-44 9 2-62 44 3 3-49-45-2 4-82 42 9 10-48-51-10q1-46 2-99l35 3 5-48-39-4q1-43 1-85l41-9-10-48-31 7 0-93q48 7 92 20 105 32 173 94-20-104-146-158-51-23-120-33 0-35-1-63l48 4 4-48-53-5q-1-19-4-52 206 9 292 154 72 120 72 346 0 199-110 343-109 145-267 155z m158-343q0 25 18 43 18 18 43 18 25 0 43-18 17-18 17-43 0-25-17-43-18-18-43-18-25 0-43 18-18 18-18 43z" horiz-adv-x="1000" />
<glyph glyph-name="face-cuir" unicode="&#xe81a;" d="m92 269q0-236 60-318 35-48 141-75 98-26 219-26 113 0 201 22 96 24 134 67 61 71 61 299l0 8q-38 5-76 10l0-42-47 0 0 48q-61 10-103 20l-21-38-41 24 14 26q-30 10-40 19-18 14-32 118l-42-2-2 48 39 1q-4 43-7 97l-51-4-5 48 53 5q-3 40-5 90l-55 0 0 47 52 0q-1 42-3 87-31 2-63 2-194 0-263-87-58-70-90-215-28-131-28-279z m121 185q0 24 17 42 18 18 43 18 24 0 42-18 18-18 18-42 0-26-18-44-18-17-42-17-25 0-43 17-17 18-17 44z m1-285q102-55 271-63 183 0 330 47-76-139-323-150-70 4-123 21-128 42-155 145z m347 677l3-85 42 0 0-47-41 0q2-44 6-88l50 4 4-48-52-5q5-54 8-96l52 2 2-49-48-2q10-91 20-100 10-8 40-17l25 47 42-23-19-35q37-9 90-17l0 37 47 0 0-43q39-6 76-11-3 146-28 282-27 139-65 190-57 79-254 104z m127-349q0 24 18 42 17 18 42 18 26 0 43-18 18-18 18-42 0-25-18-43-17-17-43-17-25 0-42 17-18 18-18 43z" horiz-adv-x="1000" />
<glyph glyph-name="face-chat" unicode="&#xe81b;" d="m225 235q0-39 2-72 13-147 85-230 73-83 185-83l6 0q114 0 185 82 72 83 85 231 2 32 2 73 0 173-46 288-30 303-75 326-13-5-29-32-35-66-71-229l-108 0q-47 243-93 261-14-6-27-40-31-82-56-286-46-115-45-289z m54 28q16-32 58-65l1-83q-15 21-27 43-27 53-32 105z m7 85q35 68 73 68 8 0 13-2 13-8 24-25 26-39 40-105-47 74-76 83-31 6-74-19z m63-246l32 69q51-24 113-24 66 0 119 28l31-65q-57-69-150-69-89 0-145 61z m211 177q22 99 64 130 6 3 13 3 38 0 74-69-43 26-75 19-11-8-23-19-29-27-53-64z m100-150l0 77q10 9 19 19 21 23 31 42-7-69-50-138z" horiz-adv-x="1000" />
<glyph glyph-name="face-bouffon" unicode="&#xe81c;" d="m0 572q0-28 19-47 19-20 46-20 28 0 47 20 20 19 20 47 0 7-2 14l133 29 8-175q-118-84-144-229-4-23-5-45 0-119 114-187 102-62 251-62 142 0 249 67 117 72 117 178 0 24-7 49-34 125-118 204l8 200 134-29q-1-7-2-14 0-28 19-47 20-20 47-20 27 0 47 20 19 19 19 47 0 27-19 47-20 19-47 19-36 0-56-30-173 185-225 174-51-10-151-278l-4 0q-100 268-151 278-52 10-226-174-19 30-56 30-26 0-46-19-19-20-19-47z m230-353q0 24 18 41 17 17 42 17 24 0 41-17 17-17 17-41 0-24-17-41-17-17-41-17-25 0-42 16-18 17-18 42z m126-129q52-34 114-34 77 0 150 45-11-80-138-91-33 0-57 8-60 19-69 72z m271 135q0 24 17 41 17 17 42 17 24 0 41-17 17-17 17-41 0-25-17-41-17-17-41-17-25 0-42 17-17 16-17 41z" horiz-adv-x="1000" />
<glyph glyph-name="etoile-os" unicode="&#xe81d;" d="m0 463l250-244-59-345 309 164 309-164-59 345 250 244-345 50-155 313-155-313z m330-306q-1 33 36 33 11 0 23-3l76 75-78 77q-8-1-18-1-38 0-38 27 0 3 0 7 4 24 28 24 8 0 17-3-3 9-3 18 0 23 24 27l4 0q30 0 30-35 0-10-3-23l78-77 76 77q-3 13-3 23 0 35 30 35l4 0q25-4 25-27 0-8-4-18 10 3 18 3 23 0 28-24 0-3 0-6 0-28-38-28l-1 0q-9 0-18 1l-78-77 77-74q12 3 22 3 37 0 36-34-5-26-28-26-8 0-18 4 4-10 4-18 0-23-25-28-3 0-6 0-28 0-28 39 0 9 2 18l-75 76-76-76q1-8 1-18 0-39-28-39-3 0-6 0-24 5-24 28 0 8 3 18-10-4-17-4-23 0-29 26z" horiz-adv-x="1000" />
<glyph glyph-name="etoile-pentacle" unicode="&#xe81e;" d="m-24 457q0-25 21-39l265-193-101-313q-3-7-3-15 0-19 15-33 14-14 34-14 15 0 28 9l266 193 265-193q13-9 29-9 19 0 33 14 14 14 14 33 0 8-2 15l-101 313 266 193q19 14 19 38 0 22-14 36-14 14-34 14l-329 0-101 311q-10 33-45 33-35 0-47-33l-101-311-328 0q-21 0-35-15-14-14-14-34z m197-47l149 0-28-89z m126-386l44 141 75-54z m76 237l48 149 154 0 49-149-125-90z m79 245l47 141 46-141-93 0z m128-395l75 54 46-141z m97 299l149 0-120-89z" horiz-adv-x="1000" />
<glyph glyph-name="etoile-mort" unicode="&#xe81f;" d="m0 463l250-244-59-344 309 163 309-163-60 344 251 244-346 49-154 313-155-313z m306-174q0 80 62 134 58 53 138 53 80 0 140-54 61-54 61-133 0-101-121-132l0-6q0-16-10-27-11-12-25-13-14-2-22 4-12-8-25-8-15 0-27 9-7-7-22-5-15 1-26 13-10 11-10 27l0 8q-113 33-113 130z m61 16q0-28 16-46 16-19 39-19 22 0 38 19 16 18 16 46 0 26-16 45-16 19-38 19-23 0-39-19-16-19-16-45z m115-101q0-19 25-19 21 0 20 16 0 11-7 23-6 11-14 11-7 0-15-10-9-11-9-21z m50 101q0-28 16-46 16-19 38-19 23 0 39 19 17 18 17 46 0 26-17 45-16 19-39 19-22 0-38-19-16-19-16-45z" horiz-adv-x="1000" />
<glyph glyph-name="epines" unicode="&#xe820;" d="m1000 289l-122 13q-17-68-60-118l37-125-92 80q-52-30-111-30l-7 0-57-105-10 117q-66 23-86 72-13 34-13 72 0 59 35 98 4-110 70-140 16-5 34-5 9 0 19 2l-14 107 81-82q54 37 54 105l0 8q-1 16-6 32l-123-15 91 75q-50 64-129 87l-53-85-1 93-10 0q-89 0-142-61l84-84-119 26q-18-46-18-102 0-24 3-47l118 18-101-89q21-63 62-117l102 37-62-82q32-31 69-56l-157-110q-85 66-157 186l-106-24 77 78q-36 80-40 158l-140 73 143 13q11 87 44 153l-80 105 117-44q76 94 207 115l5 131 75-126q98-1 164-27l115 82-48-117q40-28 71-66l156 5-111-76q26-57 28-116z" horiz-adv-x="1000" />
<glyph glyph-name="des" unicode="&#xe821;" d="m0 394l3-264q3-187 166-227l351-48q37-4 69-4 142 0 221 74l106 117q83 58 81 279l0 252q3 22 3 40 0 171-194 207l-314 29q-142 3-217-55l-159-122q-112-54-116-278z m102 18q0 31 23 49 24 18 56 14 34-4 57-29 23-25 23-56 0-31-24-50-23-19-56-15-32 4-56 30-23 25-23 57z m7-340q2 31 24 50 23 19 57 15 32-4 55-30 23-25 23-56 0-32-24-50-23-18-56-14-32 4-56 29-23 24-23 56z m175 141q1 31 23 51 23 19 57 15 32-4 55-30 23-26 23-57 0-31-24-49-23-19-56-15-32 4-55 29-23 25-23 56z m123 493q0 20 33 35 33 15 81 15 48 0 81-15 34-15 34-35 0-20-34-34-34-14-81-14-48 0-81 14-33 14-33 34z m65-341q0 31 23 49 24 19 56 15 34-4 57-29 22-25 22-56 0-31-23-51-23-19-56-14-32 4-56 29-23 25-23 57z m8-340q1 31 24 50 23 19 57 15 32-4 55-30 23-25 23-56 0-32-23-51-24-19-56-13-33 4-56 29-24 25-24 56z m252 373q0 94 27 94 27 0 27-94 0-97-27-97-27 0-27 97z m90-74q0 85 24 85 25 0 25-85 0-85-25-85-24 0-24 85z m82-72q0 85 25 85 24 0 24-85 0-85-24-85-26 0-25 85z" horiz-adv-x="1000" />
<glyph glyph-name="croix-os" unicode="&#xe822;" d="m1 41q27-70 78-70l1 0q23 0 50 10-9-29-9-52 0-30 20-52 20-22 51-26 8-1 16-1 81 0 81 109 0 29-5 53l217 217 216-217q-6-24-6-52 0-110 80-110 8 0 17 1 72 27 72 78 0 23-11 52 28-10 51-10 32 0 54 20 22 20 26 50l0 7q0 89-103 89-29 0-66-7l-216 214 223 222q24-5 52-5 110 0 110 80 0 8-1 17-27 72-78 72l-1 0q-23 0-51-11 9 28 9 51 0 32-19 54-20 21-51 26l-6 0q-91 0-91-104 0-28 8-62l-218-225-221 221q7 37 7 67 0 103-89 103l-6 0q-71-28-71-80 0-23 11-51-29 11-52 11-31 0-53-21-22-20-26-51-1-8-1-16 0-81 111-81 28 0 52 5l222-222-216-214q-37 7-67 7-101 0-101-88l0-8z" horiz-adv-x="1000" />
<glyph glyph-name="croix-croix" unicode="&#xe823;" d="m0 63l5-7 75 0-1-82 84 1-10-84 5-4 342 304 342-304 5 4-10 84 83-1-2 82 76 0 6 7-323 287 322 286-95 0 10 81-82 9 10 87-342-304-342 304 10-87-83-9 11-81-95 0 321-286z" horiz-adv-x="1000" />
<glyph glyph-name="corbeau" unicode="&#xe824;" d="m76 761q6-5 31-14 59-20 201-47l68-67q-49-40-49-127 0-44 12-87 22-72 48-134 63-153 135-239 12-2 20-2 28 0 28 28 0 18-11 41 32-29 49-29 17 0 17 27 0 15-5 40 56-45 125-53 28-101 28-156l0-3q0-49 21-50 14 0 34 23 3-62 28-62 12 0 23 11 21 22 21 93 0 58-14 145 39 121 39 231 0 192-116 340-52 67-145 67l-6 0q-33 63-69 85-43 28-107 28-60 0-119-28-25 12-68 12-46 0-96-12-124-29-124-57 0-2 1-4z m331 6l121 7q-6-52-67-56-13 1-22 7-25 12-32 42z" horiz-adv-x="1000" />
<glyph glyph-name="coeur-mort" unicode="&#xe825;" d="m1 560q13-92 66-195 128-246 434-511 305 265 433 511 53 103 66 195l0 14q0 128-83 206-69 66-158 66-22 0-45-4-126-23-213-162-104 165-257 165l-1 0q-102 0-174-78-69-77-69-190 0-9 1-17z m240-206q0 102 80 173 74 67 178 67l2 0q103 0 181-69 78-69 78-171 0-61-41-107-40-46-115-65l0-8q0-20-13-35-14-15-33-16-20-3-29 6-15-11-32-12-19 0-34 13-9-10-30-7-18 1-32 16-14 15-14 35l0 10q-146 44-146 170z m78 19q0-34 21-59 21-25 51-25 29 0 49 25 21 25 21 59 0 35-21 59-20 24-49 24-30 0-51-24-21-24-21-59z m150-131q0-23 32-23 27 0 27 21 0 13-9 28-10 15-19 15-8 0-19-14-12-13-12-27z m65 131q0-34 20-59 21-25 50-25 30 0 51 25 20 25 20 59 0 35-20 59-21 24-51 24-29 0-50-24-20-24-20-59z" horiz-adv-x="1000" />
<glyph glyph-name="coeur-eclair" unicode="&#xe826;" d="m-4 556q13-92 67-195 128-246 433-511 305 265 433 511 53 103 67 195l0 14q-1 128-83 206-71 66-157 66-22 0-45-4-128-23-215-162-104 165-255 165l-1 0q-104 0-174-78-70-78-70-192l0-15z m332-156l379 243-173-247 143-93-317-223 162 244z" horiz-adv-x="1000" />
<glyph glyph-name="coeur-croix" unicode="&#xe827;" d="m0 560q15-92 68-195 127-246 433-511 304 265 432 511 53 103 67 195l0 14q-1 128-83 206-70 67-158 66-22 0-45-4-127-23-213-162-105 165-255 165l-2 0q-103 0-174-78-70-79-70-196l0-11z m290-299l0 212q67-74 181-82-9 122-80 180l206 0q-71-52-79-180 121 8 181 78l0-205q-53 71-181 80 7-114 82-182l-212 0q74 68 83 180-114-7-181-81z" horiz-adv-x="1000" />
<glyph glyph-name="coeur-aile" unicode="&#xe828;" d="m0 304q34 29 62 29l1 0q29 0 44-26 25 65 64 65l1 0q25 0 49-23 2 52 47 65 15-41 42-86 68-108 189-213 180 157 231 300 14-6 23-15 25-21 26-51 24 23 50 23 40 0 65-65 15 26 43 26 29 0 63-29-107 158-165 190-10 4-23 4-31 0-78-20-7 48-40 78-32 29-74 29-72 0-121-79-51 79-122 79-42 0-74-29-32-29-39-77-46 19-76 19-13 0-23-4-17-9-39-31-54-53-126-159z" horiz-adv-x="1000" />
<glyph glyph-name="cle-mort" unicode="&#xe829;" d="m1000 506q0-89-50-162-55-83-160-83-66 0-130 36-22 15-37 24l-402-421q-18-18-39-18-27 0-56 26l-1 1q-31 29-31 58 0 20 17 37l6 8-117 110 73 79 72-68 28 30-72 67 84 91 118-111 208 213q-17 23-34 52-40 64-40 131 0 93 71 151 79 61 178 61 117 0 211-87 103-97 103-225z m-98-33q0 34-25 57-22 20-53 20-42 0-72-32-30-32-30-71 0-36 23-57 22-22 53-22 43 0 75 35 29 30 29 70z m-184 171q0 36-24 57-23 20-54 20-42 0-74-33-28-30-28-69 0-36 23-57 23-22 54-22 42 0 74 34 29 30 29 70z m-61-193q0 22-24 22-17 0-32-9-14-9-15-23 0-14 12-28 13-13 27-13 13 0 23 20 9 17 9 31z" horiz-adv-x="1000" />
<glyph glyph-name="cle-chat" unicode="&#xe82a;" d="m1000 578q0-48-156-236-12-25-29-44-55-59-141-59-60 0-117 31l-353-384q-17-17-37-17-25 0-50 23l-2 2q-27 25-27 51 0 18 14 34l6 7-108 99 67 73 65-61 25 27-65 61 75 82 108-99 180 196q-41 62-41 132 0 108 89 159 177 176 223 176 17 0 17-29 0-43-37-145 79-37 123-113 106 50 147 50 24 0 24-16z m-295-101q0 26-18 43-18 16-41 16-26 0-43-18-16-18-16-41 0-26 18-42 17-17 41-17 26 0 42 18 17 18 17 41z" horiz-adv-x="1000" />
<glyph glyph-name="citrouille" unicode="&#xe82b;" d="m0 314q0-38 8-74 27-135 128-235 91-91 170-91 41 0 76 40 62-40 115-40 58 0 121 43 37-43 79-43 81 0 173 91 103 101 125 235 5 34 5 67 0 130-75 225-71 92-159 92-63 0-118-51-55 41-119 49 3 21 10 42 21 46 64 74l-66 48q-95-53-102-171-45-12-83-39-54 48-115 48-86 0-160-90-77-95-77-220z m175 75q0 10 1 22l213-73q-26-74-97-74l-1 0q-18 0-34 5-82 35-82 120z m37-202l101-64 85 74 110-78 105 73 77-64 95 64-36-100-492 0z m387 151l214 73q1-12 1-22 0-85-83-120-16-5-34-5-71 0-98 74z" horiz-adv-x="1000" />
<glyph glyph-name="cimetiere" unicode="&#xe82c;" d="m98 467q17-13 94-43-32-20-32-48 0-15 10-31 73 31 143 38 29 9 108 11 1-33 1-64 0-102-11-221l-102 0q-19-1-33-8-33-19-43-69l-37-182 606 0-34 185q-13 71-68 74l-48 0q-80 0-78 0-11 112-11 221l0 63q41-1 126-10 22-3 45-8 54-12 96-30 10 16 10 31 0 28-32 48 57 16 95 43-11 7-24 14-32 16-68 25 31 19 31 47 0 16-11 33-69-39-142-45-39-6-119-9 3 37 12 104 19 59 51 141-20 12-38 12-31 0-53-31-14 54-44 92-8-12-17-25-20-31-31-69-23 32-55 32-17 0-34-11 36-64 43-141 6-29 11-104-36 1-102 9-56 13-143 45-12-18-11-33 0-28 31-47-55-14-92-39z" horiz-adv-x="1000" />
<glyph glyph-name="chouette" unicode="&#xe82d;" d="m194 270q0 32 16 60 17 29 38 37-19 37-19 76 0 80 71 141 31 258 69 266 1 0 3 0 37 0 101-197 17 1 31 1 18 0 41-3 64 199 101 199 1 0 3 0 40-8 70-275 61-57 61-132 0-42-22-82 8-6 17-17 31-38 31-79 0-108-195-312 15-12 20-22 5-10 5-25 0-26-21-52l-19 30-28-34-18 34-42-22 3 57q-6 1-42 2l3-59-41 22-19-34-28 34-19-30q-21 26-21 52 0 15 5 26 8 14 25 23-64 52-120 144-60 99-60 171z m128 211q0-19 14-33 13-14 33-14 19 0 33 14 14 14 14 33 0 19-14 33-14 14-33 14-20 0-33-14-14-14-14-33z m85-106q9-65 113-75 26 1 46 6 48 16 56 59-43-27-93-27-63 0-122 37z m199 106q0-19 14-33 14-14 33-14 20 0 34 14 14 14 14 33 0 19-14 33-14 14-34 14-19 0-33-14-14-14-14-33z" horiz-adv-x="1000" />
<glyph glyph-name="chauve_souris" unicode="&#xe82e;" d="m0 241q49 19 89 19 19 0 30-3 45-21 45-62 0-3 0-6 35 29 71 29 14 0 25-5 12-7 21-17 22-24 25-58 32 46 74 46 9 0 15-2 6-10 11-18 15-20 34-33 29-17 65-17 24 1 43 7 46 16 60 56 5 1 12 1 49 0 74-52 5 51 46 76 11 4 26 4 35 0 70-28 0 3 0 6 0 40 45 62 11 3 30 3 40 0 89-19-111 181-177 181-2 0-4 0-31-11-133-86-2 50-46 88-19 168-46 173l-1 0q-24 0-67-128-10 1-19 1-12 0-27-2-41 129-66 129-1 0-2 0-26-5-46-179-37-35-39-80-113 84-146 95-2 0-4 0-66 0-177-181z m378 105q0 13 9 22 9 9 22 9 13 0 22-9 9-9 9-22 0-13-9-22-9-9-22-9-13 0-22 9-9 9-9 22z m56-61q27-17 61-17 40 0 79 24-6-43-73-49-17 1-31 5-31 10-36 37z m130 61q0 13 9 22 9 9 21 9 13 0 22-9 9-9 9-22 0-13-9-22-9-9-22-9-12 0-21 9-9 9-9 22z" horiz-adv-x="1000" />
<glyph glyph-name="chat" unicode="&#xe82f;" d="m0 761q-1 46 14 46 20-13 41-56 51-104 103-342 165 26 319 29l4 4q94 242 122 242 23 0 77-137 24 3 44 4 20-1 44-5 59 134 81 135 28-1 111-241 40-54 40-116-2-78-63-137-61-59-154-75 57-122 57-172 0-28-20-28-23 4-48 24-58 46-112 159l-42 0q-3-189-63-202-18 4-31 26-29 51-32 178l-182 10q14-72 14-121 0-75-29-84-15 3-29 23-37 45-76 165-8-181-71-181-7 0-11 2-42 34-42 220 0 99 13 231-80 294-79 399z m555-415q0-19 13-32 13-13 32-13 19 0 32 13 13 12 13 31 1 19-12 32-14 13-32 13-19 1-32-11-14-13-14-33z m107-98q5-50 87-53 22 1 38 6 40 15 49 48-22-17-43-16-26 0-42 22-19-23-46-23-21 0-43 16z m188 99q-1-19 12-32 13-13 32-13 19 0 32 13 13 12 14 31 0 19-13 32-13 13-31 13-19 0-32-12-14-13-14-32z" horiz-adv-x="1000" />
<glyph glyph-name="cerceuil" unicode="&#xe830;" d="m850 479l-114-574q-6-28-34-30l-251-25q-7-1-15 3l-113 36-174 542 106 339 119 75 0-2q9 7 22 7l287 0q25 0 33-22l132-330q4-10 2-19z m-73 2l-119 297-234 0-81-322q59-239 131-530l194 18q4 28 56 280 52 252 53 257z m-63-64l-98-2 2-425-40 23-41-29 0 430-97 0 28 43-34 48 97 1-2 218 41-23 36 23 5-217 98 2-24-47z" horiz-adv-x="1000" />
<glyph glyph-name="bougie" unicode="&#xe831;" d="m279 329q0-28 12-48 18-29 50-29 6 0 14 1l23-380q28-22 109-23 23 0 43 3 48 7 71 25l28 257q50 2 79 43 13 20 13 43 0 17-7 31-7 13-15 27-4 11-2 36 3 62-34 95-31 28-136 34 2 8 4 13l-1 0q76 17 76 82 0 27-19 81-8 25-82 230l-87-151q-45-80-45-133 0-39 23-69 23-30 62-40-1-6-3-12-102-5-135-31-41-33-41-85z m62 0q1 22 17 36 17 13 93 17 0-15 1-27l70 3 0 24q83-4 100-19 13-10 13-29l0-17q-1-12-2-18 0-36 19-62 6-9 7-16 0-3-1-6-10-17-30-17-15 4-15 26l0 15 0 14q0 34-17 51-17 18-50 15-28-2-60-26-18-13-27-13-5 0-21 13-35 29-63 29-16 0-32-7-2 6-2 14z m117 220q0 50 28 91 39-58 39-91 0-34-36-38-32-1-31 38z" horiz-adv-x="1000" />
<glyph glyph-name="bougeoire" unicode="&#xe832;" d="m187 23q0-18 12-33 59-125 229-125 82 0 139 37 6-28 36-47 13-9 26-1 14 7 14 24 0 14-10 21-10 8-12 13l2 2q2 3 45 9l38 4q107 27 108 104 0 60-62 79-16 6-34 6-49 0-98-41-33 22-94 34l15 134q45 2 68 38 12 16 12 35 0 17-12 37-11 19-9 44 4 54-29 81-28 24-121 28 1 7 2 11 70 13 70 70 0 23-17 69-7 21-71 194l-75-127q-39-69-39-114 0-35 21-60 22-25 56-33-1-5-1-9-93-3-122-26-36-28-36-73 0-26 14-44 15-22 40-22 6 0 12 2l15-234q-132-23-132-87z m54 0q12 19 81 33l3-35q24-19 93-20 20 0 38 3 42 6 61 21l3 30q67-14 77-32-7-13-50-25-54-16-128-16-74 0-128 16-43 12-50 25z m51 384q1 20 16 32 14 11 84 13l0-22 53 3 0 19q75-3 91-16 11-8 11-24 0-5-1-15-1-10-1-15 0-30 17-52 5-8 5-13 0-2-1-4-8-16-26-16-12 4-12 22l0 12q1 8 1 13 0 28-15 43-16 15-45 13-23-1-52-21-15-12-22-12-3 0-27 18-24 17-46 17-13 0-28-5-2 4-2 10z m102 187q0 43 24 78 33-47 33-77 0-28-31-32-26-1-26 31z m241-621q6 10 14 34l-1 0q3 9 3 16 0 2-1 8 35 31 68 31 43 0 42-31-1-35-67-51l-29-4q-9-1-29-3z" horiz-adv-x="1000" />
<glyph glyph-name="arme-hache" unicode="&#xe833;" d="m0-19l350 461q-10 9-18 14-14 9-16 25-2 16 7 28l183 240q11 15 29 14 11 0 42-22l34 44 87-66-25-33q147-71 295-89 33-5 32-37 0-36-16-87-29-102-99-194-70-92-158-149-45-29-78-39-5-2-12-2-24 0-34 23-56 138-170 257l-346-454z m585 316q42-60 71-123 96 49 171 149 76 100 96 208-70 12-141 34-2-41-20-67-18-26-55-32-37-6-51-24-14-17-14-34 0-5 2-16 1-11 1-16 0-20-11-39-17-27-49-40z" horiz-adv-x="1000" />
<glyph glyph-name="arme-fleau" unicode="&#xe834;" d="m0 41q1 16 10 31l425 620q17 23 46 23 17 0 30-10 25-15 25-45 0-17-10-31l-27-40 22-62 74 4q27 1 29-26l4-60 58 1q20 0 26-17l20-52q6 3 14 5l19 80 40-72q24 0 46-10l69 41-21-72q19-20 30-45l71-19-58-36q0-22-7-45l46-59-71 11q-18-24-45-38l-11-75-41 57q-30-3-60 5l-57-42 10 67q-24 19-38 45l-70 10 53 42q-3 24 2 48l-43 49 62 0q7 10 14 18l-18 48-66 0q-26-1-28 25l-4 59-65-4q-21-1-28 18l-17 46-360-526q-16-23-44-23-18 0-32 10-24 17-24 46z m735 235q0-15 10-26 11-10 27-10 15 0 27 11 11 11 11 27 0 15-11 26-11 11-26 11-16 0-27-11-11-11-11-28z" horiz-adv-x="1000" />
<glyph glyph-name="arme-epees" unicode="&#xe835;" d="m0-8q0-10 5-20 11-16 28-16 4 0 10 2l179 113 22-32q0-11-7-29-6-19-6-33 1-12 4-21 11-21 37-24-10 13-10 26 0 20 17 37 52 41 52 101 0 17-4 33 95 64 173 125 78-61 173-125-4-16-4-33 0-60 51-101 18-17 18-37 0-13-10-26 39 5 41 45-1 14-7 33-6 18-7 29l23 32 178-113q6-2 11-2 17 0 27 16 6 10 6 20 0 15-11 24l-165 115 26 33q10 5 29 7 19 3 33 10 23 13 23 37 0 9-3 19-12-25-39-25-9 0-19 3-36 20-74 20-44 0-78-29-69 50-142 115 191 168 215 294 4 27 4 57 0 70-29 96-97-194-270-370-172 176-270 370-30-26-30-96 0-30 5-57 24-126 214-294-73-65-142-115-34 29-77 29-38 0-75-20-9-3-18-3-28 0-39 25-4-9-4-19 0-24 24-37 14-7 33-9 19-3 29-8l25-33-164-115q-11-9-11-24z" horiz-adv-x="1000" />
<glyph glyph-name="arme-epee" unicode="&#xe836;" d="m0-32q0-33 24-59 24-26 62-26 33 0 58 24 25 23 26 59l111 102q23-17 58-28 29-10 44-25 15-14 27-29 30-35 47-67 14 36 25 84 6 22-92 136l560 462 50 216-222-24-502-531q-107 106-130 102-23-3-86-18 46-29 90-80 15-17 23-51 10-38 27-62l-106-100q-38 4-66-21-28-26-28-64z m62-21q-20 21 1 40 21 20 39-1 20-21-1-41-20-19-39 2z" horiz-adv-x="1000" />
<glyph glyph-name="arme-bombe" unicode="&#xe837;" d="m81 260q0-169 119-290 120-120 290-120 169 0 290 120 120 121 120 290 0 164-114 283 82 58 82 158 0 14-2 31l54 93-47-9-24 34-34-32-38 25-24-38-61 11q0-2 58-88 2-42-12-65-13-24-51-44-91 50-197 50-170 0-290-120-119-119-119-289z m535 36q0 29 22 50 21 21 53 21 30 0 52-21 21-21 21-50 0-30-21-51-22-21-52-21-32 0-53 21-22 21-22 51z" horiz-adv-x="1000" />
<glyph glyph-name="araignee" unicode="&#xe838;" d="m61 286l48-51 107 103q96-50 136-73l-130 23q-4 0-8 0-17 0-27-15l-106-153 58-40 93 135 48-9q-50-59-50-131 0-93 77-159 77-66 187-66 108 0 185 66 78 66 78 159 0 68-44 125l60 7 74-122 60 37-86 141q-10 17-28 17-3 0-6 0-135-18-146-19 67 37 142 77l107-103 49 51-125 120q-11 10-23 10-8 0-17-4l-134-70q49 54 108 118l155-84 33 62-178 97q-10 5-18 5-13 0-25-12l-117-123q-33 30-78 36l0 409-51 0 0-410q-38-7-68-34l-107 119q-11 12-24 12-8 0-17-5l-188-94 32-63 164 82q100-110 97-115l-133 70q-9 4-17 4-12 0-23-10z m245-238q15-6 47-14l36-70 32 58q26-3 41-3l6 0 69 1q9 0 39 3l27-59 43 71q31 6 55 12-16-74-109-115l-32 25-26-38q-17-2-34-2-21 0-42 2l-30 45-31-29q-26 12-44 28-45 37-47 85z m18 92q0 18 12 31 13 13 32 13 18 0 32-13 13-13 13-31 0-20-13-32-14-13-32-13-19 0-32 13-12 12-12 32z m266-6q0 19 13 32 13 13 31 13 20 0 32-13 13-13 13-32 0-19-13-31-12-13-32-13-18 0-31 13-13 12-13 31z" horiz-adv-x="1000" />
<glyph glyph-name="warning" unicode="&#xe839;" d="m0-23q0-72 91-72l818 0q91 0 91 72 0 26-18 56l-410 709q-29 53-72 53-43 0-74-53l-409-709q-17-30-17-56z m439 82q0 28 20 48 20 20 47 20 27 0 47-20 19-20 19-48 0-27-19-47-20-20-47-20-27 0-47 20-20 20-20 47z m0 400q0 100 65 107 61-7 61-103 0-93-63-253-62 157-63 249z" horiz-adv-x="1000" />
<glyph glyph-name="toile" unicode="&#xe83a;" d="m0 331l37-2q31-36 46-95 11-46 11-94l0-5q0-32-4-55l-61-49 47-59 80 64q63 0 136-43 85-49 131-91l-2-46 75-4 2 49q68 48 146 71 77 24 170 34l52-46 50 56-49 44q-4 21-4 44 0 48 15 89 16 42 45 73 14 13 27 24l46-1 4 75-55 1q-24 69-34 134-11 66-12 128l39 31-47 59-126-100-1 0q-17 5-36 13-43 20-87 51-59 43-100 75l3 88-75 4-2-85q-57-33-133-62-82-30-144-46l-66 59-51-57 71-61q-14-45-38-86-29-57-79-106l-24 1z m124 69q51 64 81 143l52-48q-3-23-12-42-16-33-39-56z m6-76l93-4q15-17 19-32 2-10 2-26 0-25-5-64l-69-55q-1 105-40 181z m106-224l62 49q38-10 73-26 43-20 61-53l-4-75q-42 31-98 63-47 28-94 42z m21 496q46 14 97 33l6 2q55 21 102 44l-3-61q-41-21-77-37-34-15-78-14l-6 0-3 0z m40-203q15 24 23 47l58-50z m14-76l74-3-66-52q0 32-8 55z m57-112l73 57-4-90q-25 17-69 33z m3 290q31 7 84 32l-5-100z m132-502l3 66q39 38 78 53 38 15 90 17l65-58q-62-10-119-27-59-18-117-51z m8 165l6 109 82-72q-48-11-88-37z m14 267l4 83q30-21 60-32z m8 175l4 65q27-21 59-44 49-36 101-58l-37-31q-42 9-71 28-24 15-56 40z m55-295l101-4q-23-27-31-58z m2 76l109 87q0-51 17-92z m138-199q-1 8-1 16 0 30 15 49 22 28 51 49l56-2q-26-33-41-73-17-44-20-92z m47 270q-1 10-1 19 0 30 7 62l45 37q4-43 11-84 9-57 28-117l-63 3q-24 36-27 80z" horiz-adv-x="1000" />
<glyph glyph-name="tete-roi" unicode="&#xe83b;" d="m63 235q0-100 64-176 65-75 182-110l0-18q0-32 23-51 22-20 55-23 6 0 11 0 26 0 40 13 25-20 56-20 30 0 54 18 14-11 37-11 5 0 11 0 35 3 57 22 21 20 21 52l0 14q127 32 196 112 67 76 67 178 0 98-56 196-55 96-138 150l15 126q6-2 11-2 18 0 30 13 13 12 13 30 0 18-13 30-13 13-30 13-18 0-30-13-13-12-13-30 0-14 10-26-56-35-110-35-13 0-26 3-51 9-85 78 28 10 28 39 0 18-12 31-13 12-30 12-18 0-31-12-12-13-12-31 0-29 28-39-32-69-83-78-14-3-28-3-54 0-108 35 8 13 8 26 0 18-12 30-13 13-30 13-18 0-31-13-12-12-12-30 0-18 12-30 13-13 31-13 5 0 11 2l10-126q-73-46-123-125-49-79-64-173-4-24-4-48z m132 32q0 58 35 99 35 41 85 41 49 0 84-41 35-41 35-99 0-59-35-99-35-41-84-41-50 0-85 41-35 40-35 99z m254-219q0 22 17 45 18 23 34 23 16 0 31-25 14-26 14-49 0-34-44-34-29 0-44 16-8 9-8 24z m107 219q0 58 35 99 34 41 84 41 49 0 84-41 36-41 36-99 0-59-36-99-35-41-84-41-50 0-84 41-35 40-35 99z" horiz-adv-x="1000" />
<glyph glyph-name="tete-pirate" unicode="&#xe83c;" d="m0 344q0-115 74-201 74-86 208-126l0-21q0-38 27-65 26-28 62-30 7 0 13 0 29 0 44 14 29-23 66-23 33 0 62 21 15-12 41-12 6 0 14 0 38 4 63 30 26 27 26 65l0 17q146 38 226 130-61 48-114 98-41-26-89-26-68 0-116 50-49 50-49 120 0 66 46 115-94 155-122 308-191-5-324-125-127-115-153-284-5-28-5-55z m150 38q0 65 41 113 40 48 97 48 56 0 96-48 41-48 41-113 0-67-41-114-40-47-96-47-57 0-97 47-41 47-41 114z m292-252q0 26 19 52 20 26 39 26 19 0 35-28 16-29 16-56 0-40-50-40-33 0-50 18-9 11-9 28z m109 676q29-132 107-266 32 14 65 14 70 0 118-49 48-49 48-120 0-53-28-96 48-47 103-90 35 68 36 146 0 26-4 54-26 163-142 274-123 118-303 133z" horiz-adv-x="1000" />
<glyph glyph-name="tete-os" unicode="&#xe83d;" d="m126-17q0-42 55-45-22-22-22-43 0-22 22-37 14-8 27-8 41 0 59 70l233 85 233-85q18-70 60-70 12 0 26 8 23 15 23 37 0 21-22 43 54 3 54 45 0 8-2 15-12 33-43 33l-1 0q-27 0-63-26l-133 49 135 49q34-22 63-22 32 0 42 33 2 7 2 15 0 42-54 45 22 22 22 43 0 22-23 37-12 6-25 6-44 0-60-71l-234-87-234 85q-16 73-59 73l-1 0q-13 0-25-6-22-15-22-37 0-21 22-43-55-3-55-45 0-7 2-15 11-33 42-33 29 0 63 22l136-49-134-48q-35 25-62 25-32 0-45-33-2-6-2-15z m2 527q0-84 55-147 55-63 155-92l0-15q0-28 19-47 19-19 47-21 4 0 8 0 23 0 35 10 22-16 49-16 25 0 46 15 12-9 32-9 4 0 9 0 28 3 47 22 19 18 19 46l0 11q108 28 167 94 57 63 57 149 0 19-4 40-20 128-118 211-103 89-251 89-148 0-251-88-98-84-117-212-4-21-4-40z m112 27q0 49 30 84 30 34 72 34 42 0 72-34 30-35 30-84 0-49-30-83-30-35-72-35-42 0-72 35-30 34-30 83z m217-184q0 20 14 38 15 19 29 19 14 0 27-21 12-21 12-40 0-29-38-29-25 0-37 13-7 8-7 20z m91 184q0 49 29 84 30 34 72 34 43 0 72-34 30-35 30-84 0-49-30-83-29-35-72-35-42 0-72 35-29 34-29 83z" horiz-adv-x="1000" />
<glyph glyph-name="tete-mort" unicode="&#xe83e;" d="m11 395q0-113 72-197 72-84 203-123l0-20q0-58 88-66 6 0 12 0 29 0 45 13 28-21 63-21 33 0 60 20 15-12 42-12 5 0 11 0 88 7 88 66l0 15q142 38 218 123 77 86 77 201 0 26-5 54-27 171-155 283-136 119-329 119-196 0-331-119-129-112-155-283-4-28-4-53z m147 36q0 65 39 111 39 46 95 46 56 0 95-46 39-46 39-111 0-65-39-111-39-46-95-46-56 0-95 46-39 46-39 111z m150-549q20-29 164-32l16 0q63 0 113 8 60 8 67 24 0 68-65 73-5 0-10 0-30 0-46-12-26 17-61 17l-2 0q-33 0-61-16-14 11-42 11-5 0-12 0-60-5-61-73z m135 303q0 26 19 52 20 25 37 25 19 0 35-28 17-29 17-55 0-39-50-39-33 0-49 18-9 10-9 27z m119 246q0 65 39 111 39 46 95 46 55 0 95-46 39-46 39-111 0-65-39-111-40-46-95-46-56 0-95 46-39 46-39 111z" horiz-adv-x="1000" />
<glyph glyph-name="tete-croix" unicode="&#xe83f;" d="m1 696q-1-6-1-12 0-64 87-64l1 0q21 0 40 3l84-82q-70-92-70-197 0-110 88-180l-94-88q-27 6-50 6-81 0-81-71l0-5q21-56 62-56 19 0 41 7-9-22-9-40 0-23 16-41 17-17 41-20 7-1 13-1 61 0 61 87 0 21-3 40l119 117 0-7q0-56 64-60 4-1 8-1 22 0 34 11 21-16 47-16 25 0 45 15 11-10 31-10 4 0 9 1 64 6 64 60-1 15 0 17l131-128q-4-19-5-40 0-87 64-87 6 0 13 1 55 21 55 61 0 19-8 41 23-8 40-8 24 0 42 16 17 15 20 41l0 5q0 69-79 69-23 0-52-6l-95 89q91 70 91 180 0 106-71 199l79 77q20-3 40-3 87 0 87 63 0 6-1 13-21 56-62 56-17 0-39-9 7 23 7 41 0 24-16 41-15 18-39 21l-5 0q-69 0-70-80 0-23 7-52l-84-82q-85 52-194 52-109 0-197-53l-88 87q6 28 6 53 0 79-67 79l-7 0q-56-21-56-62 0-19 8-41-22 8-39 9-25 0-43-16-17-16-20-40z m249-326q0 49 30 83 29 34 70 34 41 0 70-34 29-34 29-83 0-48-29-82-29-34-70-34-41 0-70 34-30 34-30 82z m211-182q0 19 14 38 14 20 28 20 14 0 26-21 12-21 12-41 0-28-37-28-24 0-37 12-6 9-6 20z m88 182q0 49 29 83 30 34 70 34 41 0 70-34 29-34 29-83 0-48-29-82-29-34-70-34-40 0-70 34-29 34-29 82z" horiz-adv-x="1000" />
<glyph glyph-name="tete-corne" unicode="&#xe840;" d="m20 644q-1-10-1-20 0-156 146-237-39-77-39-153 0-81 49-145 49-63 138-96 27-143 45-143 15 0 45 58 7-1 12-2 4 0 8 0 23 0 36 11 22-16 49-16 27 0 48 15 13-10 34-10 4 0 8 0 8 1 16 2 30-56 44-56 18 0 45 139 93 32 143 97 50 64 50 146 0 81-45 163 130 81 130 227 0 10-1 20-6 59-29 101-54 102-175 105 78-60 79-149 0-19-4-33-21-75-137-129-91 52-203 52-118 0-212-57-128 54-149 134-5 15-5 33 0 89 80 149-122-3-175-105-23-43-30-101z m222-381q0 50 31 87 31 36 74 36 44 0 75-36 31-37 31-87 0-51-31-88-31-37-75-37-43 0-74 37-31 37-31 88z m224-194q0 20 15 40 15 20 29 20 16 0 28-22 12-22 12-42 0-31-39-31-26 0-37 14-8 8-8 21z m93 194q0 50 31 87 31 36 74 36 45 0 76-36 31-37 31-87 0-51-31-88-31-37-76-37-43 0-74 37-31 37-31 88z" horiz-adv-x="1000" />
<glyph glyph-name="tache" unicode="&#xe841;" d="m0 294q0-26 20-46 19-20 46-20 28 0 47 20 20 20 20 46 0 27-20 47-19 20-47 20-27 0-46-20-20-20-20-47z m166 22q0-15 51-35 51-20 53-32 3-14-29-54-31-40-31-52 0-15 30-15 10 0 35 2 26 3 36 3 31 0 31-22 0-16-13-64-13-48-13-63 0-19 12-19 15 0 71 45 53 43 67 38 13-4 35-55 22-51 38-51 15 0 35 51 20 50 33 54 13 3 68-42 56-46 71-46 9 0 9 15 0 16-15 64-15 48-15 63 0 18 21 18 15 0 58-10 43-10 59-10 22 0 22 12 0 15-41 66-42 51-38 66 3 13 82 35 78 22 78 38 0 14-76 33-79 22-82 34-3 13 29 53 32 40 32 52 0 16-30 16-10 0-36-3-25-2-36-2-29 0-29 21 0 17 14 69 14 52 15 70 6-2 13-2 20 0 35 14 15 15 15 36 0 20-15 35-15 16-35 16-21 0-36-16-14-15-14-35 0-17 9-29-11-8-68-59-45-40-59-37-13 4-35 55-22 52-38 52-15 0-35-51-20-51-32-53-14-4-52 27-41 32-53 32-16 0-16-29 0-11 3-36 2-25 2-35 0-31-20-31-17 0-66 16-49 16-65 16-17 0-17-13 0-16 44-73 44-57 41-70-5-14-56-36-51-21-51-37z m732-259q0-21 14-36 15-16 37-16 21 0 36 16 15 15 15 36 0 21-15 36-15 14-36 14-22 0-37-14-14-15-14-36z" horiz-adv-x="1000" />
<glyph glyph-name="sorciere-chapeau" unicode="&#xe842;" d="m0 420q23 23 263 116 249 97 299 91 24-7 53-35 68-66 145-221l-24-42 24-41-24-34 4-38q117-9 189-28 71-18 71-40 0-31-127-53-127-23-306-23-181 0-308 23-127 22-127 53 0 20 63 38 61 17 165 27l36 116 17 33-58 0-16 42z m505-114l41-40-10-55 50 26 50-27-9 56 40 39-55 9-26 51-25-51z" horiz-adv-x="1000" />
<glyph glyph-name="sorciere-baton" unicode="&#xe843;" d="m132-122q0-12 32-12 16 0 72 6 57 6 91 6 46 0 78-9 61-19 116-19 22 0 64 11 42 10 62 10 6 0 27-4 14-2 27 3 18 9 18 24 0 12-12 34-13 38-46 126 49-18 98-18 17 0 24 5l-24-179 29-5 50 259q30 12 30 43 0 19-14 33-14 14-33 14-19 0-33-14-13-14-13-33 0-25 20-39l-6-42q-27 32-133 75 44 49 44 112 0 18-4 36 151 8 149 43-3 12-19 21-38 21-131 28l-165 430q-10 27-25 27-16 0-27-29-10-20-168-414-134-9-142-49 1-42 144-54-11-24-10-51 0-51 38-108-19-25-27-59-14-68-24-90-12-31-38-49-11-9-70-37-48-22-49-32z m235 377q0 15 10 24 10 10 25 10 13 0 23-10 10-10 10-24 0-14-10-24-10-10-23-10-15 0-25 10-10 10-10 24z m99-66q35-10 75-3-2-27-39-25-38 12-36 28z m109 58q0 14 10 24 10 10 23 10 15 0 24-10 10-10 10-24 0-14-10-24-9-10-24-10-13 0-23 10-10 10-10 24z" horiz-adv-x="1000" />
<glyph glyph-name="serpents" unicode="&#xe844;" d="m0 677q0-117 154-182 38-16 84-30-139-49-130-119 10-81 210-142-56-34-56-75 0-46 45-83 1-1 85-52 47-29 49-57 1-41-30-87 45 14 89 41 21-13 89-41-30 47-30 87 2 27 50 57 84 51 85 52 45 37 44 83 0 41-54 75 198 61 208 142 9 70-130 119 46 15 85 30 152 65 153 182 0 58-46 106-45 47-121 62-27 5-60 5-129 0-181-78l97-64-75-67 108-26q-21-18-222-76l-17 5q-130 38-140 42-48 15-65 29l109 26-76 67 97 64q-52 78-181 78-32 0-60-5-76-15-122-62-45-48-45-106z m154 57q0 16 12 28 11 11 28 11 16 0 27-11 11-12 11-28 0-16-11-27-11-11-27-11-17 0-28 11-12 12-12 27z m179-384q-1 24 167 55 167-31 166-55 0-20-51-40-26-11-115-37-89 26-116 37-50 20-51 40z m106-236q1 17 61 37 61-20 61-37 2-29-61-71-63 42-61 71z m330 620q0 16 11 28 11 11 27 11 16 0 27-11 12-12 12-28 0-16-12-27-11-11-27-11-16 0-27 11-11 12-11 27z" horiz-adv-x="1000" />
<glyph glyph-name="serpentin" unicode="&#xe845;" d="m0 384q0-133 71-230 99-136 290-155 26-2 51-2 141 0 236 73 85 66 107 165 10 44 10 87 0 97-44 168-49 76-137 94-29 7-58 7-48 0-89-18-22 6-44 6-70 0-119-61-45-58-45-130 0-83 65-125 37-25 81-25 63 0 121 47 53 44 59 89 5 30 1 58 21-5 34-26 20-32 20-85 0-26-5-51-12-49-60-82-52-37-135-37-17 0-35 2-120 12-178 91-42 58-42 141 0 38 9 81 27 124 143 178 80 38 190 38 24 0 46-3 151-12 238-121 66-82 66-201 0-34-6-69-27-188-134-275-80-65-239-88-19-18-19-32 0-17 28-25 16-3 47-3 143 0 262 70 177 104 208 331 6 46 6 90 0 176-98 299-72 88-180 136-103 44-223 44-173 0-298-74-150-89-188-263-13-60-13-114z m294 98q0 32 31 32 31 0 32-32-1-33-32-33-31 0-31 33z m143-100q0 33 32 33 31 0 31-33 0-32-31-32-31 0-32 32z" horiz-adv-x="1000" />
<glyph glyph-name="serpent" unicode="&#xe846;" d="m35 177q4 34 14 34 7 0 17-25 34-174 84-174 30 0 59 73 36 92 102 92 54 0 107-62 23-25 57-47 39-26 61-26 23 0 23 28 0 50-72 177-137 241-137 377 0 178 236 222 25 4 59 4 216 0 321-166l-249-94 179-108q-34-17-71-31-90-33-178-47 154-109 166-319 0-121-81-183-66-52-167-52-41 0-78 10-45 10-109 57-57 40-83 40-34 0-70-45-27-37-54-37-55 0-102 142-38 120-34 160z m504 518q0-21 15-35 15-15 35-15 21 0 36 15 15 14 15 35 0 20-15 35-15 15-36 15-20 0-35-15-15-15-15-35z" horiz-adv-x="1000" />
<glyph glyph-name="sac-dollar" unicode="&#xe847;" d="m83 182q0-332 408-332 426 0 426 326 0 142-75 259-76 117-208 183l154 159q-25 46-77 48-20-1-50-23-29-21-56-20-25 0-63 34-37 34-62 34-26 0-68-34-41-34-63-34-21 0-49 22-27 23-60 23-18-3-31-8-32-15-40-49l150-163q-236-139-236-425z m246-67l57 35q32-55 80-71l0 117q-125 38-121 127 5 95 121 104l0 43 67 0 0-46q60-10 96-56 18-23 26-47l-64-16q-11 38-58 51l0-109q131-36 123-124-7-101-123-115l0-27-67 0 0 28q-84 16-137 106z m83 204q-3-32 54-53l0 95q-53-5-54-42z m121-244q54 10 58 53 2 31-58 49l0-102z" horiz-adv-x="1000" />
<glyph glyph-name="potion-mort" unicode="&#xe848;" d="m143 185q0-156 104-248 99-87 253-87 154 0 252 87 105 92 105 248 0 128-67 237-67 108-173 162l0 36q75 25 75 65 0 49-101 73l0 34q0 24-17 41-17 17-41 17l-63 0q-24 0-40-17-17-17-17-41l0-34q-105-23-105-73 0-40 75-65l0-36q-107-54-173-163-67-108-67-236z m138-9q0 86 65 145 63 55 148 55 87 0 151-57 65-57 65-143 0-108-129-140l0-8q0-16-12-29-11-13-27-14-16-1-24 6-12-9-26-9-15 0-28 10-7-8-24-7-16 1-27 14-11 13-11 29l0 9q-121 36-121 139z m64 17q0-28 18-49 17-20 41-20 24 0 41 20 18 21 18 49 0 28-18 48-17 21-41 21-24 0-41-21-18-20-18-48z m124-107q0-20 27-20 20 0 20 16 0 13-6 25-7 12-16 12-7 0-16-11-9-11-9-22z m53 107q0-28 17-49 18-20 42-20 24 0 41 20 18 21 18 49 0 28-18 48-17 21-41 21-24 0-42-21-17-20-17-48z" horiz-adv-x="1000" />
</font>
</defs>
</svg>
