<svg xmlns="http://www.w3.org/2000/svg"><defs><font id="fontsjjb" horiz-adv-x="1000"><font-face font-family="fontsjjb" font-weight="400" ascent="850" descent="-150"/><glyph glyph-name="accommodation-motel" unicode="" d="M329 779c-42 0-82-32-82-76 0-45 40-77 82-77 43 0 82 32 82 77 0 44-39 76-82 76zm-153-44" horiz-adv-x="1000"/><glyph glyph-name="accommodation-shelter2" unicode="" d="M638 810" horiz-adv-x="1000"/><glyph glyph-name="accommodation-shelter" unicode="" d="M907 747" horiz-adv-x="1000"/><glyph glyph-name="accommodation-youth_hostel" unicode="" d="M642 745" horiz-adv-x="1000"/><glyph glyph-name="accommodation-alpinehut" unicode="" d="M497 807" horiz-adv-x="1000"/><glyph glyph-name="accommodation-bed_and_breakfast" unicode="" d="M499 810" horiz-adv-x="1000"/><glyph glyph-name="accommodation-bed_and_breakfast2" unicode="" d="M36 488h172c29 0 51-7 66-21 16-14 23-32 23-53 0-18-5-33-16-45-7-9-18-15-32-20 21-5 37-14 47-27 10-12 15-28 15-47 0-15-3-29-11-42-7-12-17-22-29-29-8-4-19-8-35-10-21-2-34-4-41-4H36v298zm93-117h40c14 0 24 3 30 8 5 5 8 12 8 21s-3 16-8 20c-6 5-16 8-30 8h-40v-57zm0-117h47c16 0 27 3 33 9 7 5 10 13 10 22s-3 16-10 22c-6 5-17 8-34 8h-46v-61zm451 81 65-14c-4-12-7-22-10-29s-8-16-13-25l31-22c3-2 8-5 14-8l-44-52c-8 5-17 10-25 15-9 6-17 11-24 15-14-9-29-16-43-21-20-6-43-9-68-9-40 0-69 9-88 25-20 17-30 37-30 60 0 17 6 33 18 48 11 15 30 28 55 39-10 13-18 24-22 34s-6 19-6 29c0 22 8 39 24 53 16 13 41 20 73 20 34 0 59-6 74-19 16-13 24-29 24-47 0-10-3-20-7-29-5-10-11-17-18-23s-19-15-36-26c14-15 29-28 45-40 4 8 8 17 11 26zm-95 52c11 6 19 12 25 19 5 7 8 14 8 20s-2 11-7 16c-5 4-12 7-20 7s-15-3-21-8c-5-5-7-10-7-17 0-8 7-21 22-37zm-30-72c-11-8-19-15-22-21-4-5-6-11-6-18 0-9 4-18 13-26 8-8 20-12 33-12 15 0 32 6 50 18-18 13-40 33-68 59zm242 173h172c29 0 51-7 67-21 15-14 23-32 23-53 0-18-6-33-17-45-7-9-18-15-32-20 21-5 37-14 47-27 10-12 15-28 15-47 0-15-3-29-10-42-8-12-17-22-30-29-8-4-19-8-35-10-20-2-34-4-41-4H697v298zm93-117h40c14 0 24 3 30 8s8 12 8 21-2 16-8 20c-6 5-15 8-29 8h-41v-57zm0-117h47c16 0 27 3 33 9 7 5 10 13 10 22s-3 16-9 22c-7 5-18 8-34 8h-47v-61z" horiz-adv-x="1000"/><glyph glyph-name="accommodation-camping" unicode="" d="m451 751-40-21 62-118h-1c-2-5-6-13-10-22-10-18-23-43-39-74-31-60-73-139-115-217C224 142 140-14 140-14l-18-33h203l349 1 1-1 158 1h39l-19 33-328 622 61 116-40 22-46-89-49 93zm49-394C538 231 616 68 651-1L349-2c34 70 113 232 151 359z" horiz-adv-x="1000"/><glyph glyph-name="accommodation-caravan_park" unicode="" d="M754 418c0-19-9-29-28-29H626c-19 0-29 10-29 29v48c0 19 10 28 29 28h100c19 0 28-9 28-28v-48zm-285-1c0-19-10-28-30-28H222c-18 0-28 9-28 28v49c0 19 10 28 28 28h217c20 0 30-9 30-28v-49zm444-228h-73v254c0 39-13 72-41 99-27 27-60 40-99 40H226c-39 0-72-13-99-40s-40-60-40-99V263c0-28 10-52 30-73 20-20 45-30 73-30h163c2 29 14 54 35 74 20 20 46 30 75 30 30 0 55-10 76-30s33-45 34-73h369c0 19-10 28-29 28zm-450-70c-9 0-17 3-24 10-7 6-10 15-10 24 0 10 3 18 10 25 7 6 15 9 24 9 10 0 18-3 25-9 7-7 10-15 10-25 0-9-3-18-10-24-7-7-15-10-25-10zm0 114c-22 0-41-8-56-23-16-16-24-35-24-57s8-40 24-56c15-15 34-23 56-23s41 8 56 23c16 16 23 34 23 56s-7 41-23 57c-15 15-34 23-56 23z" horiz-adv-x="1000"/><glyph glyph-name="accommodation-chalet" unicode="" d="M318 736 38 494h56V131h168v184h116V163c-32-52-64-103-96-154l-14-22h26c211-2 423-3 635-5h23L942 2c-80 170-160 339-240 509l-13 27-13-27-10-22c-36-75-71-151-107-226-6 8-11 15-17 23v208h56L318 736zm371-437c4 0 9-3 11-6 13-16 25-29 30-31 3-1 2-1 5 1 2 1 7 7 13 18 2 4 7 8 13 7 5 0 10-3 12-8L889 36c4-8-4-20-13-20l-521 5c-5 0-10 2-13 7-2 4-2 10 1 14l55 89h144v84c5 0 11-2 14-6l9-12 37 78c2 5 7 8 13 9 5 0 10-3 13-8 3-6 7-10 10-12 2-1 4-2 7-1 7 1 19 10 33 29 2 4 7 6 11 7z" horiz-adv-x="1000"/><glyph glyph-name="accommodation-chalet2" unicode="" d="M321 786 41 544h56V181h168v185h116V181h164v363h56L321 786zm388-454L473-76l472-1-236 409z" horiz-adv-x="1000"/><glyph glyph-name="accommodation-hostel" unicode="" d="M82 807" horiz-adv-x="1000"/><glyph glyph-name="accommodation-hotel" unicode="" d="M293 428c-52 0-99-39-99-93s47-93 99-93c51 0 99 39 99 93s-48 93-99 93zM79 369 74-35l58-1 1 122 735-5-2-100 58-1 5 264-58 1-2-106-735 5 3 224-58 1zm365-73c-38 0-69-32-69-70s31-69 69-69h337c38 0 69 31 69 69s-31 70-69 70H444zm-260-61c-19 0-35-17-35-36s16-35 35-35h145c19 0 36 16 36 35s-17 36-36 36H184z" horiz-adv-x="1000"/><glyph glyph-name="accommodation-hotel2" unicode="" d="M279 607c-55 0-106-42-106-99 0-58 51-99 106-99s106 41 106 99c0 57-51 99-106 99zM82 549" horiz-adv-x="1000"/><glyph glyph-name="amenity-police2" unicode="" d="M498 821c-2 0-3 0-5-1" horiz-adv-x="1000"/><glyph glyph-name="amenity-post_box" unicode="" d="m218 525 172-173-172-172v345zm535 32L541 346c-10-11-24-16-40-16s-30 6-41 17L249 557h504zm33-377L614 352l172 173V180zm-538-33 173 172 8-7c20-20 44-29 72-29s52 9 72 29l7 7 173-172H248zm-77-46h664v504H171V101z" horiz-adv-x="1000"/><glyph glyph-name="amenity-post_office" unicode="" d="M502 837C231 837 11 617 11 346s220-492 491-492c272 0 492 221 492 492S774 837 502 837zm0-41c249 0 451-201 451-450S751-105 502-105 52 97 52 346s201 450 450 450zM182 596V109h641v487H182zm76-46h487L540 346c-10-10-23-15-39-15s-29 5-40 16L258 550zm-31-31 167-167-167-166v333zm550 0V186L610 352l167 167zM424 321l7-8c20-18 43-28 70-28 28 0 51 10 69 28l8 8 167-167H257l167 167z" horiz-adv-x="1000"/><glyph glyph-name="amenity-prison" unicode="" d="M93 811c-7 0-12-6-11-13v-14c0-4-1-9 1-15-1-1-1-2-1-4V-88c-1-6-2-14 4-21 2-3 5-5 9-5h816c7 0 12 6 11 13v14c1 4 1 8 0 13v859c1 6 2 13-4 21-2 3-5 5-9 5zm41-52h210V443c13 6 28 10 43 10h10v97c6-19 16-36 31-50 26-25 55-37 89-37h8c34 0 64 12 89 37 12 12 22 25 28 40v-87c19-1 37-7 52-17v323h176V-62H694v59l-52-44v500h-1c-6 1-12 2-19 2H421c-8 0-15-1-21-2h-3V-47c-6 1-48 37-53 39v-54H134zM344-8v91c0 5 4 10 10 11 12 3 18 14 20 28v15c0 1-1 3-1 4-1 6-4 12-7 17-4 4-8 7-12 7-6 1-10 6-10 12v266c-38-18-63-56-62-101l2-252c0-39 21-75 54-95l6-3zm350 5c33 20 53 56 52 95l-2 252c0 30-12 58-33 78-5 5-11 10-17 14V176c0-5-3-10-9-11s-10-4-13-9c-4-6-6-13-7-20v-13c0-6 3-14 6-19 4-6 9-9 14-10s9-6 9-11zM397 759h245V640c-6 15-16 28-28 40-25 24-55 37-89 37h-8c-34 0-63-13-89-37-15-15-25-31-31-50zm0-806h245v-15H397z" horiz-adv-x="1000"/><glyph glyph-name="amenity-public_building" unicode="" d="M495 809" horiz-adv-x="1000"/><glyph glyph-name="amenity-public_building2" unicode="" d="M498 824" horiz-adv-x="1000"/><glyph glyph-name="amenity-recycling" unicode="" d="M371 241 264 428H48l88-51-54-93c-5-9-7-18-7-27s2-18 7-26l85-149c4 10 8 20 12 27l106 183 86-51zM211 91c-6-10-9-21-9-32 0-18 6-33 19-45 12-13 28-19 45-19h213v172H255c-2-3-8-13-18-30l-26-46zm287 426h215l108 187-87-51-55 93c-10 18-25 27-46 27H462c7-8 13-16 18-23l105-183-18-10-69-40zM393 764c-24 0-43-11-55-33L231 547c40-24 90-53 148-86 35 60 72 124 112 194l-42 76c-13 22-31 33-56 33zm276-595v101L562 83l107-186V-3h107c21 0 37 9 48 27l85 149c-12-3-21-5-29-5l-211 1zm159 317c-4-3-53-31-149-86 48-82 86-147 113-195h87c25 0 44 11 56 32s12 42-1 64L828 486z" horiz-adv-x="1000"/><glyph glyph-name="amenity-survey_point" unicode="" d="M384 707" horiz-adv-x="1000"/><glyph glyph-name="amenity-telephone" unicode="" d="M700 768c-79 0-215-47-376-272C88 167 181-2 219-27l153 220c-30 21-13 59 28 132 27 49 65 106 110 158 31 36 65 70 97 47l157 225c-11 6-33 13-64 13zm81-25L624 519l62-44h1c14-10 32-5 41 8l123 176c9 13 6 32-8 41l-62 43zM389 181 236-39l62-43c14-10 32-6 41 7 0 0 120 171 120 172 9 13 6 31-8 41l-62 43z" horiz-adv-x="1000"/><glyph glyph-name="amenity-toilets" unicode="" d="M487-34h62v779h-62V-34zM302 602H177c-19 0-37-7-52-21-12-10-20-22-24-36L48 367c-2-4-3-7-3-10 0-18 9-27 27-27 13 0 21 7 25 21l49 163h26L92 224h78V-2c0-20 10-30 29-30 20 0 29 10 29 30v227h29V-3c0-20 10-29 30-29 19 0 29 9 29 29v227h78l-82 290h28l49-163c4-14 12-21 25-21 17 0 26 9 26 27 0 4 0 7-2 10l-54 178c-3 13-12 25-26 36-17 14-36 21-56 21zm-60 13c18 0 33 7 46 19 12 12 18 27 18 44 0 18-6 33-18 46-13 12-28 18-46 18-17 0-32-6-44-18-12-13-19-28-19-46 0-17 7-32 19-44s27-19 44-19zm545 1c17 0 32 7 44 19 13 13 19 27 19 44 0 18-6 33-19 45-12 12-27 18-44 18s-32-6-44-18c-13-12-19-27-19-45 0-17 6-31 19-44 12-12 27-19 44-19zm83-12H703c-22 0-41-8-57-24s-24-36-24-59V328c0-19 8-28 25-28s25 9 25 28v188h30V4c0-24 12-35 35-35s35 11 35 35v297h30V4c0-24 12-35 35-35 24 0 36 11 36 35v512h29V328c0-20 9-30 25-30s24 10 24 30v192c0 22-7 42-22 59-15 16-35 25-59 25z" horiz-adv-x="1000"/><glyph glyph-name="amenity-toilets_disabled" unicode="" d="M857 803c-35 0-62-9-81-29-20-19-29-47-29-83 0-27 5-49 16-66s24-30 39-36c15-7 34-11 58-11 20 0 36 3 48 9 13 5 23 14 32 25 8 11 15 25 19 41l-59 18c-3-14-8-24-15-31-6-8-16-11-29-11s-23 4-31 13c-7 9-11 26-11 50 0 19 3 34 10 43 8 12 19 18 35 18 6 0 12-1 18-4 5-3 10-7 14-12 2-3 4-8 6-14l60 13c-8 23-20 40-35 51-16 11-38 16-65 16zm-429-3 49-218h66l38 137 38-137h66l48 218h-64l-23-122-34 122h-63l-34-122-23 122h-64zm-100-88c-7 0-15-2-22-5-48-13-66-76-32-111l3-348c56 0 247 6 283-2C597 173 685-6 695-22c39 13 100 42 139 56 2-2 2 54-16 53-17-1-49-25-92-30-41 81-81 164-122 245H344c0 3-11 29 3 61h190v60c-64 1-129-2-194 3-3 45-2 92-1 137 16 22 64 32 62 71 6 42-34 79-76 78zM213 418C126 376 60 290 55 195 45 111 83 26 148-29c46-39 105-64 191-73 94-6 188 38 247 110 35 23 0 76-16 88-38-60-96-114-169-132C304-62 194-8 151 79c-41 76-26 178 38 238 9 12 34 18 31 36-3 21 6 53-7 65z" horiz-adv-x="1000"/><glyph glyph-name="amenity-toilets_men" unicode="" d="M260 646c19 0 36 7 50 21s21 31 21 50c0 21-7 37-21 51s-31 20-50 20-36-6-50-20-21-30-21-51c0-19 7-36 21-50s31-21 50-21zm94-14H165c-25 0-47-9-65-27s-27-40-27-67V320c0-21 10-32 29-32 18 0 28 11 28 32v213h34V-47c0-26 13-39 39-39 27 0 40 13 40 39v336h34V-47c0-26 13-39 40-39s40 13 40 39v580h33V320c0-22 10-33 28-33s28 11 28 33v217c0 25-9 48-26 66-17 19-39 29-66 29zm66-497h63l23-122 34 122h64l33-122 23 122h64L676-83h-66L572 54 534-83h-66l-48 218zM891 6l59-18c-4-16-10-30-19-41-8-11-19-20-32-25-12-6-28-9-48-9-23 0-43 4-58 11-15 6-28 18-39 36-10 17-16 39-16 66 0 36 10 64 29 83 19 20 46 29 81 29 28 0 49-5 65-16s27-28 35-51l-60-13c-2 6-4 11-6 14-4 5-8 9-14 12-5 3-11 4-18 4-15 0-27-6-35-18-6-9-9-24-9-43 0-24 3-41 11-50 7-9 17-13 30-13s23 3 30 10c6 8 11 18 14 32z" horiz-adv-x="1000"/><glyph glyph-name="amenity-toilets_women" unicode="" d="M268 803c-20 0-37-7-52-22-14-14-22-32-22-53 0-20 8-37 22-52 15-15 32-22 52-22 21 0 39 7 53 22 15 15 22 32 22 52 0 21-7 39-22 53-14 15-32 22-53 22zm-76-164c-23 0-44-8-62-24-13-13-23-27-27-43L40 363c-2-4-3-8-3-12 0-21 11-32 32-32 14 0 24 9 28 25l58 191h31L92 195h91V-70c0-24 12-35 35-35 22 0 34 11 34 35v267h34V-71c0-23 11-34 34-34s34 11 34 34v266h92l-96 340h33l57-191c5-16 14-25 29-25 21 0 31 11 31 32 0 4-1 9-2 12l-63 209c-5 15-15 29-32 43-20 16-41 24-65 24H192zm660-506c-35 0-62-10-81-29-20-19-29-47-29-83 0-27 5-49 16-67 11-17 24-29 39-36s34-10 58-10c20 0 36 2 48 8 13 6 23 14 32 25 8 11 15 25 19 42L895 0c-3-13-8-24-15-31-6-7-16-11-29-11s-23 5-31 13c-7 9-11 26-11 50 0 20 3 34 10 43 8 12 19 19 35 19 6 0 12-2 18-5 5-2 10-6 14-11 2-4 4-8 6-15l60 13c-8 23-20 40-35 51-16 11-38 17-65 17zm-429-4 49-218h66l38 138 38-138h66l48 218h-64L641 8l-34 121h-63L510 8l-23 121h-64z" horiz-adv-x="1000"/><glyph glyph-name="amenity-town_hall" unicode="" d="M494 809" horiz-adv-x="1000"/><glyph glyph-name="amenity-town_hall2" unicode="" d="M361 572c-17 0-31-6-44-18-12-12-19-27-19-45 0-17 7-32 19-44 13-12 27-18 44-18h4c16 0 31 6 43 18 13 12 19 27 19 44 0 18-6 33-19 45-12 12-27 18-43 18h-4zm269 0c-17 0-32-6-44-18-13-12-19-27-19-45 0-17 6-32 19-44 12-12 27-18 44-18h3c17 0 32 6 44 18s19 27 19 44c0 18-7 33-19 45s-27 18-44 18h-3zM314 436c-3 0-7-1-10-2-2 1-4 1-6 1" horiz-adv-x="1000"/><glyph glyph-name="amenity-waste_bin" unicode="" d="M646 774c-39 0-71-32-71-71 0-38 32-70 71-70s70 32 70 70c0 39-31 71-70 71zm-51-161c-30 0-51-12-69-37l-64-93H352c-44 0-41-62-1-62h127c10 0 22 3 29 14l48 69 1-538c0-54 79-53 79 1v313h15V-33c0-54 80-55 80-1v540h14V313c0-46 63-46 63-1v211c0 57-42 90-87 90zM304 397l-37-38 37-37 38 37zm35-71-37-38 37-37 38 37zm97-44L378-24h-87l-58 306h-50l66-356h171l66 356zm-139-57v-51h52v51z" horiz-adv-x="1000"/><glyph glyph-name="amenity-bench" unicode="" d="M109 468v-69h120V220h51v179h461V220h52v179h120v69H109z" horiz-adv-x="1000"/><glyph glyph-name="amenity-court" unicode="" d="M501 762" horiz-adv-x="1000"/><glyph glyph-name="amenity-firestation" unicode="" d="M474 823c-64-260 53-258 118-411 46 236-91 183-118 411zm-64-171c-41-148 15-219 12-328-57 101-113 189-167 226 44-89-14-197-34-284-28-124 11-207 74-243-1 61 19 114 30 127C341 40 359-27 445-92c9 138 52 102 68 274 63-105 51-209 20-314 55 50 117 91 194 314L711 15c49 120 189 239-56 574 24-194-26-220-50-298-56 166-168 178-195 361z" horiz-adv-x="1000"/><glyph glyph-name="amenity-firestation2" unicode="" d="M500 817c-24 0-51-7-71-18-2-2-8-5-11-7-3-1-12-7-20-11-20-12-38-21-52-26-28-9-52-13-83-12-25 0-37-1-46-6-7-3-11-7-14-12-2-5-2-6-2-12 0-7 0-12 2-16 2-2 6-8 13-16 2-2 6-7 8-10 3-3 7-8 11-12s8-9 9-11c3-3 15-17 21-23 2-2 7-8 12-13 0-1 1-2 2-2-10-9-19-17-27-26-28 28-56 57-86 83-3 1-6 1-9 1-6 0-13-1-18-2-11-5-15-18-17-52-1-29-1-30-6-49-5-17-10-29-20-49-7-15-15-30-25-43 0-1-5-11-6-13-2-2-16-28-19-36-8-20-13-38-14-59-2-19 1-35 9-60 3-10 11-26 26-55 21-41 26-52 32-72 9-26 11-38 10-70 0-13 0-23 1-26 3-18 12-29 28-30 4-1 5 0 9 2 6 2 10 5 22 14 9 6 14 10 26 21 3 2 7 5 9 6 2 2 5 5 8 7 3 3 8 8 12 11 6 5 10 9 14 12 8-9 17-18 26-26-16-17-32-33-43-44-33-33-36-37-38-47-1-9 0-17 6-23 7-9 19-13 40-14 33-1 38-2 58-7 25-7 52-21 87-42 3-2 7-4 9-5s7-4 11-7c29-17 52-25 80-27 5 0 9-1 9-1 1-1 25 0 31 1 20 3 36 8 52 16 3 1 11 5 18 8 6 3 17 8 24 12 15 7 32 15 35 16 1 1 4 2 7 3 17 7 32 12 52 16 16 3 15 3 38 3 19 0 20 0 28 1 9 2 19 5 22 7 4 2 6 6 7 12 1 2 1 7 1 11 1 6 1 8 0 10s-13 17-22 26c-5 6-18 20-36 41-5 5-12 13-18 19 11 9 21 18 30 28l6-6c3-3 10-10 17-16l19-19c4-4 15-14 24-22 19-18 17-17 29-17 6 1 7 1 11 3 3 1 5 3 7 5 8 8 11 19 12 43 2 28 2 29 4 39 7 28 17 54 37 87 11 19 17 29 20 34 5 7 12 21 14 27 7 17 8 19 11 29 7 30 6 57-2 86-6 18-11 29-34 77-15 30-14 29-20 45-8 20-12 35-15 51-1 6-1 11-2 32 0 22 0 24-2 31-3 13-5 18-9 22-4 3-7 5-17 5-4 1-6 1-9 1s-6-1-8-2c-1-1-8-7-15-13-6-7-14-13-16-15s-9-8-15-14c-22-20-30-28-37-33v-1c-9 10-18 19-27 28 5 6 10 10 16 17 39 38 60 60 62 62 3 6 3 7 3 17 0 7 0 10-1 13-1 4-5 9-10 11-11 6-22 8-44 9-27 2-32 2-44 5-18 3-35 9-55 18-7 4-10 5-32 19-8 4-17 10-21 12-3 2-10 6-14 8-19 12-45 22-63 25-8 1-20 2-32 2zm4-34c6 0 12 0 17-1 20-4 46-14 65-25 4-3 9-6 11-7s9-5 16-8c7-4 13-8 15-9s7-4 12-6c19-11 38-20 56-25 13-4 20-5 38-6 29-1 42-2 43-3 0-1-7-8-15-16l-55-55c-56 42-124 67-198 69 1-8 2-16 4-23 1-6 2-12 4-17 161-9 288-141 288-304 0-107-55-201-139-255v-1c-1-1-3-2-4-2h-1c-16-10-33-19-51-26-14-19-31-38-49-55 49 9 95 28 134 56 4-4 10-11 15-17 7-7 15-16 18-19s7-7 9-10c2-2 6-7 8-9 7-7 14-16 13-16 0-2-6-2-28-2-24 0-24 0-35-2-17-3-36-8-51-15-3-1-22-10-41-20-48-23-46-22-66-29-12-4-21-6-30-8-6-1-12-1-19-1-12 0-12 0-22 2-12 2-38 11-52 19-6 3-25 14-26 15s-36 21-44 25c-12 7-30 15-44 19-15 5-23 6-60 8-8 1-15 1-16 1 0 1 0 1 1 3 3 3 20 21 44 45 4 5 13 14 21 23 48-38 106-62 169-70-22 15-43 33-60 54-118 42-202 155-202 287 0 148 106 272 246 299 2 14 4 28 7 41-53-7-101-27-144-56-4 5-10 11-12 14-12 13-20 23-24 27-1 2-5 6-8 9-3 4-6 8-8 9-1 2-3 4-4 5s-3 4-6 7c-3 4-3 5-3 5 1 1 9 2 43 2s37 1 59 8c13 5 23 9 39 18 13 7 29 15 35 19 17 9 35 18 43 21 8 2 20 5 27 7 4 1 11 1 17 1zm-24-74c-46-189 39-188 86-299 33 172-66 133-86 299zm-322-83c1 1 15-13 59-57 4-5 8-8 12-12-45-58-72-131-72-210 0-71 22-138 60-193-1-1-2-2-3-2-10-9-21-19-30-26-6-5-8-7-22-18-3-3-8-7-11-10-3-2-6-5-6-5-1 0-1 6-1 30 0 18-1 28-1 31-2 13-7 30-14 44-3 8-12 27-27 55-19 36-24 47-30 64-9 30-9 49 0 77 6 19 14 36 31 64 24 42 31 54 40 78 10 25 11 28 13 80 1 9 1 10 2 10zm698-19s1-10 1-28c0-35 0-36 8-59 5-17 7-23 30-69 20-39 22-44 29-65 9-25 12-45 9-64-2-12-3-15-7-25-8-20-13-29-34-64-6-11-13-22-15-26-1-3-4-7-5-9-6-11-19-38-21-47-3-11-5-22-6-35 0-20-1-37-2-39 0-1-1-2-1-2-2 0-2 0-30 27-7 7-24 23-38 36 44 58 71 131 71 209 0 73-23 140-61 196 2 2 4 4 6 5 3 3 10 9 14 14 5 4 11 9 14 12 2 2 9 8 13 12 18 16 23 21 25 21zm-422-23c-30-107 11-158 8-237-41 73-81 137-120 164 32-65-10-143-25-206-20-90 8-151 53-176 0 44 14 82 23 92 11-80 24-128 87-176 6 100 37 74 49 199 45-76 36-152 14-227 40 36 85 65 141 227l-12-121c36 87 137 173-41 416 18-141-18-160-36-216-41 120-121 129-141 261zm52-541c-2-13-2-26-1-39 3 0 6-1 9-1 4 14 8 27 11 40h-19z" horiz-adv-x="1000"/><glyph glyph-name="amenity-firestation3" unicode="" d="M501 815h-5c-46 0-82-28-117-47-39-21-84-30-129-27" horiz-adv-x="1000"/><glyph glyph-name="amenity-fountain" unicode="" d="m502 772-9-3-6-6-1-8v-66l2-8 6-6 8-3 9 3 6 6 2 8v66l-3 8-6 7-8 2zm0-100-9-2-6-6-1-8v-66l2-9 6-6 8-2 9 3 6 6 2 8v66l-3 8-6 6-8 2zm-207-1h-8l-2-1h-2l-1-1h-2l-1-1h-2v-1l-3-1-2-1h-1l-2-1-1-1-2-1v-1l-2-1h-1l-2-2-1-1-4-7v-7l4-6 7-3 7 2 2 1h1l2 2 1 1h1l1 1 2 1 1 1h1l1 1h2v1h5v1h4l1-1h4l2-1 3-1v-1h2l7-2 7 3 4 7v7l-4 6-2 2-2 1h-1l-4 2h-1l-3 1-1 1h-4l-1 1h-10zm408 0h-9l-1-1h-4l-1-1-3-1h-1l-3-2h-1l-3-1-5-6-1-7 2-7 7-4h7l2 1h2l3 2 2 1h5l1 1h3v-1h5l1-1h1l1-1h1l1-1 2-1 2-1 1-1 2-1v-1h1l7-3 7 1 6 6 1 7-3 7-1 2-1 1h-1l-2 2-3 1v1l-2 1-1 1-2 1-3 1-2 1-1 1h-2l-1 1h-2v1h-3l-2 1h-9zm-40-22-7-2-2-2-2-2v-1l-3-3-1-2-1-1v-1l-5-7-4-7-4-8h-1l-4-8-3-7-2-7 3-7 6-4h8l6 4 1 2 4 7 4 7v1l4 7 4 7 5 6v1l1 2 2 2v1l2 1 3 7-2 8-5 5-7 1zm-324 0h-8l-6-4-2-8 1-7 2-2 1-1v-1l2-2 1-2 1-1 4-6 4-7 4-7v-1l4-7 4-7 5-5 8-1 6 2 5 7v7l-1 2-4 7-4 8-5 8-4 7-5 7v2l-2 2-3 3v1l-2 2-6 4zm-90-9-7-3-2-2-2-3v-1l-5-7-5-8-4-8-5-8v-1l-4-8-1-3-1-7 3-7 6-4h8l6 5 1 2 1 3 4 8 4 7 1 1 4 7 4 7 4 7 2 3 3 7-2 7-6 5-7 1zm496 0-6-4-3-6 1-8 1-2 2-3 4-7 4-7h1l4-7v-1l4-7 4-8 1-3 5-5 7-2 8 2 4 6v8l-1 2-1 3-4 8v1l-4 8h-1l-4 8-5 8-4 7-1 1-2 3-6 5h-8zm-372-58-7-2-4-7-1-7 1-2 1-2v-1l4-8 4-8 3-9 4-8 3-9 1-2 5-6 7-2 7 2 5 6 1 7-1 3-1 2-3 9-4 8v1l-4 8-4 9-3 8-1 1-1 2-5 5-7 2zm256 0-8-1-6-4-1-2-1-2v-1l-4-8-4-9-4-8v-1l-4-8-3-9-1-2-1-8 4-7 7-3 7 1 6 5 1 2 1 2 3 9 4 8 4 9 3 8 4 8v1l1 2 1 7-3 7-6 4zm-127-9-9-2-6-7-1-7v-66l2-9 6-6 8-2 9 3 6 6 2 8v66l-3 8-6 6-8 2zm282-1-7-2-5-6v-10l4-8 3-9 3-9 3-8 3-9 2-5 4-6 8-2 7 1 5 6 1 7v3l-2 4v1l-3 8-3 9-4 9-3 9v1l-4 8-5 6-7 2zm-567 0-7-1-6-5-1-2-3-8v-1l-4-9-3-9-4-9-3-8v-1l-1-4-1-8 4-6 7-3 8 1 5 5 1 2 2 5 3 9 3 8 3 9 4 9 3 8 1 8-4 6-7 4zm187-61-7-2-5-6-1-8v-2l1-1 6-18 7-18 3-11 4-6 7-3 8 1 5 6 1 7v3l-4 11-6 18v1l-7 18v1l-5 6-7 3zm194-1-8-1-5-5-1-2-1-1-6-18v-1l-7-18-3-11-1-8 5-6 6-3 8 1 5 6 1 2 4 10v1l6 18 6 18h1v9l-4 6-6 3zm-408-11-7-2-5-5-1-2-4-12v-1l-4-14v-1l-4-13-3-10 1-7 4-6 7-3 8 2 5 6 1 2 2 9 4 13v1l4 14 3 12v8l-4 6-7 3zm621 0-7-2-5-5-2-8 1-2 3-12h1l4-14v-1l3-13 3-9 4-7 7-3 7 2 5 5 2 7v2l-3 10-3 13v1l-5 14v1l-3 12-5 6-7 3zm-309-25-9-2-6-7-1-7v-67l2-8 6-6 8-2 9 2 6 7 2 7v67l-3 8-6 6-8 2zm-73-37-7-2-5-5-2-7 1-3v-2l6-18 5-19 3-10 4-6 7-4 7 2 6 5 1 7v3l-3 10-5 19-6 19-1 2-4 6-7 3zm143 0-7-2-5-5-1-2-1-2-5-19-6-19-3-10 1-8 4-6 7-3 8 2 5 6v2l3 10 5 19 6 18 1 2v8l-5 6-7 3zm-225-22h-4l-2-1h-4l-1-1-3-1h-1l-3-1v-1l-3-1-1-1-3-1-4-6-1-7 4-6 7-2 6 1h1l2 2 2 1 2 1h2l2 1h5l1-1h3l1-1h1l2-1h1v-1h1l2-2 2-1 6-3 7 2 5 5v7l-3 6-1 1-1 1-1 1-3 2h-1l-1 1-1 1-2 1-2 1h-1l-2 1-3 1-3 1h-4l-2 1h-4zm300 0h-3l-3-1h-4l-2-1h-1l-2-1h-1l-2-1-2-1h-1l-2-1v-1l-2-1-3-2-1-1-2-1-4-6 1-7 4-6 7-2 7 3 2 1 1 2h2v1h1l1 1h2l1 1h2l2 1h5l2-1h1l3-1 2-1 2-2 7-1 6 2 4 6v7l-4 5-1 1-2 1-1 1-3 1-1 1-3 1h-1l-2 1-1 1h-4l-2 1h-5zm-338-23-5-4h-1l-2-3-3-4v-1l-3-4-2-4h-1l-2-5-3-4v-1l-2-4-3-5-2-5-1-2-1-7 3-6 6-3 7 1 5 5h1l1 2 2 5 2 4 2 4 3 4v1l2 4 3 4 2 4 3 3v1l2 2 2 6-2 7-5 4-8 1zm370 0-6-4-2-7 2-7 2-2v-1l2-3 3-4 2-4h1l2-4v-1l2-4 3-4 2-4 2-5 1-2 5-5 7-2 6 3 4 6-1 7v1l-1 2-2 5h-1l-2 5-2 4-1 1-2 4-3 5-3 4-2 4-1 1-2 4h-1l-2 3-5 4h-7zm-296-5-6-4-3-6 2-7 3-4 5-7v-1l5-7v-1l5-8 4-9 1-2 5-5 7-1 6 3 4 6-1 7v1l-1 2-5 9-5 9-6 9-5 8-3 4-5 4h-7zm222 0-5-4h-1l-2-4-6-8-5-9-5-9-5-9-1-2-1-7 3-6 6-4 7 1 5 5 1 2 5 9 5 8v1l5 7 5 8 2 4 2 6-2 7-6 4h-7zm-103-12-9-3-6-6-1-8v-66l2-8 6-6 8-2 9 2 6 6 2 8v66l-3 9-6 6-8 2zm49-13-7-2-5-5-1-3-1-1-4-18-4-18-3-13v-8l5-6 7-2 7 2 5 6 1 2 3 13 4 18 4 17 1 1v9l-5 6-7 2zm-100 0-8-1-5-5-2-8v-2l1-1v-1l4-17 4-18 3-13 4-6 7-4 7 1 6 5 2 7-1 3-3 13-4 18-4 18-1 1-4 7-6 3zm-170-31-7-1-5-5v-1l-1-3-3-9-3-8-3-7-2-6-2-9-1-3v-7l4-5 7-2 7 2 4 5v1l1 3 2 8 2 6 3 7 2 7 3 8 2 3v7l-4 6-6 3zm433 0-6-2-4-6v-8l1-3 3-8h1l2-7 2-7h1l1-6 3-8 1-3 4-6 6-2 7 1 5 6v7l-1 3-3 9-2 6-2 7-3 8-3 9-2 3-4 6-7 1zm-296-4-6-2-4-6 1-7v-1l2-5 4-10h1l3-9 4-10 3-8 4-5 7-2 7 2 4 6v7l-3 9-4 9v1l-4 9-4 10h-1l-2 6-5 5-7 1zm159 0-7-1-5-5-3-6-4-10-4-9v-1l-4-9-3-9v-7l3-6 7-2 7 1 4 6h1l3 8 3 10 4 9 4 10 3 5v7l-3 6-6 3zm-44-40-7-3-5-5-1-3-2-11v-2l-2 5-6 6-8 2-9-3-6-6-1-8v-15l-2 5-3 16-2 11-4 7-6 3h-8l-6-5-2-8 1-2 2-11 3-16-1 3-2 8-5 6-6 2-7-2-4-6-1-7h1l2-8 3-9v-1l3-8v-1l2-8 2-9h1l3-6 7-2 7 1 4 5 1 7v1l-1 3 5-3 8 1 5 4v-6l-3 1-7-1-6-4-2-7v-3l-3 1-7-1-5-6-1-7v-1l1-2h-97l-17-17V97h-49l-15-15V2c-6-2-13-3-19-4-13 0-25 5-37 10s-24 10-35 10h-1c-11 0-24-4-35-8s-22-8-29-10c-8-1-14-2-19-2s-8 0-10 1l-1 1v-56c2-2 6-2 11-2s11 1 19 2c8 2 18 7 30 11 11 4 23 7 34 7 12 0 23-5 35-10s25-9 38-9 27 6 40 11c14 6 28 11 41 11 12 1 24-4 37-8 12-5 24-10 37-10s27 4 40 9c14 4 27 8 41 8 14-1 28-5 42-10s28-10 42-10c14 1 28 6 42 11 13 5 27 10 41 10 15 0 30-4 45-9s30-10 45-11c14 0 28 5 42 10 13 4 26 9 36 10 9 0 17-3 24-7 6-3 12-7 19-8 12-3 21-3 28-1h1V5h-1c-7-2-16-2-28 1-6 1-12 5-18 8-7 4-15 7-25 6-11 0-23-5-37-10-13-4-27-9-41-9-7 0-14 2-21 3v78l-15 15h-57v65l-17 17h-97v2l1 1-1 7-5 5-6 2v1l6-1 7 2 4 6 2 9 3 8 3 9v1l2 9h1l2 8v7l-4 6-7 2-6-2h-1l3 10-1 8-5 5-7 3zm-14-76 4-1 3 1v-3l-7 2v1zm-23-30 6-1h1v-1h-7v2z" horiz-adv-x="1000"/><glyph glyph-name="amenity-fountain2" unicode="" d="M425 784c-5 0-10-1-14-4-13-8-21-20-27-38-5-15-16-53-26-100-9-47-9-74-12-115 5 41 14 67 24 112 13 44 31 79 39 92 6 10 10 16 12 16 5 0 10-14 15-31-6-21-12-53-14-73-3-27-6-104-6-104s13 85 16 104c2 11 6 29 10 45 0-1 1-2 1-4 13-59 24-157 33-304-3 24-8 43-12 59-3 13-5 24-9 32s-9 14-16 19c-4 3-8 4-13 4-5-1-9-3-13-5-4-4-8-8-11-13-6 7-13 11-21 14-10 4-20 4-29 0-2 0-3-1-4-1l-9 3c-10 3-20 3-30 0h-1c-24 5-49-2-71-17-21-16-41-40-60-72-38-64-72-176-82-226C84 126 72 67 67 24c9 41 26 104 40 152 13 49 56 158 92 213 18 27 37 48 54 61-10-13-19-29-28-47-32-64-54-148-67-223-12-74-18-160-18-160s15 84 29 158c14 73 43 153 73 212 15 30 39 50 53 62 5 4 10 7 15 9 2 0 5-1 7-3-10-15-18-34-27-57-24-63-44-154-55-230-12-77-14-139-14-139s12 59 29 136 42 163 65 222c8 23 18 41 27 53 12-10 25-23 37-41v-3c-13-63-26-159-35-282V34l17 81c8 110 23 198 35 259 6-11 11-23 16-36 19-51 38-118 55-200 5-35 9-72 13-112-12 0-24-1-36-3C320 7 233-56 120-52v-26h756v26C763-56 675 7 551 23h1c-13 2-25 3-37 3 4 40 9 77 14 112 16 82 36 149 55 200 4 13 10 25 15 36 12-61 27-149 35-259l18-81-1 83c-9 123-22 219-34 282-1 1-1 2-1 3 12 18 25 31 38 41 8-12 18-30 27-53 22-59 48-145 65-222s28-136 28-136-2 62-13 139c-12 76-32 167-56 230-8 23-17 42-27 57 3 2 5 3 8 3 4-2 9-5 14-9 14-12 38-32 53-62 30-59 59-139 73-212 14-74 30-158 30-158s-6 86-19 160c-12 75-34 159-66 223-9 18-19 34-28 47 16-13 35-34 53-61 37-55 79-164 93-213 14-48 30-111 39-152-5 43-17 102-27 153-11 50-45 162-83 226-19 32-38 56-60 72-22 15-47 22-71 17-10 3-21 3-31 0l-9-3c-1 0-2 1-3 1-9 4-20 4-29 0-9-3-16-7-22-14-3 5-6 9-11 13-3 2-8 4-13 5-5 0-9-1-12-4-8-5-13-11-17-19-3-8-6-19-9-32-4-16-8-35-12-59 9 147 21 245 33 304 1 2 1 3 1 4 5-16 9-34 10-45 4-19 16-104 16-104 1 0-2 77-5 104-3 20-9 52-14 73 4 17 9 31 14 31 3 0 6-6 12-16 8-13 27-48 39-92 11-45 19-71 24-112-3 41-3 68-12 115s-21 85-26 100c-6 18-14 30-27 38-6 4-16 6-22 2-7-4-9-11-13-17-1-2-1-4-2-6-3 8-6 15-8 17-5 5-6 8-13 8-8 0-24-19-28-77-5 58-21 77-28 77-8 0-9-3-14-8-2-2-5-9-7-17l-3 6c-3 6-6 13-12 17-3 1-6 2-9 2zm46-38c4 0 10-14 15-81 2-30 2-97 3-194-7 107-16 184-25 234-2 11-4 20-7 28 5 8 10 13 14 13zm54 0c3 0 8-5 13-13-2-8-4-17-6-28-10-50-18-127-26-235 1 98 2 165 4 195 4 67 10 81 15 81zm-99-285c1-2 1 0 2-2 2-6 9-16 14-26 10-21 18-54 23-97 3-27 7-57 10-92-6 36-12 68-18 95-10 44-21 79-33 104-1 2-2 5-3 7 1 3 2 5 3 7l2 4zm143 0 2-4c1-2 2-4 4-7-2-2-3-5-4-7-12-25-22-60-33-104-6-27-12-59-18-95 3 35 7 65 10 92 6 43 13 76 23 97 5 10 12 20 15 26 0 2 1 0 1 2zm35-10v-1 1zm-213 0v-1 1zm18-28c9-19 20-45 28-76-9 29-19 54-29 75 0 0 0 1 1 1zm178 0v-1c-10-21-19-46-29-76 9 32 20 58 29 77z" horiz-adv-x="1000"/><glyph glyph-name="amenity-library" unicode="" d="M514 797" horiz-adv-x="1000"/><glyph glyph-name="amenity-library2" unicode="" d="M509 786c-70 0-127-57-127-126 0-70 57-127 127-127s127 57 127 127c0 69-57 126-127 126zM380 502c-57-2-82-48-82-48L111 197c-8-11-12-25-12-40 0-40 32-72 72-72 10 0 19 2 27 5l112 32V9h392v113l113-32c8-3 17-5 26-5 40 0 72 32 72 72 0 15-4 29-12 40L714 454s-24 46-82 48H380zm-70-87 196-63 196 63V265l-14 5c-101 29-140-104-39-133l3-1-146-48-146 48 3 1c101 29 62 163-39 133l-14-5v150zM118-44c-9 0-18-8-18-18s9-18 18-18h790c10 0 18 8 18 18s-8 18-18 18H118z" horiz-adv-x="1000"/><glyph glyph-name="amenity-playground" unicode="" d="M279 675c-2 0-4 0-6-1-23-1-46-13-59-34-21-33-7-78 28-97 35-20 80-9 101 24 21 34 7 78-28 98-11 6-24 9-36 10zm568-116c-41 0-74-33-71-72 2-40 36-70 77-70 40 0 73 32 71 72-3 40-37 70-77 70zm-630-6h-3c-4 0-9-2-14-6-6-4-14-10-22-17-15-15-33-35-49-56-18-22-34-44-46-60h-1" horiz-adv-x="1000"/><glyph glyph-name="amenity-police" unicode="" d="M432 772c-11 0-20-4-26-12l-3-4c-2 0-3-1-5-1l-73-6h-1l-4 3c-5 4-11 6-18 6-12 0-25-6-34-18l-46-62c-14-18-13-43 2-54l14-11c1-1 3-1 4-2l22-63c-6-8-9-18-7-29l8-67c-41-13-98-39-105-79 0-1 0-2-1-3 0-1-1-3-1-4C41 309-9 167 47 50 85-28 155-85 234-94c6-4 12-6 21-8" horiz-adv-x="1000"/><glyph glyph-name="barrier-steps" unicode="" d="M202 74h616V-77H202V74zm100 201h416v-98H302v98zm70 142h276v-60H372v60zm46 94h184v-37H418v37zm33 64h118v-19H451v19z" horiz-adv-x="1000"/><glyph glyph-name="barrier-stile" unicode="" d="M168 611c-9 0-17-4-24-10-6-6-10-15-9-24v-50h-17c-11 0-22-5-30-13-9-8-13-19-13-30 0-12 4-23 13-31 8-8 19-13 30-12h17V310h-17c-11 0-22-4-30-12-9-8-13-19-13-31 0-11 4-23 13-31 8-8 19-12 30-12h17V75h68v149h163v52h302v-52h149V75h69v149h11c12 0 23 4 31 12s13 20 13 31c0 12-5 23-13 31s-19 12-31 12h-11v131h11c12-1 23 4 31 12s13 19 13 31c0 11-5 22-13 30s-19 13-31 13h-11v50c0 9-3 18-10 24-6 7-16 11-25 10-9 0-18-4-24-10s-10-15-10-24v-50H203v50c1 9-3 18-10 24-6 7-15 11-25 10zm35-170h614V310H203v131zm211-213v-87h206v87H414zM357 86V0h328v86H357z" horiz-adv-x="1000"/><glyph glyph-name="barrier-toll_booth" unicode="" d="M136 747c-8 0-16-3-22-9-5-5-9-13-9-21V188c0-8 4-16 9-21 6-6 14-9 22-9h77c8 0 16 3 22 9 6 5 9 13 9 21v266c-39-11-85-1-110 32-38 45-19 125 37 146 24 6 49 12 73 17v68c0 8-3 16-9 21-6 6-14 9-22 9h-77zm714-13" horiz-adv-x="1000"/><glyph glyph-name="barrier-blocks" unicode="" d="M157 591c-12 0-22-7-28-16-7-10-10-22-10-33V92c0-27 22-49 49-49h210c27 0 48 22 48 49l-13 380c-1 13-4 24-11 32-7 9-19 16-35 21l-198 65c-4 1-8 1-12 1zm530-130c-26 0-48-22-48-48L614 90c0-27 22-48 48-48l211 1c26 0 48 22 48 49l-3 307c0 27-22 49-49 49l-182 13z" horiz-adv-x="1000"/><glyph glyph-name="barrier-bollard" unicode="" d="M504 661h-4c-40-1-79-17-106-46-28-28-44-68-43-108V138c-6-2-11-3-16-4-17-5-24-13-24-22-1-8 0-33 0-54-3-11 8-22 31-27 40-11 91-9 137-11 62-1 128 0 186 11 17 5 29 13 30 22v1c0 20 1 39 0 58 0 5-2 10-10 15s-19 9-31 11v369c0 41-16 81-45 110-27 27-66 44-105 44z" horiz-adv-x="1000"/><glyph glyph-name="barrier-cattle_grid" unicode="" d="M219 296" horiz-adv-x="1000"/><glyph glyph-name="barrier-cycle_barrier" unicode="" d="M643 633" horiz-adv-x="1000"/><glyph glyph-name="barrier-entrance" unicode="" d="M491 642" horiz-adv-x="1000"/><glyph glyph-name="barrier-exit" unicode="" d="M146 642" horiz-adv-x="1000"/><glyph glyph-name="barrier-gate" unicode="" d="M781 648" horiz-adv-x="1000"/><glyph glyph-name="barrier-kissing_gate" unicode="" d="M453 756c-97 0-184-13-250-34-32-10-60-23-80-39-21-16-37-37-37-64V59" horiz-adv-x="1000"/><glyph glyph-name="barrier-lift_gate" unicode="" d="M141 640c-8 0-16-3-22-9-5-6-9-14-9-22V81c0-8 4-16 9-22 6-5 14-9 22-9h77c8 0 16 4 22 9 6 6 9 14 9 22v266c-39-12-85-1-110 32-38 45-19 125 37 146 24 6 49 11 73 17v67c0 8-3 16-9 22s-14 9-22 9h-77zm714-13" horiz-adv-x="1000"/><glyph glyph-name="education-university" unicode="" d="M471 625" horiz-adv-x="1000"/><glyph glyph-name="education-college" unicode="" d="M498 770" horiz-adv-x="1000"/><glyph glyph-name="education-college_vocational" unicode="" d="M498 770" horiz-adv-x="1000"/><glyph glyph-name="education-nursery" unicode="" d="M489 792c-69 0-125-56-125-125s56-125 125-125 125 56 125 125-56 125-125 125zm-76-270c-24 0-39-8-52-22L193 333c-45-46 16-105 62-59l101 102v-96h264v96l104-104c42-44 105 15 62 59L616 500c-14 14-29 22-53 22h-74zm-57-291-84-85c-28-27-20-75 5-101L395-78c46-46 107 17 63 62l-75 74 73 73zm263 0-99-100 73-73-75-74c-44-45 17-108 63-62L699 45c25 26 32 74 5 101l-85 85z" horiz-adv-x="1000"/><glyph glyph-name="education-nursery3" unicode="" d="M470 769c-3 0-6-1-9-2L112 619c-4-2-7-4-10-8-1 0-2-1-3-2-5-6-7-13-7-20l30-472c0-9 6-18 15-22L527-83c1-1 2-2 4-3 8-5 19-4 27 2l310 213c7 4 11 12 11 20l34 473c0 8-2 15-8 20-1 2-2 3-4 4-3 3-7 5-11 6L478 768c-3 1-5 1-8 1zm73-111h6c33-1 67-7 104-20 24-8 42-17 54-26 13-9 18-18 16-26-1-8-8-15-21-21-11-5-25-8-40-10-12-2-29-2-51-1l33-11-60-27-305 106 64 29 106-36c-3 5-2 11 1 16 4 5 11 10 21 15 18 8 43 12 72 12zm-3-39c-11 0-19-1-26-4-8-4-11-9-8-14 3-6 13-11 31-17 19-7 35-11 49-11 14-1 25 1 33 5 8 3 10 7 6 13-3 5-14 11-34 18-18 6-33 9-46 10h-5zM237 439c9 0 19-1 31-4 16-4 34-10 53-19 31-14 55-27 74-39s34-27 47-45c9-13 17-28 23-46 5-18 8-34 9-49l6-134c0-14 2-26 3-35 2-8 6-20 12-35l-96 43c-4 9-7 16-8 21s-3 12-4 21c-13-9-26-13-39-14-17 0-38 5-62 16-32 14-56 34-74 58-17 24-26 48-27 73-1 23 4 39 15 49 12 10 33 11 65 4 38-9 62-14 73-15 12-2 23-3 36-3-1 15-4 26-9 34-6 8-15 15-28 21-17 7-29 10-37 7-6-1-11-8-15-19l-98 55c3 18 8 31 14 39 7 8 16 13 29 16h7zm559-54h3c18-1 30-11 36-30l-81-56c-2 8-6 12-12 13-6 0-15-2-26-9-14-8-25-19-35-33-9-15-15-32-17-51-1-17 2-27 10-31s18-2 32 5c11 6 20 15 28 24 8 10 15 21 19 35l80 37c-6-18-14-36-25-54-11-17-25-33-41-49-17-15-37-30-61-43-24-14-43-23-58-28-15-4-28-6-39-3-10 3-18 9-23 18-5 8-7 23-6 43 2 22 8 42 17 60 6 14 15 28 25 42 11 14 22 26 32 36 17 15 39 31 65 45 33 20 59 29 77 29zM308 234c-6 0-11-1-13-3-6-3-8-9-8-17 0-10 4-18 9-27 6-8 15-15 25-19 12-6 22-7 32-5 9 2 16 6 20 13 3 8 5 19 4 33l-1 19c-13 0-28 2-43 4-10 2-18 2-25 2z" horiz-adv-x="1000"/><glyph glyph-name="education-school" unicode="" d="M498 770" horiz-adv-x="1000"/><glyph glyph-name="education-school_primary" unicode="" d="M498 770" horiz-adv-x="1000"/><glyph glyph-name="education-school_secondary" unicode="" d="M498 770" horiz-adv-x="1000"/><glyph glyph-name="education-nursery2" unicode="" d="M492 702" horiz-adv-x="1000"/><glyph glyph-name="food-ice_cream" unicode="" d="M387 550 158-79l527 397zm152 244c-6 0-12 0-18-1-98-9-169-96-160-193 1-13 3-25 7-36-1-2-3-4-3-6L135-71c-8-23 18-42 37-28l528 398c4 3 7 8 9 13 9-1 19 0 29 0 92 9 160 91 151 183-8 86-81 151-165 152h-11c-15 84-89 146-174 147zm0-36c68-1 126-50 138-117-73-21-124-88-122-165h-4c-10-1-20-1-29 0l-117 90c-4 12-7 24-8 37-7 78 49 147 127 154 5 1 10 1 15 1zM398 507l247-189L208-11z" horiz-adv-x="1000"/><glyph glyph-name="food-pub" unicode="" d="m807 716 1 1c0 10-140 19-313 19-172 0-312-9-312-19l1-1h-1l98-743c-1-1-1-1-1-2 0-7 96-13 215-13 120 0 216 6 216 13 0 1 0 1-1 2zM647 27c-5-5-301-2-306 2l-92 587c164-114 271 15 486 4z" horiz-adv-x="1000"/><glyph glyph-name="food-restaurant" unicode="" d="M316 746c-55 0-161-140-161-268 0-102 47-190 111-220L253-46h127l-14 304c65 30 112 118 112 220 0 128-106 268-162 268zm352-2c-7 0-12-6-12-13l-9-353h-35l6 350c0 7-5 12-12 12h-8c-7 0-12-5-12-12l-18-350c0-103 24-141 89-171L644-46h126l-13 253c65 30 89 68 89 171l-17 350c0 7-6 12-12 12h-8c-7 0-12-5-12-12l5-350h-35l-9 353c0 7-5 13-12 13h-10c-7 0-12-6-12-13l5-353h-44l5 353c0 7-5 13-12 13z" horiz-adv-x="1000"/><glyph glyph-name="food-pizza" unicode="" d="M516 819C312 829 126 706 58 518-11 330 55 120 219 2c164-119 388-119 552 0 165 118 230 328 162 516l-200-69c4-14 1-30-10-41-11-12-28-18-44-16-16 3-28 13-34 26l-150-52 58 210h-2c-14 4-25 17-28 33-4 15 1 32 12 44 9 9 20 14 32 14 3 0 7-1 10-2l38 139c-32 9-65 14-99 15zm-102-81c20 0 35-16 35-34 0-19-16-35-35-35s-34 16-34 35c0 18 15 34 34 34zM255 620c20 0 35-15 35-34s-16-34-35-34-34 15-34 34 15 35 34 34zm143-62c19 0 34-16 34-34 0-19-15-35-34-35-20 0-35 16-35 35s15 34 35 34zM168 432c19 0 34-15 34-34s-16-34-35-34-34 15-34 34 15 34 35 34zm173-39c20 0 34-15 34-34s-15-35-34-35-35 16-35 35 16 34 35 34zm475-32c20 0 34-15 34-34s-15-34-34-34-35 15-35 34 16 34 35 34zm-360-71c20 0 35-15 35-34s-16-35-35-35-34 16-34 35 15 34 34 34zm172 0c19 0 34-15 34-34s-15-35-34-35-35 16-35 35 15 34 35 34zm-398-38c20 0 35-15 35-34s-16-34-35-34-34 15-34 34 15 34 34 34zm511-88c19 0 34-15 34-34s-15-34-34-34-35 15-35 34 15 34 35 34zm-406-58c19 0 34-16 34-34 0-19-15-35-34-35s-35 16-35 35 15 34 35 34zm222-9c19 0 34-15 34-34s-15-34-34-34c-20 0-35 15-35 34s15 34 35 34z" horiz-adv-x="1000"/><glyph glyph-name="food-bar" unicode="" d="M807 681c0 1 1 1 1 1 0 11-140 19-313 19-172 0-312-8-312-19 0 0 1 0 1-1h-1l277-256V135L281 7c-1 0-1-1-1-1 0-7 96-13 215-13C615-7 711-1 711 6c0 0 0 1-1 1L531 135v290zM504 475c-5-5-13-5-18 0L353 599c-5 4-4 8 3 8h279c7 0 8-4 3-8z" horiz-adv-x="1000"/><glyph glyph-name="food-biergarten" unicode="" d="m201 706 206 37 228-24 14-626 32-50S577-56 418-58c-160-2-252 98-252 98l41 62-6 604zm236 71c-10 0-21 0-31-1-70-1-142-6-214-31" horiz-adv-x="1000"/><glyph glyph-name="food-cafe" unicode="" d="M147 650" horiz-adv-x="1000"/><glyph glyph-name="food-drinkingtap" unicode="" d="M678 793c-17 0-32-15-32-32s15-32 32-32c8 0 15 2 23 5v-24c-11-7-20-18-25-30-5-9-9-20-11-32l-35 1h-24c-74 1-122-40-141-79-18-40-15-78-15-78l86 6s-1 19 7 35 15 30 61 30h1l24-1h40c2-5 4-11 7-16 9-19 26-37 51-37 24 0 41 18 51 37 2 5 4 10 6 16l152-1v86l-147 1c-3 12-7 22-11 32-6 12-14 23-25 30v24c8-2 15-5 23-5 17 0 32 15 32 32s-15 32-32 32" horiz-adv-x="1000"/><glyph glyph-name="food-fastfood" unicode="" d="m872 718-54-189H545L611 6h224l66 523h-50l52 180-31 9zM513 224c5 47-31 73-108 77H220c-77-4-113-30-109-77h402zM111 82c-4-47 32-72 109-76h185c77 4 113 29 108 76H111zm384 106H128c-10 0-18-4-25-11-6-6-10-14-10-23 0-10 4-18 10-25 7-6 15-9 25-9h367c10 0 18 3 25 9 6 7 10 15 10 25 0 9-4 17-10 23-7 7-15 11-25 11z" horiz-adv-x="1000"/><glyph glyph-name="food-fastfood_pizza" unicode="" d="m505 810-1-2-2 2-78-139c14-8 22-22 21-38 0-17-8-32-22-41-13-9-30-10-43-2l-1 1-177-316c13-7 22-22 22-38 0-17-8-33-22-42s-31-10-44-2l-1 2-54-97" horiz-adv-x="1000"/><glyph glyph-name="food-fastfood2" unicode="" d="M501 745c-90 0-182-24-259-65-76-40-137-97-164-165-14-12-24-26-29-40-8-19-12-41-12-64 0-22 4-44 11-64-2-14-3-27-3-41 0-22 2-44 7-62 4-19 10-34 17-45v-1l6-9c2-26 6-53 15-72l2-3c21-43 73-79 144-105 73-27 166-43 267-43 102 0 195 16 268 43 70 26 122 62 144 105l2 3c5 11 9 25 11 40s4 30 4 43c7 11 12 26 16 44 5 18 7 40 7 62 0 13-1 27-3 41 7 20 11 42 11 64 0 23-4 46-12 64-5 13-13 25-25 36-24 70-85 128-162 169-78 41-172 65-263 65zm0-13c101 0 208-31 288-82 41-25 74-56 98-90 24-35 37-73 37-113 0-16-4-30-12-43-8-11-18-22-31-32-2 1-3 1-4 2h-5c-13-3-22-6-30-10-9-3-17-7-28-9-10-3-22-5-33-10-5-3-10-6-14-11-4-4-6-8-8-14-30-8-63-14-96-18-63-9-124-12-166-12-63 0-166 11-254 36-1 2-3 4-4 6-7 7-16 10-25 12-9 3-18 5-23 7-7 3-16 9-26 15-10 5-21 10-32 11-3 0-6-1-9-2 0 1-1 1-1 1-15 10-26 21-34 32s-12 22-12 35c0 40 14 78 37 112 36 52 94 96 163 127 69 32 148 50 224 50zM133 363c7 1 16-4 25-9 10-5 19-12 28-15 5-2 10-4 16-5 8-2 17-5 22-8 3-2 6-4 7-6s2-4 2-6c-8 0-18 3-27 4-10 1-20 2-31 2-4 0-8 0-12-1-12 0-23-4-34-8-6-3-11-7-15-10-2-1-4-2-5-3l-3 6c-1 3-2 6-2 9 0 1-1 1-1 2 0 2 1 5 2 8 1 4 3 7 4 11 2 8 3 11 5 15 3 3 6 6 11 12l2 1c1 1 4 1 6 1zm738-3v-11c-1-6-1-13-1-19v-3c0-4 1-9 2-14 0-5 1-11 1-15s-1-8-1-8c-1-2-2-2-3-3-2-1-4-1-7-1-6 0-15 2-22 5-8 3-15 6-20 8-10 5-20 11-33 14h-16c1 5 3 9 6 12 4 5 10 8 17 11 7 2 15 4 23 6 13 3 22 7 30 10s15 6 24 8zM67 321c2-3 4-5 6-8 51-75 223-131 427-131s376 56 427 131c2 2 4 5 6 8-29-83-160-149-329-169 0 1 1 2 1 3v4l-3 2c-7 6-16 7-25 7-11 0-22-2-30-3-15-2-32-6-48-6-2 0-5 0-8 1-18 1-36 6-55 9-4 0-7 1-11 1-6 0-12-1-18-4-2-2-5-4-8-6-1-1-2-2-3-4-1-1-1-2-2-4-168 20-298 86-327 169zm851-130c0-8-1-17-2-25-2-15-5-29-9-39h-1l-1-4c-18-39-68-76-139-102S603-21 503-21 312-5 241 21 120 84 102 123l-2 4c-4 10-7 24-9 39-1 5-2 11-2 16 62-74 223-126 411-126 196 0 362 57 418 135zm-493-34c3 0 6-1 9-1 19-3 36-8 56-9 3-1 6-1 9-1 18 0 35 4 50 6 8 1 18 3 28 3 5 0 9-1 13-2-1 0-1 0-2-1-3-3-10-6-17-9-6-3-13-6-19-11-6-6-13-14-19-22-7-7-13-13-20-16-2-1-5-1-7-1-7 0-14 3-22 8-7 5-13 11-18 17-7 7-15 14-24 21-10 6-21 11-32 11h-2l1 1c2 1 3 2 4 3 4 2 8 3 12 3z" horiz-adv-x="1000"/><glyph glyph-name="health-pharmacy_dispencing" unicode="" d="M134 736V-18h754v754H134zm35-35h684V17H169v684zm23-22V39h640v640H192zm34-34h572V73H226v572zm180-40V465H266V253h140V113h212v140h141v212H618v140H406z" horiz-adv-x="1000"/><glyph glyph-name="health-veterinary" unicode="" d="M328 795c-27 0-46-38-19-57 5-4 6-9 6-35 0-17 1-60 3-97 2-65 2-65 12-65s10 0 10 93 0 93 9 104c16 20 14 43-6 54-5 2-10 4-15 3zm-75-50c-8 0-20-3-37-9-24-8-36-9-95-11-37-1-68-3-68-4 0-12 28-30 41-27 7 2 8 1 8-5 0-9 13-18 27-18 8 0 12-2 15-9 7-15 25-21 43-14 14 5 16 5 20 0 2-3 8-9 14-12 10-7 41-9 63-5 14 3 18 83 5 88-4 1-10 7-14 14-5 8-11 12-22 12zm148-1c-12 0-18-5-22-17-1-3-6-8-11-9-13-3-11-82 3-86 23-7 62-2 74 10s12 12 22 7c18-10 35-5 45 12 5 8 9 10 18 10 13 0 27 10 27 20 0 4 2 4 8 3 11-3 29 7 35 19 5 10 5 10-62 12-59 2-71 3-96 11-18 6-31 9-41 8zM257 609h-6c-61-8-74-56-23-90 16-11 22-12 26-6 1 2 10 8 20 13 17 10 17 10 4 13-26 4-43 15-43 27s9 13 24 2c12-8 38-8 44 1 11 18-16 41-46 40zm142 0c-13 0-25-3-34-11-29-24 5-51 35-29 13 9 22 8 22-3 0-17-51-36-96-36-63 0-108-62-72-100 14-15 16-15 39-3 18 10 18 10 8 18-28 23-13 37 48 47 72 11 110 37 110 75 0 24-31 41-60 42zm4-115c-2 0-3-1-4-2-3-2-13-5-22-6-13-2-16-4-14-8 6-14 5-17-4-28-5-7-18-14-34-20-63-24-85-56-60-88 10-14 10-14 33-3 17 9 17 10 10 15-20 14-7 30 38 46 52 18 74 41 69 70-2 15-7 24-12 24zm-74-13c-10 0-10 0-10-21 0-12 1-21 1-21 14 0 20 8 20 24 0 18 0 18-11 18zm373-73c-9-1-14-2-14-2-36-8-53-48-53-48-17-39-8-78-8-78 12-57 58-47 58-47 30 2 52 38 52 38 26 34 29 64 29 64 6 45-23 63-23 63-14 8-30 10-41 10zm-323-5c-3 0-5-1-9-3-6-3-20-8-31-12-20-6-20-6-20-23s0-17 10-13c10 3 11 5 11 19s0 15 7 12c23-13 13-31-24-43-42-14-64-48-44-70 7-8 6-8 20 1 9 7 11 10 10 18-1 11 4 14 42 27 46 16 62 50 37 79-4 5-6 8-9 8zm167-18c-15-1-29-8-40-18-21-22-28-53-29-83-1-13 3-27 9-39 9-21 31-36 54-35 17-3 34 3 45 16 10 10 15 24 18 37 8 28 9 60-4 87-8 13-19 25-34 31-6 3-13 4-19 4zm297-64c-25 1-47-12-47-12-42-20-57-78-57-78-5-56 28-64 28-64 28-11 69 14 69 14 36 18 53 51 53 51 28 38-1 69-1 69-14 15-30 20-45 20zm-480-9c-10 0-24-5-41-15-10-6-3-16 7-11 6 3 11 8 11 10 0 3 1 3 4 0 6-6 1-11-21-21-38-17-48-35-30-57 11-13 17-12 18 4 2 15 5 19 21 22 33 6 47 21 47 51 0 11-6 16-16 17zm8-62c-1 0-2 0-4-1-4-2-16-7-27-10-15-5-20-8-20-14-2-9 2-9 12 1 6 5 8 6 8 2 0-3-15-15-34-27-18-12-32-23-31-25 3-5 83 32 94 44 9 11 10 30 2 30zm274-33c-18 0-33-12-48-20-13-10-30-9-46-8-37 3-79-10-99-44-15-22-16-51-4-74 10-19 22-39 41-51 19-14 42-17 65-23 24-6 37-29 54-45 26-26 66-35 102-27 34 11 62 46 60 83-4 25-16 49-30 71-4 18-4 37-5 55 1 30-23 52-45 68-11 6-23 12-35 14-4 1-7 1-10 1zm-290-19c-27 0-50-40-30-72 2-4 10-1 10 4 1 3 2 18 3 32 3 27 3 27 22 20 22-7 26-6 17 5-7 7-15 11-22 11zm520-33c-7 0-13-1-20-2-21-3-39-16-56-29-19-13-30-35-31-57-1-7-1-14 3-19 8-17 24-31 43-32 26 1 51 10 72 26 14 11 26 24 34 41s6 40-7 55l-8 8c-9 6-20 9-30 9z" horiz-adv-x="1000"/><glyph glyph-name="health-dentist" unicode="" d="M319 818c-28-1-47-40-20-59 6-4 7-9 7-37 0-17 1-61 3-99 2-68 2-68 12-68 11 0 11 0 11 97 0 96 0 96 9 107 17 20 14 45-6 55-6 3-11 4-16 4zm-77-52c-9 0-21-3-38-9-25-8-37-10-99-12-38-1-69-3-69-4 0-12 28-31 42-28 7 2 8 1 8-5 0-9 14-18 28-18 8 0 12-2 15-9 7-16 26-22 45-15 15 6 16 6 20 0 3-3 9-9 15-13 10-7 42-9 65-4 15 3 19 85 5 90-4 1-11 8-15 15-5 8-11 12-22 12zm153 0c-13-1-19-6-23-18-1-4-6-8-11-9-14-4-12-85 2-89 25-8 64-2 77 10 12 12 13 12 23 7 19-10 36-5 46 13 5 8 9 10 19 10 13 0 27 10 27 20 0 4 2 5 9 3 11-3 29 7 36 20 5 10 5 10-64 12-62 2-73 3-99 12-19 6-32 9-42 9zM246 626h-6c-63-8-76-58-24-93 16-11 23-13 27-7 1 2 10 9 20 14 18 11 18 11 5 13-27 5-45 16-45 28 0 13 10 14 25 3 12-9 39-9 45 1 12 19-16 42-47 41zm147-1c-14 1-27-3-36-10-29-25 6-54 37-31 13 10 23 9 23-3 0-17-54-36-100-36-65-1-111-65-75-103 15-16 17-16 41-4 19 10 19 10 8 19-28 24-14 38 50 48 74 11 114 38 114 78 0 24-32 42-62 42zm3-118c-1 0-3 0-4-2-3-2-13-5-22-6-14-2-17-4-15-8 6-14 5-18-3-29-6-7-19-15-36-21-65-25-87-57-62-91 11-14 11-14 34-2 17 9 18 10 11 14-21 15-7 32 39 48 53 19 76 43 71 73-2 15-7 24-13 24zm-75-13c-11 0-11 0-11-22 0-12 0-22 1-22 14 0 21 8 21 26 0 17-1 18-11 18zm262-29c-22 0-43-10-61-29-11-12-18-27-22-59-5-31-8-79-12-158-3-72-4-120-2-152 1-31 5-47 12-54s14-10 22-11c8 0 17 3 26 8 18 11 38 32 57 64 10 15 17 26 23 33 3 3 6 5 8 6 1 1 2 1 2 1 1 0 1 0 2-1s2-3 2-6c0-4 0-8-1-14-1-11-5-26-10-46-7-25-10-41-10-54s3-21 10-30c7-7 13-13 20-16s14-4 21-1c15 4 32 19 55 46 12 13 22 27 30 38 4 6 7 11 9 15s4 7 4 9c0 1 0 2 1 4s2 4 4 7c3 5 8 12 14 20 13 16 30 37 48 58 48 54 75 98 82 137 6 38-9 69-44 95-16 12-28 18-41 20s-29-1-53-7c-28-8-42-11-55-7s-26 16-48 38c-28 28-56 43-83 46h-10zm-212-52c-2 0-5-1-9-3-6-3-20-8-31-12-21-6-21-6-21-24 0-17 0-17 11-14 10 4 11 6 11 20 0 15 0 16 7 13 23-13 13-32-25-44-43-15-66-51-45-73 7-8 6-8 20 2 9 6 11 10 11 17-2 12 4 15 43 29 48 16 64 51 38 81-4 6-7 8-10 8zm-16-94c-10 1-24-5-42-15-10-7-3-17 8-11 6 3 11 7 11 10s1 3 4 0c6-6 0-11-22-21-40-18-50-37-31-59 12-14 17-13 19 3s5 20 21 23c35 7 48 22 48 53 0 11-6 17-16 17zm8-63c-1 0-2-1-3-2-5-2-18-7-28-10-16-5-21-8-22-14-1-10 3-10 13 0 7 6 9 7 9 3 0-3-16-16-35-28s-34-24-33-26c4-5 86 34 97 46 10 11 10 30 2 31zm-16-54c-28 0-52-41-31-74 3-5 10-2 11 4 0 3 1 18 3 33 2 28 2 28 22 21 23-8 27-7 17 4-7 8-15 11-22 12z" horiz-adv-x="1000"/><glyph glyph-name="health-doctors" unicode="" d="M504-122c-36 59 28 135 73 86 14-16 7-17-24-6-27 9-27 9-30-29-2-20-4-40-4-44-1-9-11-13-15-7zm-70 71c-2 2 18 18 44 35s47 34 47 38c0 5-2 5-11-4-14-13-19-13-17 0 1 8 8 13 28 19 15 5 32 11 39 14 16 9 17-23 2-40S438-59 434-51zm25 59c-25 30-11 57 42 81 31 13 38 20 30 29-4 4-6 4-6-1 0-3-6-9-14-13-15-8-25 6-10 15 47 29 79 28 79-3 0-42-19-63-66-71-22-5-27-10-29-32s-10-24-26-5zm-19 73c-28 30 3 79 61 99 52 17 66 42 34 60-9 4-10 3-10-17s-1-22-14-27c-15-5-15-5-15 19s0 24 28 32c16 5 35 12 43 16 14 7 15 7 26-6 35-41 13-89-52-111-54-19-61-23-59-39 1-10-2-15-15-24-19-13-17-13-27-2zm-20 101c-35 45-4 90 84 124 23 8 40 19 49 28 12 15 13 20 5 39-3 7 1 9 20 11 12 2 26 6 30 9 10 8 19-4 23-31 7-41-24-72-97-98-63-23-82-45-53-65 9-7 9-8-15-20-32-17-31-17-46 3zm-16 124c-50 53 13 140 101 141 64 0 136 26 136 49 0 16-13 18-31 5-42-31-90 8-50 41 41 35 133 5 133-43 0-54-53-91-155-106-86-14-106-33-68-66 15-12 15-12-11-25-32-17-35-17-55 4zm92 42c0 30 0 30 15 30 14 0 14-1 14-25s-8-35-27-35c-1 0-2 14-2 30zm-128 83c-71 48-54 115 33 126 45 6 89-28 72-55-8-13-45-14-62-2-20 16-34 14-34-4 0-16 25-31 61-37 19-4 19-4-6-18-13-8-26-16-27-19-5-8-15-6-37 9zm126 123c-2 51-3 112-3 135 0 37-1 44-10 50-44 31 1 100 49 75 28-14 31-48 8-76-13-14-13-14-13-145 0-132 0-132-14-132s-14 0-17 93zm-136 41c-8 5-17 13-20 17-6 8-7 8-27 0-25-10-51-1-61 21-5 9-10 12-21 12-19 0-38 12-38 25 0 8-2 9-11 7-19-5-58 21-58 37 0 2 43 5 95 6 84 3 100 5 134 16 55 18 70 17 83-5 5-9 14-18 19-20 19-6 14-118-6-122-31-6-75-3-89 6zm210-5c-19 6-22 116-3 121 7 2 14 7 16 13 9 28 29 31 88 12 35-11 51-13 135-16 94-3 94-3 87-17-9-17-34-30-50-26-8 2-11 1-11-5 0-13-19-27-37-27-14 0-19-3-25-14-15-25-38-31-64-18-14 7-15 7-31-9-17-16-71-24-105-14z" horiz-adv-x="1000"/><glyph glyph-name="health-doctors2" unicode="" d="M475 827c-10-1-14-11-10-19 1-10 1-20 2-30 13 2 25 3 38 3 18 0 36 0 54-2 0 1 0 3 1 4 0 8 7 19-2 25-15 9-33-5-48 1-12 6-20 18-35 18zm39-63c-47 0-92-12-127-34-34-22-58-54-59-94 2-39 20-68 47-89 26-21 60-35 94-47 34-11 67-20 92-29 12-5 22-10 29-15 7-6 10-11 10-16 1-9-2-16-7-23-6-6-15-12-27-18-23-11-56-20-89-31-34-10-67-22-93-41s-43-45-42-81c1-28 19-50 44-67s57-30 89-41 63-20 86-30c12-5 21-10 27-15s8-10 8-14c0-12-9-23-26-34-18-11-43-21-72-30-57-18-127-34-178-59l-6-3 4-6c3-5 6-5 10-6 3-1 8-1 13-1 11 0 25 0 42 2 34 3 79 10 123 20 43 11 87 26 121 45 33 20 57 44 57 75 0 28-17 49-42 66s-57 30-89 42c-32 11-63 22-87 33-11 5-21 11-27 17-6 5-8 11-8 16s2 9 9 15c6 5 16 10 28 15 25 11 58 20 92 32 33 12 67 27 92 46 26 19 44 45 43 78 0 33-18 58-44 77-26 18-60 31-93 43-34 12-67 22-92 34-12 6-23 13-30 20s-11 14-12 22c0 8 3 15 8 21 6 5 13 10 23 14 18 7 43 8 64 6 19-3 39-23 62-43 14-11 35-16 47-19 13-3 21-2 31 1 2 1 5 3 6 6 1 2 0 4 0 5 0 4-1 7-2 10-1 2-1 3-2 5 3-1 5-2 8-3 4-1 7-3 11-4h5c2 0 6 1 7 4 4 7 5 15 4 24 1 21-16 44-41 63-26 18-62 32-101 33-13 2-27 3-40 3zm106-45c11 0 21-9 21-20 0-12-10-21-21-21-12 0-21 9-21 21 0 11 9 20 21 20zm-122-56h-3c-7-1-15-2-21-3 0-16 1-32 1-48 10-5 20-9 30-13 14-5 28-10 43-15 0 18 1 36 2 54-9 8-18 16-29 22-7 1-15 2-23 3zm-36-183c-9-1-18-4-21-12-4-12 7-24 9-36 6-16 11-32 16-48 25 8 51 15 75 24 1 10 1 19 2 28 2 6 5 13 7 19l-15 6c-19 6-38 12-58 18 0-1 1-2 1-2-5 2-10 3-16 3zm76-188c-20-7-40-13-59-21v-33c19-10 39-17 60-24 5 21 13 42 20 64 0 9-13 12-21 10v4zm-59-174V96c-9 0-16-8-12-15 7-17 14-34 13-53 18 6 36 12 53 19 0 18 0 35 1 52-10 4-19 7-28 10l-27 9zm54-167c-18-5-35-9-53-13v-74c21 12 45 21 57 42 3 7-5 13-3 21-1 8-1 16-1 24z" horiz-adv-x="1000"/><glyph glyph-name="health-hospital_emergency" unicode="" d="M499 809C246 809 40 603 40 350s206-459 459-459c254 0 459 206 459 459S753 809 499 809zm0-33c236 0 426-191 426-426S735-76 499-76C264-76 73 115 73 350s191 426 426 426zm0-27c-220 0-398-179-398-399S279-48 499-48s399 178 399 398-179 399-399 399zm0-34c202 0 365-163 365-365S701-15 499-15 134 148 134 350s163 365 365 365zm-77-54V427H188V273h234V39h154v234h235v154H576v234H422z" horiz-adv-x="1000"/><glyph glyph-name="health-hospital" unicode="" d="M496 804C249 804 49 604 49 357S249-90 496-90c246 0 447 200 447 447S742 804 496 804zm0-38c226 0 409-183 409-409S722-53 496-53C269-53 86 131 86 357s183 409 410 409zm-71-79" horiz-adv-x="1000"/><glyph glyph-name="health-hospital_emergency2" unicode="" d="M831 683c-16 0-29-4-41-13-11-9-16-23-16-40 0-18 4-47 13-87 6-31 10-56 11-75l22-282c6-1 10-1 14-1 2 0 5 0 10 1 1 4 2 8 3 10l5 118c1 32 10 102 27 211 9 56 14 92 14 107 0 16-6 29-18 38s-27 13-44 13zm-439-1C213 682 67 536 67 357S213 32 392 32c180 0 325 146 325 325S572 682 392 682zm0-27c165 0 298-133 298-298S557 59 392 59C228 59 94 192 94 357s134 298 298 298zm-62-45V419H140V295h190V104h125v191h190v124H455v191H330zm505-477c-20 0-36-5-50-15-13-10-20-22-20-36 0-11 8-22 23-33 15-12 31-18 47-18 15 0 29 6 44 18 14 12 22 24 22 36 0 13-7 24-19 33-13 10-29 15-47 15z" horiz-adv-x="1000"/><glyph glyph-name="health-pharmacy" unicode="" d="M173 698V20h678v678H173zm37-37h605V56H210v605zm196-56V465H266V253h140V113h212v140h141v212H618v140H406z" horiz-adv-x="1000"/><glyph glyph-name="health-opticians" unicode="" d="M664 781c-27-1-46-39-19-58 6-4 7-9 7-35 0-17 1-60 2-96 2-66 2-66 12-66s10 0 10 93c0 94 0 94 9 104 17 20 14 44-6 54-5 3-10 4-15 4zm-73-51h-2c-8 0-20-3-37-9-24-8-36-9-95-11-37-1-68-3-68-4 0-12 28-30 41-27 7 2 9 1 9-5 0-9 12-17 26-17 8 0 12-3 15-9 7-16 25-22 43-15 15 6 16 6 20 0 2-3 9-9 14-12 10-7 41-9 64-4 13 2 17 82 4 87-4 1-10 7-14 14-5 8-10 12-20 12zm147 0c-13-1-19-6-23-17-1-4-6-8-10-10-14-3-12-82 2-86 23-7 62-1 74 11 12 11 13 11 22 6 19-10 35-5 45 12 5 8 9 11 19 11 12 0 26 9 26 19 0 4 2 5 8 3 11-3 29 7 35 19 5 10 5 10-62 12-59 2-71 3-95 11-19 6-32 9-41 9zM593 594h-6c-61-8-74-56-23-89 16-11 23-13 26-7 1 2 10 8 20 14 17 10 18 10 4 12-26 5-43 15-43 27s9 14 24 3c12-9 38-9 44 1 11 18-16 40-46 39zm143 0c-13 0-26-3-35-11-28-23 5-51 36-29 12 9 22 8 22-3 0-17-52-35-97-36-63 0-108-62-72-99 14-15 16-16 39-3 18 9 18 9 8 17-28 24-13 38 48 47 72 11 110 37 110 76 0 23-31 40-59 41zm3-115c-2 0-3 0-4-1-3-3-13-6-22-7-13-2-16-3-14-8 6-13 5-17-3-27-6-7-18-15-35-21-63-24-85-56-60-88 11-14 10-14 33-2 17 9 17 9 11 14-21 14-8 30 38 46 51 19 74 41 69 70-3 16-8 24-13 24zm-73-13c-11 0-11 0-11-21 0-11 1-21 2-21 13 0 19 8 19 25s0 17-10 17zm49-78c-2 0-5-1-9-3-6-3-20-8-31-11-20-7-20-7-20-24s0-17 11-13c9 3 10 5 10 19 0 15 1 16 7 12 23-12 13-30-24-42-42-14-63-49-44-71 7-8 6-8 20 2 9 6 11 10 10 17-1 11 4 14 43 28 46 15 61 49 36 79-4 5-6 7-9 7zm-362-1c-14 0-27-2-40-5-35-8-72-25-120-41-71-23-116-42-141-61-12-9-20-19-22-31-2-11 3-22 13-32 7-8 12-19 18-49 15-71 53-125 97-151 45-26 98-23 136 20 10 13 24 35 36 56 6 10 11 20 15 29 3 8 6 13 6 19 2 0 3 0 7-1 11-2 16-5 16-5 0-1 0-2-2-5-3-6-5-13-4-21s4-16 10-31c35-96 90-144 170-153 25-4 48-4 71 7" horiz-adv-x="1000"/><glyph glyph-name="landuse-swamp" unicode="" d="M313 717c-5 0-1-43 0-68 2-37 0-52 0-135-6-83-3-115 10-115 37 0 15 306-9 318h-1zm-145-62c-2-1 23-30 36-66 18-49 32-86 32-145 0-25 7-45 15-45 45 0-9 196-67 244-11 9-16 13-16 12zm302 0c-1 1-5-3-17-12-57-48-111-244-67-244 9 0 16 20 16 45 0 59 14 96 31 145 13 36 38 65 37 66zM139 532c-4 0 13-11 22-38 10-27 13-52 13-67 0-16 7-28 16-28 19 0 22 15 2 74-9 26-30 50-42 55-7 2-10 4-11 4zm360 0c-1 0-5-2-12-4-12-5-32-29-41-55-21-59-18-74 2-74 8 0 15 12 15 28 0 15 3 40 13 67s27 38 23 38zm-81-172h-32c-50 0-100 0-149-4-5-1-7-8-2-10 25-5 51-4 76-5 69-2 139-3 208 2 5 1 15 1 13 8-3 7-13 5-19 6-31 3-63 3-95 3zm88-57h-26c-20-1-41-1-61-5-5-3-2-11 4-11 30-6 61-4 92-4 13 0 27 1 40 5 4 4 1 11-5 11-14 3-29 4-44 4z" horiz-adv-x="1000"/><glyph glyph-name="landuse-coniferous" unicode="" d="M510 711" horiz-adv-x="1000"/><glyph glyph-name="landuse-deciduous" unicode="" d="M495 681c-45 1-92-24-101-74-4-21-7-28-33-29-77-1-111-115-45-169 7-6 3-10-19-27-112-85 9-254 123-173 16 12 19 12 23 2 8-20 4-120-6-153l-10-33h147l-9 33c-10 33-14 133-6 153 4 10 6 10 23-2 114-81 235 88 123 173-22 17-27 24-19 27 66 25 30 157-45 169-25 5-29 8-33 29-10 53-61 77-107 74h-6z" horiz-adv-x="1000"/><glyph glyph-name="landuse-grass" unicode="" d="M665 676" horiz-adv-x="1000"/><glyph glyph-name="landuse-hills" unicode="" d="M361 688h-22c-67 1-140-10-192-57-31-26-58-58-95-75-5-6 5-7 8-6 16 4 28 17 42 24 28 19 51 42 73 66 23 16 52 20 78 28 43 9 86 15 130 11 31-7 50-36 77-51 26-17 54-33 78-52 2 3-2 9-2 13-5 12-20 17-30 25-26 17-54 33-76 55-13 12-30 19-47 18-8 0-15 1-22 1zm265-146c-32-1-64-6-93-19-19-13-39-25-58-38-2-2-11-9-3-6 40 13 75 39 117 46 36 9 77 13 109-9 21-13 40-31 63-41 24-14 42-43 71-46-29 39-78 57-112 91-25 23-62 21-94 22zM401 426h-3c-55-5-111-16-155-51-29-22-53-52-86-69-4-4 5-12 8-6 42 23 72 62 112 86 39 21 84 25 128 31 30 1 62-8 82-32 26-23 60-35 84-59 11-9 20-24 33-27 0 10-10 17-16 25-24 26-57 42-86 62-16 13-30 34-54 34-16 3-31 6-47 6z" horiz-adv-x="1000"/><glyph glyph-name="landuse-mix" unicode="" d="M251 711" horiz-adv-x="1000"/><glyph glyph-name="landuse-quary" unicode="" d="M419 820h-3" horiz-adv-x="1000"/><glyph glyph-name="landuse-scrub" unicode="" d="M710 614" horiz-adv-x="1000"/><glyph glyph-name="money-exchange" unicode="" d="M147 743" horiz-adv-x="1000"/><glyph glyph-name="money-atm" unicode="" d="M179 739c-17 0-31-14-31-31V599c0-17 14-30 31-30h124c-2-5-3-11-6-18-6-18-14-43-24-72-20-59-46-135-72-212C148 115 96-36 96-36" horiz-adv-x="1000"/><glyph glyph-name="money-atm2" unicode="" d="M275 657c-3-19-172-741-172-741l795 6-172 738-451-3zM110 795c-17 0-31-14-31-31V584c0-17 14-31 31-31h121C181 339 134 138 83-80c-2-12 7-24 20-24l795 7c13 0 22 11 19 24L771 553h119c17 0 31 14 31 31v180c0 17-14 31-31 31zm31-62h718V615H756l-11 49c-2 9-10 15-19 15l-451-3c-10 0-18-7-20-16-3-15-6-26-10-45H141zm569-93L873-58l-746-7c56 243 110 465 164 702zm-210-69c-16 0-29-13-29-29v-34c-47-4-83-16-106-37-26-22-39-48-39-79s13-56 39-76c24-18 59-31 106-40V112c-23 3-41 11-55 24-16 16-27 37-33 66l-69-10c4-37 20-66 47-87 26-20 63-32 110-37V19c0-16 13-30 29-30 17 0 30 14 30 30v49c48 3 85 16 113 39 29 25 43 54 43 88 0 32-13 59-39 79s-65 34-117 42v149c19-4 34-11 45-21 13-11 22-27 26-46l72 7c-6 32-22 56-47 73-24 17-56 27-96 31v33c0 16-13 30-30 29zm-29-106V326c-22 6-39 14-53 24-15 11-23 26-23 46 0 17 8 32 23 45 12 12 30 19 53 24zm59-199c31-8 53-18 66-29s19-27 19-46c0-22-8-40-26-55-16-13-35-21-59-25z" horiz-adv-x="1000"/><glyph glyph-name="money-bank" unicode="" d="M497 815" horiz-adv-x="1000"/><glyph glyph-name="money-bank2" unicode="" d="M495 813c-4 0-8-1-11-4" horiz-adv-x="1000"/><glyph glyph-name="religion-jewish3" unicode="" d="m431 12-63 109H244c-77 1-126 3-128 7s23 55 56 113c42 72 60 109 57 117-3 7-30 55-60 109-31 53-56 100-56 104 0 5 35 8 127 8h128l62 109c35 60 65 109 68 109 7 0 25-27 82-127l52-91h128c98 0 127-2 127-9 0-4-28-56-62-114l-61-106 62-107c34-59 61-110 61-114 0-5-38-7-127-7H632l-52-92c-57-99-75-127-82-127-3 0-33 49-67 109zm92 66c11 19 20 37 20 39 0 3-19 5-43 5s-43-2-43-5c0-5 40-75 43-75 1 0 12 16 23 36zM303 234c-12 22-23 40-25 40s-13-18-25-40l-22-40h94l-22 40zm312 5c14 25 34 60 45 79l18 33-43 76-43 75H408l-42-72c-23-39-41-75-41-79 0-7 68-132 81-148 4-6 32-9 95-9h88l26 45zm132-5c-12 22-23 40-25 40s-13-18-25-40l-22-40h94l-22 40zM303 466l21 40h-93l22-40c12-22 23-40 25-40s13 18 25 40zm444 0 21 40h-93l22-40c12-22 23-40 25-40s13 18 25 40zM543 583c0 5-40 75-43 75s-43-70-43-75c0-3 19-4 43-4s43 1 43 4z" horiz-adv-x="1000"/><glyph glyph-name="religion-shinto" unicode="" d="M223 781c-6 1-10-1-11-3-2-2 3-11 9-20s14-24 16-34c4-14 8-20 21-28 8-6 17-11 20-11 2 0 5-6 6-13 3-16 3-15 57-21 28-3 34-11 18-23-8-7-14-8-39-6-19 1-31 0-33-2-3-6-2-44 2-48 2-1 20-3 42-4l39-1v-20c0-20-1-22-12-26-14-5-14-5-5-21 5-11 6-28 5-116 0-68 1-107 4-112 6-11 34-12 40-1 2 4 4 72 5 151 2 79 3 144 4 145s42 2 93 3l91 1v-28c0-16-2-31-4-33-3-3-4-7-1-12 2-4 5-55 7-113 1-67 4-109 7-112 6-8 42-7 47 2 2 4 3 46 1 110l-2 103 11 13c12 14 10 19-11 26-12 3-13 5-14 24l-1 21 39 1c22 0 40 2 42 3 5 6 7 44 2 48-3 3-15 3-33 1-25-4-28-3-37 5-5 5-9 11-9 13 0 6 17 10 42 11 27 0 36 4 39 18 2 7 5 13 8 13 8 0 40 34 40 43 0 5 3 15 8 22 18 30 7 39-26 23-14-6-37-14-51-16s-34-6-44-8c-10-3-68-5-128-6-91-2-119-1-157 4-25 4-52 8-59 9-17 2-49 11-65 19-7 4-16 6-23 6zm226-132h30v-32h-24c-18 0-25 2-33 10-8 7-10 11-7 16s10 6 34 6zm82 0h30c26 0 30-1 30-7 0-4-4-10-8-14-6-5-15-7-30-7h-22v28zM357 224" horiz-adv-x="1000"/><glyph glyph-name="religion-shinto3" unicode="" d="M290-37c-4 8-6 67-5 173 0 136-1 162-9 179-14 25-14 26 8 33 18 6 19 9 19 39v33l-61 1c-33 1-62 3-64 6-6 5-9 65-4 73 3 4 22 6 51 4 38-3 48-1 60 8 25 20 16 32-28 37-83 8-83 8-87 31-2 12-7 22-10 22-4 0-18 7-31 16-20 13-27 22-32 44-4 15-15 38-25 52-10 13-16 27-14 31 6 9 32 7 54-4 23-13 73-28 99-30 11-2 53-7 92-13 59-9 101-10 242-8 93 2 183 6 198 10s46 9 67 13c22 3 57 14 79 24 52 25 68 11 40-35-7-11-12-27-12-35 0-14-49-65-62-65-3 0-9-9-11-20-6-22-19-28-61-29-38-1-65-8-65-16 0-4 7-14 14-21 14-12 18-13 58-8 26 3 46 3 50-1 8-6 5-65-3-74-2-2-31-5-65-5l-61-2 2-31c2-30 3-33 22-39 33-10 36-17 17-39l-17-20 4-159c2-99 1-164-3-171-7-13-62-15-73-2-4 5-8 69-11 172-2 90-6 169-10 175-4 8-3 14 1 19 4 3 7 26 7 50v44l-141-2c-78-1-142-3-143-4s-4-102-6-225c-2-122-6-227-9-233-8-16-52-15-61 2zm180 558v25h-46c-37 0-47-2-52-10-4-8-2-14 11-25 12-11 23-14 52-15h35v25zm161-8c7 6 13 16 13 22 0 9-6 11-47 11h-46v-44h34c23 0 38 4 46 11z" horiz-adv-x="1000"/><glyph glyph-name="religion-sikh" unicode="" d="M505 808c-5 0-9-4-14-12-4-7-18-21-30-32-15-13-21-22-20-27 2-6-2-11-14-17-19-10-43-39-56-66-12-28-12-85 0-113 13-27 37-56 56-66 15-8 16-10 14-23-2-12-1-15 7-18 17-5 37-25 37-37 0-6-2-11-4-11-9 0-69 47-92 72-29 31-42 56-53 100-11 49 0 88 32 119 26 24 7 31-23 9-41-29-62-72-62-125 0-58 19-108 61-166 24-33 36-55 36-65 0-13 13-8 38 16 25 22 26 22 38 16l12-6-18-10c-32-16-49-52-33-68 15-15 43 3 39 24-2 10 1 13 11 19 7 3 14 6 15 6 6 0 2-39-4-47-9-12-9-17 3-32 13-16 37-15 51 3 8 12 9 13 1 29-7 15-11 47-5 47 1 0 8-3 15-6 11-6 13-9 11-19-4-21 24-39 39-24 8 9 6 33-4 46-6 7-18 17-28 22l-19 10 12 6c12 6 14 6 38-16 14-13 28-23 31-23s8 8 11 17c3 10 15 31 27 47 48 64 66 111 66 174 0 58-18 93-62 126-30 21-49 13-23-10 6-6 17-21 24-32 10-17 12-25 11-54-1-56-22-102-68-146-23-22-73-59-80-59-2 0-4 5-4 11 0 12 20 32 37 37 8 3 9 6 7 16s0 14 7 18c20 11 51 43 62 66 11 20 12 28 12 64 0 35-1 43-12 63-11 22-42 55-61 65-6 3-9 8-8 13 2 6-3 13-15 22-10 7-24 21-31 30-8 11-14 17-18 17zm49-113 13-7c26-14 49-56 49-91 0-25-12-50-37-77-27-29-26-29-38 22-8 39-7 65 5 120l8 33zm-102-3c7 0 9-13 16-49 9-43 9-75 0-109-3-15-8-29-10-31-6-6-35 19-48 43-26 46-16 96 25 133 9 8 14 13 17 13zm-95-468" horiz-adv-x="1000"/><glyph glyph-name="religion-sikh3" unicode="" d="M498 784v-5l-2-4c-20-31-55-49-74-80 0-17 0-36-9-51-18-12-38-22-52-38-31-30-59-67-62-112-5-40-1-83 20-118 23-36 50-71 88-90 15-10 19-30 13-47-2-8 2-17 11-18 21-9 40-24 52-44 7-12 11-30-1-40-9-7-20 4-28 8-28 17-53 38-78 58-52 43-110 100-131 166-20 58-25 132 3 189 13 27 35 47 55 69 4 6-3 9-8 6-25-7-45-25-63-42-47-46-72-120-68-185 2-91 52-180 107-251 21-31 45-61 54-97-2-7 6-10 11-5 30 15 48 47 79 61 14 4 26-4 37-11 5-2 18-7 11-14-13-9-29-13-42-23-24-16-47-42-47-72 2-17 20-30 35-22 18 6 28 28 21 46 0 18 20 26 34 33 7 5 21 7 24-4 5-18-1-37-3-56-2-13-11-24-16-36 0-16 13-28 25-37 3-2 5-3 6-2 1-1 3 0 6 2 12 9 25 21 25 37-5 12-14 23-16 36-2 19-8 38-3 56 3 11 17 9 24 4 14-7 34-15 34-33-7-18 3-40 21-46 15-8 34 5 35 22 0 30-22 56-47 72-13 10-29 14-42 23-7 7 6 12 11 14 11 7 23 15 37 11 31-14 49-46 80-61 4-5 12-2 10 5 9 36 33 66 54 97 55 71 105 160 107 251 4 65-21 139-67 185-19 17-39 35-64 42-5 3-12 0-8-6 20-22 42-42 55-69 29-57 23-131 3-189-21-66-79-123-131-166-25-20-50-41-77-58-9-4-20-15-29-8-11 10-7 28-1 40 12 20 31 35 52 44 10 1 13 10 11 18-6 17-2 37 13 47 38 19 65 54 88 90 21 35 25 78 20 118-3 45-31 82-62 112-14 16-34 26-52 38-9 15-9 34-9 51-19 31-54 49-73 80l-3 4v5l-2-2-2 2zm-66-189c15-1 19-20 21-32 15-55 30-107 16-164-5-22-10-37-19-58-3-8-12-14-21-10-21 9-31 23-47 40-31 35-47 82-34 128 8 39 29 63 62 84 7 3 13 11 22 12zm136 0c9-1 15-9 22-12 33-21 54-45 62-84 13-46-3-93-34-128-16-17-26-31-47-40-9-4-18 2-21 10-9 21-13 36-19 58-14 57 2 109 16 164 2 12 6 31 21 32z" horiz-adv-x="1000"/><glyph glyph-name="religion-unknown" unicode="" d="M490 777h-7c-90-5-125-127-52-179 70-54 175 11 157 98-9 48-49 82-98 81zM220 665" horiz-adv-x="1000"/><glyph glyph-name="religion-unknown3" unicode="" d="M246 635" horiz-adv-x="1000"/><glyph glyph-name="religion-bahai" unicode="" d="M505 807h-1c-9-2-18-20-44-95-6-19-14-34-16-34s-28 14-58 31c-29 18-56 32-60 32-12 0-10-14 11-73 11-34 21-63 21-65 0-3-67-18-111-24-17-3-21-5-22-12s3-12 19-21c11-6 30-17 42-25s22-14 24-14c1 0 8-4 16-9l15-8-44-54c-24-30-44-56-44-58 0-8 9-9 33-5 41 8 110 18 112 16 1-1 2-33 2-71 1-69 1-70 10-70 6 0 20 14 49 50 23 28 43 50 45 50s23-22 46-50c58-69 58-69 58 21 0 58 1 71 6 71 3 0 31-4 61-8 63-10 79-11 79-4 0 3-18 28-41 56s-42 53-42 55 25 19 56 37c45 26 56 35 57 42 0 8-3 10-20 12-44 6-116 22-115 25 0 3 10 33 23 68 17 52 20 65 16 68-8 4-12 3-71-32-28-17-53-31-55-31s-6 8-10 18c-11 32-36 101-38 107-1 2-4 4-9 4zm-1-104c1 0 8-15 14-34 13-39 18-49 23-49 2 0 20 9 40 21s37 20 38 19-4-17-11-36c-17-49-17-53 8-57 11-2 20-4 22-4 1 0 11-2 23-4s22-4 21-6-18-12-36-23c-19-11-35-23-36-26-2-3 9-20 23-37 14-18 25-34 25-35 0-4-27-1-50 4-8 2-19 4-26 4-14 0-15-5-16-55l-2-37-27 34c-15 18-30 33-33 33-4 0-18-15-33-33-15-19-27-34-28-34-3 0-6 25-6 56v36h-11c-7 0-18-2-26-4s-24-5-35-6l-20-3 15 20c8 11 20 27 27 36s11 18 10 21c-2 5-16 14-59 38-7 4-13 9-12 11 2 1 11 4 22 6 54 8 64 11 64 17 0 4-6 23-12 42-7 20-13 38-13 40s8 0 18-6c43-25 58-33 63-31 2 1 11 20 19 42s15 40 17 40zM357 224" horiz-adv-x="1000"/><glyph glyph-name="religion-bahai3" unicode="" d="M334 15c-1 61-2 113-4 114-2 2-113-13-179-25-38-7-51-5-51 7 0 4 31 45 69 93l70 86-24 13c-12 8-24 14-26 14-1 0-19 10-38 23-19 12-49 30-67 40-25 14-31 21-30 33 2 11 9 15 36 19 70 10 176 34 176 39 0 3-15 49-34 103-33 95-36 116-16 116 5 0 48-22 96-50 47-27 89-50 92-50 4 0 15 25 26 55 41 120 55 149 69 151 8 1 15-2 17-7 3-9 42-119 61-170 6-16 13-29 16-29s42 22 88 49c94 56 100 59 112 51 8-4 3-25-26-107-19-57-35-105-36-109-1-5 114-31 184-40 27-4 31-6 31-19 0-11-19-25-90-68-49-29-90-55-90-58 0-4 30-43 67-88s67-86 67-90c0-10-26-9-127 6-49 8-92 14-98 14-7 0-9-22-9-114 0-144 0-144-93-33-37 44-70 80-73 80-4 0-36-36-71-80-47-58-70-80-80-80-14 0-14 2-15 111zm113 102c23 30 47 54 53 53 5 0 29-23 53-53l43-53 2 58c2 81 5 89 27 89 10-1 28-3 41-7 36-9 80-13 80-7 0 3-18 28-40 56-23 28-40 55-38 60s28 24 58 41c30 18 56 34 57 37 2 2-13 7-32 10s-36 5-38 6c-2 0-18 3-35 6-39 6-40 13-12 91 11 30 19 57 17 58-1 2-28-12-60-31s-61-34-64-34c-8 0-16 16-37 79-10 30-20 54-22 54-3 0-15-28-27-64-13-35-27-65-31-67-7-3-32 9-101 50-15 9-28 13-28 9 0-3 9-32 20-63s20-61 20-67c0-11-16-15-102-28-17-2-33-7-35-10s7-10 19-17c68-38 91-53 94-60 2-5-5-20-16-34s-30-40-43-57l-24-32 32 4c17 2 42 7 55 10 13 4 32 6 42 7h18v-59c0-49 4-88 10-88 0 0 20 24 44 53z" horiz-adv-x="1000"/><glyph glyph-name="religion-buddhist" unicode="" d="M503 807c-29 0-27-22-29-43-15-3-16 0-29-4-44-10-74-29-110-65-36-35-53-65-65-110l-7-28-15-1c-19-1-30-11-30-29 0-19 12-32 32-32 6 0 9 0 15-1 19-96 98-188 188-206l23-5v-15c0-10 2-18 8-23 10-10 35-11 44-1 4 4 7 14 8 22l1 16 30 8c58 17 108 52 140 99 18 26 34 63 38 88 3 15 3 16 20 18 26 4 38 23 30 45-4 9-24 19-37 18-9-2-10 0-13 14-16 90-96 171-185 190-15 3-18 3-27 4 0 25-2 40-27 41h-3zm-27-102v-51c0-29-1-52-1-52-3 0-70 70-71 73-1 4 41 27 61 28l11 2zm61-2 10-1c6-1 23-3 37-10l27-17-38-37-38-38 1 52 1 51zm-179-73 35-35c19-19 35-35 35-37 0-1-22-2-50-2h-50c6 29 12 45 21 61l9 13zm297 0c1 0 11-13 18-27 6-15 9-31 10-36 1-9 1-9-50-10-27 0-50 0-50 1 0 3 69 72 72 72zm-147-67c9 0 18-4 26-13 10-11 13-24 8-37-4-8-15-19-22-23-14-7-32-2-43 11-10 11-14 34 3 50 9 8 18 12 28 12zm-180-68h105l-37-35c-20-19-38-35-39-36-4-1-23 40-26 56l-3 15zm253 0h105l-2-13c-2-6-4-18-11-31-6-14-16-28-18-28-1 0-19 16-38 36l-36 36zm-108-48c1 0 3-22 3-49 0-32-1-44 0-52-6 1-21 3-39 10-21 9-29 18-34 22 4 5 14 17 33 35 18 19 35 34 37 34zm65 0c2 0 19-16 39-35l35-36-17-11c-14-6-32-13-39-14l-21-4v50c0 28 2 50 3 50zM357 224" horiz-adv-x="1000"/><glyph glyph-name="religion-buddhist3" unicode="" d="M462-88c-8 8-12 21-12 37v24l-37 7C272 8 147 154 117 306c-9 1-15 1-24 1-31 0-51 20-51 51 0 28 17 45 49 46l23 2 11 43c19 72 46 119 102 175 57 57 105 86 174 103 21 5 22 1 46 6 3 33 0 70 50 68 40-2 44-26 44-66 13-1 18-2 41-6 142-29 269-157 293-300 4-22 6-25 21-23 20 3 52-13 58-27 14-36-6-66-47-71-26-4-27-5-32-30-6-38-32-97-60-139C764 65 685 9 594-16l-47-13-2-25c-1-14-7-30-12-36-14-15-55-14-71 2zm-12 241c0 43-2 79-5 79s-29-24-58-54c-29-29-46-47-52-56 8-6 21-21 54-34 28-12 51-15 62-17-2 13-1 33-1 82zm188-51 27 17-56 57c-30 30-58 56-60 56-3 0-5-36-5-79V73l33 6c11 3 39 13 61 23zM324 252l58 55H216l4-23c5-26 36-91 42-88 2 1 30 26 62 56zm438-15c10 22 14 40 17 49l3 21H616l56-56c31-31 59-57 62-57s18 22 28 43zm-242 62c11 6 29 25 34 37 8 20 3 41-12 58-25 28-58 28-85 2s-21-61-6-79c18-21 47-29 69-18zM374 408c0 1-25 28-55 58l-56 55-13-21c-15-24-25-51-33-96h79c43 0 78 2 78 4zm403 13c-1 8-6 34-16 56-10 23-26 43-28 43-5 0-114-108-114-112 0-2 36-3 80-2 79 1 80 1 78 15zM450 558v82l-18-4c-31-2-97-38-95-45 1-4 107-115 111-115 1 0 2 37 2 82zm172 61c-24 11-51 14-59 15l-16 2-2-81-2-82 60 60 60 59-41 27z" horiz-adv-x="1000"/><glyph glyph-name="religion-christian" unicode="" d="M435 811V662H301V529h134V264c43 5 93-8 135 3l2 260 133 1v132l-132 3-2 146-136 2zm-78-587" horiz-adv-x="1000"/><glyph glyph-name="religion-christian3" unicode="" d="M422 800" horiz-adv-x="1000"/><glyph glyph-name="religion-hindu" unicode="" d="m515 827-21-20c-11-11-20-21-19-22 0-2 10-13 20-24l20-21 20 17c10 10 20 20 21 22 1 3-7 14-19 26l-22 22zm70-62c-1 0-6-5-11-10-14-19-42-32-65-32-26 0-46 8-67 27-16 15-17 15-27 8-6-3-10-9-10-11 0-8 35-46 54-59 9-6 25-14 35-18 25-9 56-8 82 1 24 9 66 44 61 51s-48 43-52 43zm-204-74h-23c-42-2-67-10-67-21 0-7 23-60 26-60 1 0 16 5 33 11 34 11 62 13 79 4 13-7 16-14 16-33 0-29-16-50-55-67-14-7-26-15-26-18 0-10 24-59 29-59 9 0 31 15 48 33l17 17 10-12c28-33 43-90 34-123-7-25-30-48-54-55-82-20-166 64-193 194-5 25-11 29-27 18-7-6-7-7 1-48 14-72 38-121 82-166 28-29 58-46 92-55 26-7 74-4 97 6 71 31 83 125 26 210l-8 14 21 10c27 12 33 12 43 1 6-7 8-17 10-61 3-69 10-89 38-101 34-15 76-3 103 27 32 36 43 80 40 160-2 65-10 94-34 119-18 18-36 24-67 24-42-1-73-25-85-67-4-18-5-19-23-22-25-3-41-10-64-27-20-16-28-16-22 0 6 15 5 46-2 70-9 29-29 53-55 67-16 8-22 10-40 10zm290-92c10-1 21-4 30-10 19-12 37-48 39-79 5-47-15-97-44-115-20-12-45-11-56 3s-12 18-13 85c-1 47-3 59-9 70l-8 13 10 10c14 15 33 23 51 23zM357 224" horiz-adv-x="1000"/><glyph glyph-name="religion-hindu3" unicode="" d="M351-97c-53 14-99 41-143 86-69 71-106 147-129 260-13 64-13 66-1 74 24 18 34 11 42-27C162 93 293-40 421-7c38 10 75 46 86 86 14 51-11 140-54 192l-16 19-26-27c-27-28-61-51-75-52-8 0-45 76-45 93 0 5 18 17 39 27 62 28 88 59 88 106 0 30-6 40-26 51-27 13-71 11-124-7-26-9-49-16-51-16-4 0-40 82-40 93 0 18 39 30 104 33 60 2 66 1 98-16 42-22 73-59 86-105 11-37 13-85 4-109-10-25 2-25 35 0 35 27 59 37 99 43 28 5 29 6 37 33 18 66 67 105 132 106 49 0 76-10 104-39 37-38 51-83 54-185 4-125-13-193-62-249-42-49-109-66-161-43-44 19-56 49-61 157-3 69-6 86-15 97-16 17-25 16-67-3l-33-16 13-20c89-134 70-280-41-330-35-15-111-20-152-9zm458 226c46 28 76 106 70 180-5 47-32 104-61 123-39 26-92 17-127-20l-16-17 12-20c11-17 13-36 15-110 2-103 3-110 20-132 17-21 56-23 87-4zM494 558c-16 6-41 18-55 28-29 20-85 81-85 92 0 4 7 13 16 18 16 11 17 11 42-12 34-30 64-43 105-43 36 0 80 21 102 49 7 9 15 16 18 16 5 0 72-55 80-66s-57-66-95-80c-40-15-89-16-128-2zm2 142c-17 18-32 35-33 37-1 3 13 19 31 36l33 30 33-33c19-19 33-37 31-41s-17-19-34-34l-30-27-31 32z" horiz-adv-x="1000"/><glyph glyph-name="religion-islamic" unicode="" d="M514 800c-31 0-84-10-108-21-66-28-127-92-150-161-9-25-14-49-14-86-1-37 5-64 14-89 25-72 91-141 161-165 13-5 32-10 42-12 48-10 115-2 161 19 15 7 28 15 37 21 4 3 8 6 9 8 1 1 2 2 2 3 1 2 0 3-1 3 0 1-1 1-2 1h-3c-3 0-7 0-11-1-9-1-21-3-34-5-40-8-50-9-74-5-77 14-147 74-174 150-14 37-14 104 0 141 28 79 99 138 177 149 28 4 39 3 75-4 22-5 35-7 42-7 2 0 3 0 4 1 1 0 2 1 2 2s0 2-1 3c0 1-1 3-3 4-4 5-13 11-24 17-12 6-26 11-41 16-29 10-63 18-86 18zm155-163h-1c-9-7-11-20-16-30-5-13-9-25-13-38-24-2-50 1-73-6-5-7 6-12 10-17 15-12 31-22 46-34-7-23-18-45-20-69 4-11 16-2 22 2 15 10 29 23 46 31 20-11 38-28 59-40 9 0 6 13 5 19-3 19-13 37-16 56 17 18 40 29 56 47 1 9-12 7-18 8-19 2-38 1-56 1-9 23-13 49-28 69-1 0-2 1-3 1zM357 224" horiz-adv-x="1000"/><glyph glyph-name="religion-islamic3" unicode="" d="M509 777c-49 0-134-16-172-32-105-45-200-147-238-256-14-40-22-78-22-136-1-59 8-103 22-142C139 96 245-13 354-51c22-8 52-16 68-20 76-15 182-2 255 32 49 22 83 46 75 53-3 4-39-1-79-9-63-12-80-13-118-7-124 21-235 117-279 239-21 59-21 166 0 226 45 126 159 220 284 238 44 6 63 5 119-7 71-15 84-14 70 3-28 34-166 80-240 80zm247-258h-2c-15-11-18-32-26-48l-21-60c-38-3-78 2-115-10-9-11 10-19 16-26 23-19 49-36 72-54-10-37-28-72-30-111 6-17 25-3 34 4 24 16 47 37 72 49 34-18 62-45 95-63 15-1 10 20 9 29-6 31-21 60-26 90 27 28 63 45 89 75 2 14-20 11-29 13-30 2-60 1-89 1-15 36-21 77-44 109-2 1-3 2-5 2z" horiz-adv-x="1000"/><glyph glyph-name="religion-jain" unicode="" d="M505 819c-17 0-24-2-32-10-6-5-11-13-11-17 0-6-2-8-8-6-11 3-35-6-42-17-5-6-7-19-7-45v-37l-11 2c-17 2-41-10-44-23-2-6-3-77-3-157-1-75-1-92 1-134 0-12 10-35 10-35 11-25 47-63 69-75 7-3 21-9 31-12 30-8 81-4 108 9 30 15 59 44 75 78 0 0 9 18 13 49s3 73 3 73c3 100 5 115 22 140 6 9 10 19 9 24-2 16-63 29-83 8-1 6-1 24-2 54-2 51-1 52-12 60-7 5-18 8-28 8l-18 1-2 23c-3 31-11 39-38 39zm2-28c11 0 12-21 12-130V540h24v89c0 75 1 89 7 95 3 3 9 6 13 6 16 0 17-7 16-114l-1-103h24l2 39c2 34 3 41 12 50 9 10 29 17 29 10 0-2-3-10-7-17-6-11-8-30-10-112s-4-103-10-118c-14-35-38-61-70-75-57-26-128 0-159 60-10 17-10 19-11 162l-1 145h9c18 0 19-3 20-67l1-61 12-1c12-1 12-4 11 48-1 21 0 69 2 108 3 61 4 70 10 72 4 1 10 0 14-2 5-4 6-16 6-107V544h29v121c0 119 0 121 8 124 3 1 5 2 8 2zm-9-278c-28 0-56-13-74-35-27-30-33-76-18-114 10-23 31-42 53-54 25-12 56-9 81 0 27 12 47 37 58 64 9 30 11 65-6 92-20 29-53 47-88 46-2 1-4 1-6 1zM357 224" horiz-adv-x="1000"/><glyph glyph-name="religion-jain3" unicode="" d="M480 795c-26 0-36-3-49-16-9-8-17-21-17-27 0-9-3-12-12-10-18 5-56-9-67-25-7-9-10-30-10-71v-57l-18 2c-26 4-63-15-68-35-3-10-5-119-5-245-1-118-2-143 1-209 1-19 16-55 16-55 18-39 73-98 108-116 11-6 33-14 49-19 46-13 126-7 168 14 47 23 92 69 117 121 0 0 14 29 20 77s5 115 5 115c4 155 7 178 35 218 8 13 15 29 14 37-4 24-99 44-130 12-2 10-2 38-3 84-3 79-2 81-19 93-11 8-28 14-45 14l-26 1-4 35c-4 49-17 62-60 62zm3-45c19 0 20-32 20-202V359h37v138c0 118 2 141 10 149 6 5 15 10 22 10 25 0 26-12 25-178l-2-160h37l3 61c3 53 5 63 18 77 15 15 45 26 45 15 0-3-4-14-10-26-9-16-12-47-15-175s-6-160-16-183C635 32 598-8 548-31c-89-40-200 1-249 93-14 28-15 31-16 254l-2 226h14c29 0 30-5 32-104l2-95 17-2c20-2 19-6 17 74 0 33 1 108 4 169 4 95 6 109 15 112 6 1 16 0 22-3 9-5 10-24 10-167V365h44v189c0 185 1 190 13 194 5 1 9 2 12 2zm-13-433c-44 0-87-20-115-54-43-47-51-119-29-178 16-37 49-65 83-84 39-20 87-15 126 0 42 19 74 58 91 100 14 46 18 101-10 144-31 44-83 73-137 71-3 1-6 1-9 1z" horiz-adv-x="1000"/><glyph glyph-name="religion-jewish" unicode="" d="M505 821c-2 0-22-32-44-71l-41-71h-83c-60 0-83-1-83-5 0-3 16-33 36-68 20-34 38-66 40-70 2-6-10-30-37-77-22-38-38-71-37-73 2-3 33-4 83-4h81l41-72c22-39 42-71 44-71 4 0 16 18 53 83l34 60h83c58 0 83 1 83 4s-18 37-40 75l-40 70 40 68c22 38 40 72 40 75 0 4-19 5-83 5h-83l-34 59c-37 65-49 83-53 83zm1-90c2 0 28-46 28-49 0-2-12-3-28-3-15 0-28 1-28 3 0 3 26 49 28 49zm-175-99h61l-14-26c-8-14-15-26-16-26-2 0-9 12-17 26l-14 26zm289 0h60l-13-26c-8-14-15-26-16-26-2 0-9 12-17 26l-14 26zm-174-3h120l28-49 28-49-12-22c-7-12-20-35-29-51l-17-29h-58c-40 0-58 2-61 5-8 11-53 93-53 97 0 3 12 26 27 52l27 46zm-84-148c1 0 8-12 16-26l14-26h-61l14 26c8 14 15 26 17 26zm289 0c1 0 8-12 16-26l14-26h-61l14 26c8 14 15 26 17 26zm-145-99c16 0 28-2 28-3 0-2-6-13-13-26s-14-23-15-23c-2 0-28 45-28 49 0 1 13 3 28 3zM357 224" horiz-adv-x="1000"/><glyph glyph-name="poi-tower_lookout" unicode="" d="m335-31-12-51h-73l126 566h-73v206l212 95 211-95V484h-72L779-82h-73l-12 51-180 219L335-31zm29 133 111 135-64 77-47-212zm237 289-20 93H449l-21-93 87-106 86 106zm17-77-64-77 111-135-47 212zM383 661V557h264v104H383z" horiz-adv-x="1000"/><glyph glyph-name="poi-tower_power" unicode="" d="M503 706" horiz-adv-x="1000"/><glyph glyph-name="poi-tower_water" unicode="" d="M189 764" horiz-adv-x="1000"/><glyph glyph-name="poi-boundary_administrative" unicode="" d="M449 797" horiz-adv-x="1000"/><glyph glyph-name="poi-cave" unicode="" d="M566 538c-54 1-119-13-184-41-78-34-122-74-207-188-59-80-111-153-115-163-4-9 8-14 28-10s76 67 125 139c74 109 108 140 196 178 177 75 178 75 370-142 44-51 96-114 114-140 47-67 70-34 25 37-31 50-140 181-246 296-21 23-59 34-106 34zM465 367c-49 0-205-177-205-233 0-6 110-11 244-11s244 5 244 12c0 6-29 51-64 100-59 83-140 132-219 132z" horiz-adv-x="1000"/><glyph glyph-name="poi-crane" unicode="" d="m852 746-713-10" horiz-adv-x="1000"/><glyph glyph-name="poi-embassy" unicode="" d="M164 793c-5 0-9-5-9-10v-894c0-5 4-10 9-10h29c5 0 9 5 9 10v385c1 0 1-1 1-1 11-9 24-17 38-24 30-14 63-24 88-24 32 0 69 12 105 24 37 12 72 23 96 23 23 0 51-11 82-23 30-12 63-24 97-24 67 0 142 38 142 38 3 1 5 5 5 8v497c0 3-2 6-4 8-3 2-7 2-10 0 0 0-73-35-133-35-29 0-60 11-90 23-30 11-60 24-89 24-30 0-66-12-102-24s-73-23-99-23c-27 0-60 11-87 23-18 8-32 16-40 20 0 5-4 9-9 9h-29zm74-91c-2-2 60-23 91-56 23-24 30-55 31-69l50-43c-34 39-59 84-31 167 88-56 115-125 60-195 47-45 83-64 115-73-48 45-88 113-64 217 119-35 145-183 91-224 13-2 24-3 36-5 26-4 52-9 80-28 28-18 58-50 92-105l-11-7c-34 55-62 84-88 102-26 17-49 22-75 25-13 2-28 4-43 7 9-62-50-121-122-121-36 0-77 29-117 47 4 1 13 12 16 14 37 27 55 56 92 66 28 6 57 9 85 9-26 11-56 30-90 61-14-32-66-42-93-34-45 10-72 65-72 65 0-2 54 23 98 13 13-3 25-8 35-13l-55 48c-34 6-73 25-90 45-32 34-21 87-21 87z" horiz-adv-x="1000"/><glyph glyph-name="poi-embassy2" unicode="" d="M78 764" horiz-adv-x="1000"/><glyph glyph-name="poi-military_bunker" unicode="" d="M500 783c-38-1-68-32-67-70v-10c-48-9-92-28-130-55l-88 88c-13 13-31 21-50 21-28 0-53-17-63-43-11-26-5-56 15-76l90-89c-25-38-42-81-50-127l-8-1c-39-1-69-33-68-71 2-39 34-69 73-67l7 1c9-41 26-79 49-113l-93-92c-27-27-27-71 0-98 27-28 71-27 98 0l92 93c38-25 80-43 126-51V12c-1-38 30-70 68-70 39 0 70 32 69 70v12c43 9 82 26 117 49l92-92c26-27 71-28 98 0 27 27 27 71-1 98l-91 91c23 34 40 72 50 113h13c39 0 70 31 70 69 0 39-31 70-70 69h-9c-8 47-26 91-51 130l88 87c21 20 27 51 16 77-12 26-38 43-66 42-18-1-35-8-47-21l-87-87c-36 25-77 43-122 52v12c1 39-31 70-70 70zm-1-182c140-2 242-108 238-242S635 126 497 125c-138-2-242 105-242 238 0 132 105 239 244 238z" horiz-adv-x="1000"/><glyph glyph-name="poi-mine" unicode="" d="M376 741" horiz-adv-x="1000"/><glyph glyph-name="poi-mine_abandoned" unicode="" d="M366 767h-2" horiz-adv-x="1000"/><glyph glyph-name="poi-mountain_pass" unicode="" d="m624 792-103-2 2-111-352-352H59V224h155l413 413-3 155zm153-305L364 74V-81h103V31l352 352 111-2 2 103-155 3z" horiz-adv-x="1000"/><glyph glyph-name="poi-peak" unicode="" d="m62-30 439 760L940-31 62-30z" horiz-adv-x="1000"/><glyph glyph-name="poi-peak2" unicode="" d="m592 686-16-34c-4-9-8-18-13-27-44-93-88-187-132-280-22 29-43 58-64 87l-16 21-13-22C254 297 171 163 87 29L70 3l32-1c262-2 525-4 788-6l28-1-12 26c-99 210-199 421-298 631l-16 34zm0-82L862 31l-729 6c74 118 147 236 221 353l66-90 17-24 13 27c47 100 95 200 142 301zm0 82-16-34-13-27c-44-93-88-187-133-281-21 30-42 59-64 88l-15 21-14-22C254 297 171 163 87 29L70 3l32-1c262-2 525-4 788-6l28-1-12 26c-99 210-199 421-298 631l-16 34zm0-297c5 0 10-3 14-7 15-20 31-36 37-39 3-1 2-1 5 1s10 9 17 23c3 5 9 9 16 9 6 0 12-4 15-10L839 64c5-11-4-26-16-26l-646 6c-6 0-12 3-15 9-3 5-3 12 0 18l128 204c5 9 19 10 27 3 11-11 21-17 33-18s28 4 52 22c8 5 20 3 25-4l11-16 46 98c3 6 9 10 16 10 6 0 12-3 16-9 4-8 9-13 12-15s6-2 10-2c8 2 23 13 40 37 3 5 8 7 14 8z" horiz-adv-x="1000"/><glyph glyph-name="poi-place_city" unicode="" d="M456 790" horiz-adv-x="1000"/><glyph glyph-name="poi-place_hamlet" unicode="" d="M374 787" horiz-adv-x="1000"/><glyph glyph-name="poi-place_suburb" unicode="" d="M237 755" horiz-adv-x="1000"/><glyph glyph-name="poi-place_town" unicode="" d="M456 790" horiz-adv-x="1000"/><glyph glyph-name="poi-place_village" unicode="" d="M374 787" horiz-adv-x="1000"/><glyph glyph-name="poi-point_of_interest" unicode="" d="m872 206-105 1 74 74c7 7 11 16 11 26s-4 19-11 26-16 10-26 10-19-3-27-10l-74-75v106c0 10-3 19-10 26s-16 11-27 11c-10 0-19-4-26-11s-10-16-10-26V258l-75 75c-7 7-16 10-26 10-11 0-20-3-27-10s-10-16-10-26 3-19 11-26l74-75H483c-11 0-19-4-27-11-7-7-11-16-11-26s4-19 11-26c8-8 16-11 27-11h105l-74-74c-8-8-11-16-11-27 0-10 3-18 10-26 7-7 16-11 27-11 10 0 19 4 26 11l75 74V-25c0-11 3-20 10-27s16-11 26-11c11 0 20 4 27 11s10 16 10 27V79l74-74c8-7 17-11 27-11 11 0 19 4 27 11 7 8 10 16 10 26 0 11-4 19-11 27l-74 74h105c11 0 19 3 26 11 7 7 11 16 11 26s-4 19-11 26-15 11-26 11zM471 411l1 244c0 10-3 19-11 27-7 7-16 11-26 11s-19-4-26-11c-8-8-12-17-12-27V501L180 719c-8 8-17 11-27 11s-18-3-25-11c-8-7-11-16-11-26s3-19 10-27l218-217H191c-10 0-19-4-27-11-7-7-11-16-11-27 0-10 4-18 11-26 8-7 17-10 27-10h244c10 0 19 3 26 10 7 8 10 16 10 26z" horiz-adv-x="1000"/><glyph glyph-name="poi-tower_communications" unicode="" d="M736 784" horiz-adv-x="1000"/><glyph glyph-name="power-tower_low" unicode="" d="M462 729v-84h-85" horiz-adv-x="1000"/><glyph glyph-name="power-transformer" unicode="" d="M303 619h-70" horiz-adv-x="1000"/><glyph glyph-name="power-station_coal" unicode="" d="M473 750" horiz-adv-x="1000"/><glyph glyph-name="power-station_solar" unicode="" d="M673 811" horiz-adv-x="1000"/><glyph glyph-name="power-station_gas" unicode="" d="m312 804-2-9c-9-65-28-97-45-122-18-25-36-43-39-79s13-66 32-86c9-10 19-18 28-23 8-6 14-9 19-11l18-4-12 14s-8 9-16 22c-7 13-14 30-13 44 1 10 4 16 8 24 5 7 11 15 20 28 12 16 25 39 35 70 31-28 45-46 52-81 3-17-2-44-9-66s-14-39-14-39l-9-20 18 13c56 42 78 97 66 154s-56 115-130 166l-7 5zm8-20c67-49 107-103 118-153 9-47-5-92-46-129 3 6 5 12 7 20 7 22 13 50 9 71-8 40-25 61-62 94l-7 6-2-9c-10-35-24-58-36-76-9-12-16-20-21-28-5-9-8-17-9-29-2-19 6-37 14-51 1-1 1-1 1-2-6 5-13 11-19 18-18 19-33 45-29 77 3 32 18 48 36 74 17 24 36 57 46 117zM217 476" horiz-adv-x="1000"/><glyph glyph-name="power-station_water" unicode="" d="M455 700h-49V529c5 3 9 5 14 7s10 4 16 6c5 2 10 3 16 4 5 1 11 2 17 3 5 0 11 1 17 1s12-1 17-1c6-1 12-2 17-3h1l-31 131c-6 14-19 23-35 23zM56 645v-60h309v60H56zm0-92v-60h304c2 2 3 4 5 6v54H56zm430-31c-11 0-21-1-32-3" horiz-adv-x="1000"/><glyph glyph-name="power-station_wind" unicode="" d="M279 809c-1 0-2 0-4-1-4-1-6-5-6-9-1-3-1-6-1-10 0-8 2-19 4-31 5-24 12-56 20-89 8-32 17-65 23-91 3-13 6-24 7-32 1-4 2-8 2-11v-4s0-1-1-3c-2-2-3-6-6-9-4-7-11-17-19-27-15-22-35-49-54-77-20-27-39-54-52-75-7-10-12-19-15-27-2-3-3-7-4-10 0-3 0-7 3-11 3-2 7-2 9-2 2 1 5 2 7 3 4 2 10 6 16 11 12 9 27 23 44 38 30 28 63 60 90 87L323-88" horiz-adv-x="1000"/><glyph glyph-name="power-tower_high" unicode="" d="m72 707-22-36s216-134 435-21c-1-22-4-51-8-85-203-112-405 14-405 14l-22-35s206-128 420-29c-5-33-11-69-19-107-29-142-81-309-168-425" horiz-adv-x="1000"/><glyph glyph-name="power-substation" unicode="" d="M88 716" horiz-adv-x="1000"/><glyph glyph-name="power-tower_high2" unicode="" d="M485 753" horiz-adv-x="1000"/><glyph glyph-name="shopping-garden_centre" unicode="" d="M604 635" horiz-adv-x="1000"/><glyph glyph-name="shopping-gift" unicode="" d="M138 704c-11-1-19-2-24-6-9-7-23-27-8-46 64 8 165-31 237-77 36-2 58 2 71 9-55 61-211 120-276 120zm737-3c-65 0-221-59-276-120 13-7 35-11 71-8 72 46 173 85 237 76 15 19 1 39-8 46-5 4-13 6-24 6zm-768-4s-2-2-4-5c3 4 4 5 4 5zm-4-5h-1c-4-4-6-7-8-11 3 5 6 9 9 11zm-9-11c-15-22-34-63-6-95 70-80 327-90 321-86-12 26-13 52 4 78-50-30-354 32-319 103zm812 13 4-4c-2 3-4 5-4 4zm4-4c3-3 6-7 9-12-2 4-4 7-8 11l-1 1zm9-12c35-71-269-133-318-103 16-26 15-52 3-78-6-4 251 6 321 86 28 32 9 73-6 95zm-415-79c-38 0-69-30-69-68s31-69 69-69 69 31 69 69-31 68-69 68zM151 461c-19 0-35-16-35-35V7c0-19 16-35 35-35h690c20 0 35 16 35 35v419c0 19-15 35-35 35H589c-2 0-3-1-4-2l-1-1c-2-3-5-5-7-8h-1c-2-4-5-6-8-9-4-3-7-5-10-7-4-2-7-4-11-5l-6-3c-2-1-4-3-4-5V-17h-70v441c0 2-1 4-3 5-4 1-7 3-10 5-4 2-7 4-11 6-3 3-6 5-9 8-3 2-6 5-8 8-1 1-1 2-2 3s-3 2-5 2H151zm-24-207h329v-82H127v82zm422 0h316v-82H549v82z" horiz-adv-x="1000"/><glyph glyph-name="shopping-greengrocer" unicode="" d="M248 755h-27s39-193 207-152c0 0-5 151-180 152zm226-26h-2c-2-1-4-1-6-2-4-2-7-5-8-10s1-10 3-17c5-12 9-34 12-60s5-55 7-83c3-56 3-105 3-105l9-1 47 253-3 1s-22 13-43 20c-6 2-13 4-19 4zm280-38c-178-2-197-160-197-160 192-66 257 155 257 155-22 4-42 5-60 5zM364 465c-101 0-184-82-184-183 0-4 0-7 1-11h1c3-39 15-89 45-150 0 0 52-98 93-144l4-3c20-21 47-33 78-33 38 0 71 18 91 46 20-28 53-46 91-46 30 0 58 13 78 33l4 3c41 46 93 144 93 144 30 61 42 110 45 150h1v11c0 101-82 183-184 183-50 0-95-19-128-52-34 33-79 52-129 52z" horiz-adv-x="1000"/><glyph glyph-name="shopping-hairdresser" unicode="" d="M619 798h-2c-3 0-5-2-6-3-1-2-1-3-2-4v-12c0-7 1-16 2-27 3-22 7-52 12-84 10-63 22-132 29-161 11-42 11-44 13-53 1-9 4-24 20-91l9-39-44-162c-6 3-15 7-25 10-21 6-51 7-79-13s-41-47-43-73c-3-27 3-54 11-76 22-62 94-76 131-36 7 8 14 23 22 45 9 22 19 50 29 85 9 30 19 64 29 101 10-36 20-70 29-99 10-34 20-63 29-85 8-22 15-36 22-44 37-40 109-26 131 36 8 22 14 48 11 75-2 26-15 53-43 73s-58 19-79 13c-10-2-19-6-25-10l-44 160 9 36c16 68 19 83 20 92 2 9 2 10 13 52 7 29 19 99 29 162 5 32 9 62 12 84 1 11 2 20 2 27v12c-1 1-1 2-2 3-1 2-3 3-6 4h-2c-1 0-2 0-2-1-2 0-5-1-6-4" horiz-adv-x="1000"/><glyph glyph-name="shopping-hearing_aids" unicode="" d="m601 761-11-38c127-33 229-129 269-253l39 13c-44 137-157 243-297 278zm-21-79-10-37c100-26 181-102 212-200l38 12c-36 111-126 197-240 225zm-10-37v-1 1zm0 0zm-67-45c-146-1-239-120-237-232 0-23 12-30 23-30 41 0 8 69 66 140 19 25 71 74 146 74 90 0 186-80 186-186 0-114-119-158-118-271V39c-1-26-30-65-68-65h-1c-16-1-27-4-31-17-3-14 6-28 20-33 4 0 7-1 10-2 75 1 121 59 121 111v50c0 117 117 145 117 278 0 144-116 238-234 239zm-16-70c-59 0-151-64-152-164 0-22 13-24 18-24 31 0 7 39 43 93 30 44 74 58 97 57h16c44 1 82-37 94-57 25-42 14-91 44-91 15 0 18 11 18 24 0 65-58 162-160 162h-18zm14-159c-14 0-24-10-24-23s10-24 24-23c12-1 23 10 24 23-1 13-12 23-24 23zm-77-75c-13 0-23-11-23-24s10-23 23-24c13 1 24 11 24 24s-10 24-24 24zm-103-45-30-30 82-80 29 29-81 81zm-51-110c-13 0-24-11-24-24s11-23 24-24c12 1 23 11 23 24s-11 24-23 24zm-74-77h-3c-12 1-23-10-22-22-1-14 10-24 22-24 14 0 24 10 24 24 0 11-9 22-21 22z" horiz-adv-x="1000"/><glyph glyph-name="shopping-hifi" unicode="" d="M111 590c-16 0-28-12-28-27V411c0-15 12-28 28-28h25c-1-3-1-5-1-9 0-14 11-26 26-26h96c15 0 26 12 26 26 0 4 0 6-1 9h451c-1-3-2-5-2-9 0-14 12-26 26-26h97c14 0 26 12 26 26 0 4-1 6-2 9h25c16 0 28 13 28 28v152c0 15-12 27-28 27zm694-32c43 0 79-35 79-78 0-44-36-79-79-79-44 0-79 35-79 79 0 43 35 78 79 78zm-666-8h115c11 0 20-9 20-20v-24c0-11-9-20-20-20H139c-11 0-20 9-20 20v24c0 11 9 20 20 20zm-28-276c-16 0-28-13-28-28v-96c0-16 12-28 28-28h25c-1-3-1-6-1-9 0-14 11-26 26-26h96c15 0 26 12 26 26 0 3 0 6-1 9h451c-1-3-2-6-2-9 0-14 12-26 26-26h97c14 0 26 12 26 26 0 3-1 6-2 9h25c16 0 28 12 28 28v96c0 15-12 28-28 28zm18-47h115c11 0 20-9 20-20v-23c0-11-9-20-20-20H129c-11 0-20 9-20 20v23c0 11 9 20 20 20zm209 0h116c11 0 20-9 20-20v-23c0-11-9-20-20-20H338c-11 0-20 9-20 20v23c0 11 9 20 20 20zm210 0h115c11 0 20-9 20-20v-23c0-11-9-20-20-20H548c-11 0-20 9-20 20v23c0 11 9 20 20 20zm209 0h115c11 0 20-9 20-20v-23c0-11-9-20-20-20H757c-11 0-20 9-20 20v23c0 11 9 20 20 20z" horiz-adv-x="1000"/><glyph glyph-name="shopping-jewelry" unicode="" d="M427 751v-1l-2-1-132-87 6-11 84-157c-86-45-145-136-145-239 0-149 122-271 271-271s270 122 270 271c0 103-58 193-144 239l18 34 73 134-132 87-1 2H427zm26-28h116l8-71H446l7 71zm-29-8-6-61-69 12 75 49zm174-2 72-47-65-11-7 58zm-261-74 78-13-14-105-64 118zm345 0-46-85-17-31-11 104 74 12zm-239-15h137l12-112c-26 9-54 13-83 13-28 0-56-4-81-12l15 111zm66-176c107 0 193-86 193-193S616 62 509 62s-193 86-193 193 86 193 193 193z" horiz-adv-x="1000"/><glyph glyph-name="shopping-jewelry2" unicode="" d="M226 687c-8 0-16-4-21-10L67 512c-2-4-4-8-5-11-1-5-1-10 0-14s3-8 5-11L480-19c4-4 9-7 14-9 5-1 11-1 16 0 5 2 10 6 13 9l412 495c3 4 5 9 6 13 1 2 1 5 1 7-1 6-3 11-7 16L798 677c-6 6-13 10-21 10zm13-55h49l32-110H147zm106 0h312l-32-110H378zm370 0h49l91-110H683zM147 467h189l102-349zm247 0h215L501 97zm273 0h188L565 118z" horiz-adv-x="1000"/><glyph glyph-name="shopping-kiosk" unicode="" d="M268 814" horiz-adv-x="1000"/><glyph glyph-name="shopping-laundrette" unicode="" d="M142 755c-10 0-18-8-18-18V-47c0-10 8-18 18-18h710c10 0 18 8 18 18v784c0 10-8 18-18 18zm420-74c19 0 35-16 35-35 0-18-16-34-35-34-18 0-34 16-34 34 0 19 16 35 34 35zm99 0c19 0 35-16 35-35 0-18-16-34-35-34s-34 16-34 34c0 19 15 35 34 35zm99 0c19 0 34-16 34-35 0-18-15-34-34-34s-34 16-34 34c0 19 15 35 34 35zM493 527c100 0 182-78 190-176 8-12 7-28-1-39-12-94-92-167-189-167-64 0-122 33-156 82-12-6-26 2-26 15v37c-5 18-8 37-8 57s3 39 8 57v29c0 9 8 17 17 17h5c34 52 93 88 160 88zm0-37c-70 0-129-46-148-110v-88c19-64 78-110 148-110 72 0 132 48 149 114h-26c-20 0-36 16-36 36s16 36 36 36h28c-14 70-76 122-151 122z" horiz-adv-x="1000"/><glyph glyph-name="shopping-marketplace" unicode="" d="M177 767" horiz-adv-x="1000"/><glyph glyph-name="shopping-mobile_phone" unicode="" d="M697 811c-8 0-15-5-16-13l-17-72-223 51c-1 0-1 1-2 1h-8c-19 0-35-13-40-32L225 21c-5-22 9-44 32-49l291-67c22-5 44 9 49 31l166 725c5 20-6 40-25 48l17 72c2 9-4 18-12 20l-43 10h-3zm-245-93c2 0 4 0 6-1l232-53c15-3 24-18 21-33l-71-309c-3-15-18-24-33-21l-232 53c-15 4-24 18-21 33l71 310c3 13 15 21 27 21zM346 299h4l40-10c9-2 15-10 13-19l-9-38c-2-9-11-14-20-12l-40 9c-9 2-14 10-12 19l8 39c2 6 7 11 13 12h3zm107-24c1 0 2-1 4-1l40-9c9-2 14-11 12-19l-8-39c-2-8-11-14-20-12l-40 10c-9 2-14 10-12 19l8 38c2 7 7 11 13 12 1 1 2 1 3 1zm107-25h3l41-10c9-2 14-10 12-19l-9-38c-2-9-10-14-19-12l-41 9c-8 2-14 11-12 19l9 39c2 6 7 11 13 12h3zm-238-58h3l41-10c9-2 14-10 12-19l-9-38c-2-9-10-14-19-12l-41 9c-8 2-14 11-12 19l9 39c2 6 7 11 13 12h3zm107-24c1 0 2 0 3-1l41-9c9-2 14-10 12-19l-9-39c-2-8-10-14-19-12l-41 10c-9 2-14 10-12 19l9 38c1 7 7 11 13 13h3zm107-25h3l41-9c8-2 14-11 12-20l-9-38c-2-9-11-14-19-12l-41 9c-9 2-14 11-12 19l9 39c1 6 6 11 12 12h4zM298 85h3l41-10c8-2 14-10 12-19l-9-38c-2-9-11-14-19-12l-41 9c-9 2-14 11-12 19l9 39c1 6 6 11 12 12h4zm106-24c1 0 3 0 4-1l40-9c9-2 14-10 12-19l-8-39c-2-8-11-14-20-12L392-9c-9 2-14 10-12 19l8 38c2 7 7 12 13 13h3zm107-25h3l41-9c9-2 14-11 12-20l-9-38c-2-9-10-14-19-12l-41 9c-8 2-14 11-12 19l9 39c2 6 7 11 13 12h3z" horiz-adv-x="1000"/><glyph glyph-name="shopping-music" unicode="" d="M746 779c-5 0-9 0-13-2" horiz-adv-x="1000"/><glyph glyph-name="shopping-motorcycle" unicode="" d="M448 797c-58 0-106-47-106-106 0-10 1-19 4-28h42c3-7 7-11 7-11 13-19 34-31 58-31 40 0 72 32 72 72 0 9 2 17-2 25h28c-12 45-54 79-103 79zm-77-166c-18 0-34-8-45-21L200 416c-6-8-8-18-8-29 0-20 10-37 25-48l170-94V85c0-23 18-42 41-42s41 19 41 42v200s5 32-31 49l-106 56 77 118 41-65c9-13 20-18 30-17h105c43 0 43 56 0 55h-85l-86 131c-11 12-26 19-43 19zm241-215c-10 0-17-8-17-18 0-9 7-17 17-17l48 1c8 0 17-6 20-14l70-141 34 11-74 148c-10 17-29 30-50 30h-48zm199-41c-20 0-39-6-62-13l18-36c20 16 38 21 52 21 21 0 32-5 51-13h3c5 0 9 4 9 9 0 3-1 5-2 6-21 20-38 26-69 26zm-147-34-160-46V65c17 0 33 8 44 20l156 178-40 78zm-552-5c-32 0-53-6-73-26-2-1-3-4-3-6 0-5 4-9 9-9h4c18 8 30 13 51 13 14 0 33-5 48-12l204-113-1 40-178 98c-25 13-45 15-61 15zm78-119c-84 0-152-68-152-152S106-87 190-87 341-19 341 65s-67 152-151 152zm627 0c-84 0-151-68-151-152S733-87 817-87 969-19 969 65s-68 152-152 152zm-627-47c58 0 105-47 105-105S248-41 190-41 84 7 84 65s48 105 106 105zm627 0c58 0 106-47 106-105S875-41 817-41 712 7 712 65s47 105 105 105z" horiz-adv-x="1000"/></font>
</defs>
</svg>
