<svg xmlns="http://www.w3.org/2000/svg" xmlns:xlink="http://www.w3.org/1999/xlink" version="1.1" id="Calque_1" x="0" y="0" xml:space="preserve" width="157.2" height="138.1"><style id="style1607">.st0{fill:#fff}</style><g id="g1861" transform="translate(-24.3 -24.3)"><g id="g1619"><defs id="defs1612"><path id="SVGID_1_" d="M24.3 24.3h157.2v138.1H24.3z"/></defs><clipPath id="SVGID_2_"><use xlink:href="#SVGID_1_" style="overflow:visible" id="use1614" x="0" y="0" width="100%" height="100%"/></clipPath><path d="M24.4 60.8H30c4 0 6.5 2.1 6.5 5.5 0 2.2-1.1 3.8-2.9 4.7l5.8 8.1H35l-5-7.4h-1.9v7.4h-3.7zm3.7 3.2v4.6h2.1c1.6 0 2.5-.8 2.5-2.3 0-1.4-.9-2.2-2.5-2.2z" clip-path="url('#SVGID_2_')" id="path1617" style="clip-path:url(#SVGID_2_)"/></g><g id="g1629"><defs id="defs1622"><path id="SVGID_3_" d="M24.3 24.3h157.2v138.1H24.3z"/></defs><clipPath id="SVGID_4_"><use xlink:href="#SVGID_3_" style="overflow:visible" id="use1624" x="0" y="0" width="100%" height="100%"/></clipPath><path d="M41.6 60.8h10.7V64h-7v4.2h5.9v3.2h-5.9V76h7v3.2H41.6Zm3.6-1.6 3-3.5H52l-3.4 3.5z" clip-path="url('#SVGID_4_')" id="path1627" style="clip-path:url(#SVGID_4_)"/></g><g id="g1639"><defs id="defs1632"><path id="SVGID_5_" d="M24.3 24.3h157.2v138.1H24.3z"/></defs><clipPath id="SVGID_6_"><use xlink:href="#SVGID_5_" style="overflow:visible" id="use1634" x="0" y="0" width="100%" height="100%"/></clipPath><path d="M56.6 60.8h6c4 0 6.5 2.1 6.5 5.5s-2.5 5.4-6.5 5.4h-2.3v7.4h-3.7zm3.7 3.2v4.6h2.5c1.6 0 2.5-.8 2.5-2.3 0-1.4-.9-2.2-2.5-2.2z" clip-path="url('#SVGID_6_')" id="path1637" style="clip-path:url(#SVGID_6_)"/></g><g id="g1649"><defs id="defs1642"><path id="SVGID_7_" d="M24.3 24.3h157.2v138.1H24.3z"/></defs><clipPath id="SVGID_8_"><use xlink:href="#SVGID_7_" style="overflow:visible" id="use1644" x="0" y="0" width="100%" height="100%"/></clipPath><path d="M83 60.8h3.7v11.1c0 4.8-2.8 7.7-7.4 7.7-4.6 0-7.4-2.9-7.4-7.7V60.8h3.7v11.5c0 2.5 1.4 3.9 3.7 3.9 2.3 0 3.7-1.4 3.7-3.9z" clip-path="url('#SVGID_8_')" id="path1647" style="clip-path:url(#SVGID_8_)"/></g><g id="g1659"><defs id="defs1652"><path id="SVGID_9_" d="M24.3 24.3h157.2v138.1H24.3z"/></defs><clipPath id="SVGID_10_"><use xlink:href="#SVGID_9_" style="overflow:visible" id="use1654" x="0" y="0" width="100%" height="100%"/></clipPath><path d="M91.3 60.8h5.2c3.8 0 6.1 1.9 6.1 5 0 1.5-.7 2.7-1.9 3.6 1.9.9 3 2.4 3 4.3 0 3.3-2.6 5.4-6.8 5.4h-5.6V60.8zm3.8 3.2v4h1.6c1.4 0 2.2-.7 2.2-2 0-1.2-.8-2-2.2-2zm0 7.2V76h2.1c1.7 0 2.8-.9 2.8-2.4s-1-2.4-2.8-2.4z" clip-path="url('#SVGID_10_')" id="path1657" style="clip-path:url(#SVGID_10_)"/></g><g id="g1669"><defs id="defs1662"><path id="SVGID_11_" d="M24.3 24.3h157.2v138.1H24.3z"/></defs><clipPath id="SVGID_12_"><use xlink:href="#SVGID_11_" style="overflow:visible" id="use1664" x="0" y="0" width="100%" height="100%"/></clipPath><path clip-path="url('#SVGID_12_')" id="polygon1667" style="clip-path:url(#SVGID_12_)" d="M118.2 79.1h-10.7V60.8h3.7v14.9h7z"/></g><g id="g1679"><defs id="defs1672"><path id="SVGID_13_" d="M24.3 24.3h157.2v138.1H24.3z"/></defs><clipPath id="SVGID_14_"><use xlink:href="#SVGID_13_" style="overflow:visible" id="use1674" x="0" y="0" width="100%" height="100%"/></clipPath><path clip-path="url('#SVGID_14_')" id="rect1677" style="clip-path:url(#SVGID_14_)" d="M121.5 60.8h3.7v18.3h-3.7z"/></g><g id="g1689"><defs id="defs1682"><path id="SVGID_15_" d="M24.3 24.3h157.2v138.1H24.3z"/></defs><clipPath id="SVGID_16_"><use xlink:href="#SVGID_15_" style="overflow:visible" id="use1684" x="0" y="0" width="100%" height="100%"/></clipPath><path d="M149.5 80.4c.4 0 .9-.1 1.3-.2v3.1c-.6.2-1.1.3-1.9.3-2 0-3.9-.8-5.7-2.4l-2.2-1.9c-.8.2-1.6.3-2.5.3-5.8 0-9.7-4.4-9.7-9.7 0-5.2 4-9.7 9.7-9.7 5.8 0 9.7 4.4 9.7 9.7 0 3.1-1.4 5.9-3.6 7.6l1.1 1c1.4 1.4 2.7 1.9 3.8 1.9M144.4 70c0-3.5-2.5-6.2-5.9-6.2-3.5 0-5.9 2.7-5.9 6.2s2.5 6.2 5.9 6.2c3.4 0 5.9-2.7 5.9-6.2" clip-path="url('#SVGID_16_')" id="path1687" style="clip-path:url(#SVGID_16_)"/></g><g id="g1699"><defs id="defs1692"><path id="SVGID_17_" d="M24.3 24.3h157.2v138.1H24.3z"/></defs><clipPath id="SVGID_18_"><use xlink:href="#SVGID_17_" style="overflow:visible" id="use1694" x="0" y="0" width="100%" height="100%"/></clipPath><path d="M162.6 60.8h3.7v11.1c0 4.8-2.8 7.7-7.4 7.7-4.6 0-7.4-2.9-7.4-7.7V60.8h3.7v11.5c0 2.5 1.4 3.9 3.7 3.9 2.3 0 3.7-1.4 3.7-3.9z" clip-path="url('#SVGID_18_')" id="path1697" style="clip-path:url(#SVGID_18_)"/></g><g id="g1709"><defs id="defs1702"><path id="SVGID_19_" d="M24.3 24.3h157.2v138.1H24.3z"/></defs><clipPath id="SVGID_20_"><use xlink:href="#SVGID_19_" style="overflow:visible" id="use1704" x="0" y="0" width="100%" height="100%"/></clipPath><path clip-path="url('#SVGID_20_')" id="polygon1707" style="clip-path:url(#SVGID_20_)" d="M174.6 68.2h5.9v3.2h-5.9v4.5h7v3.2h-10.7V60.8h10.7V64h-7z"/></g><g id="g1719"><defs id="defs1712"><path id="SVGID_21_" d="M24.3 24.3h157.2v138.1H24.3z"/></defs><clipPath id="SVGID_22_"><use xlink:href="#SVGID_21_" style="overflow:visible" id="use1714" x="0" y="0" width="100%" height="100%"/></clipPath><path clip-path="url('#SVGID_22_')" id="polygon1717" style="clip-path:url(#SVGID_22_)" d="M28.1 94.6H34v3.2h-5.9v7.7h-3.7V87.2h10.7v3.2h-7z"/></g><g id="g1729"><defs id="defs1722"><path id="SVGID_23_" d="M24.3 24.3h157.2v138.1H24.3z"/></defs><clipPath id="SVGID_24_"><use xlink:href="#SVGID_23_" style="overflow:visible" id="use1724" x="0" y="0" width="100%" height="100%"/></clipPath><path d="M38.3 87.2h5.6c4 0 6.5 2.1 6.5 5.5 0 2.2-1.1 3.8-2.9 4.7l5.8 8.1h-4.4L44 98.1h-2v7.4h-3.7Zm3.7 3.2V95h2.1c1.6 0 2.5-.8 2.5-2.3 0-1.4-.9-2.2-2.5-2.2z" clip-path="url('#SVGID_24_')" id="path1727" style="clip-path:url(#SVGID_24_)"/></g><g id="g1739"><defs id="defs1732"><path id="SVGID_25_" d="M24.3 24.3h157.2v138.1H24.3z"/></defs><clipPath id="SVGID_26_"><use xlink:href="#SVGID_25_" style="overflow:visible" id="use1734" x="0" y="0" width="100%" height="100%"/></clipPath><path d="M61 87.2h4.9l6.9 18.3h-3.9l-1.8-4.8h-7.3l-1.8 4.8h-3.9zm4.9 10.4-2.5-6.9-2.5 6.9z" clip-path="url('#SVGID_26_')" id="path1737" style="clip-path:url(#SVGID_26_)"/></g><g id="g1749"><defs id="defs1742"><path id="SVGID_27_" d="M24.3 24.3h157.2v138.1H24.3z"/></defs><clipPath id="SVGID_28_"><use xlink:href="#SVGID_27_" style="overflow:visible" id="use1744" x="0" y="0" width="100%" height="100%"/></clipPath><path clip-path="url('#SVGID_28_')" id="polygon1747" style="clip-path:url(#SVGID_28_)" d="M92.3 87.2v18.3h-4.8l-8.2-13.1v13.1h-3.7V87.2h4.8l8.2 13.1V87.2z"/></g><g id="g1759"><defs id="defs1752"><path id="SVGID_29_" d="M24.3 24.3h157.2v138.1H24.3z"/></defs><clipPath id="SVGID_30_"><use xlink:href="#SVGID_29_" style="overflow:visible" id="use1754" x="0" y="0" width="100%" height="100%"/></clipPath><path d="m110.4 100.1 2.9 2.2c-1.4 1.9-3.6 3.3-6.3 3.6l-2.3 3.8h-3.3l2.3-3.8c-4.8-.8-7.9-4.9-7.9-9.5 0-5.2 4-9.7 9.7-9.7 3.3 0 6 1.5 7.7 3.7l-2.9 2.3c-1-1.5-2.7-2.5-4.8-2.5-3.5 0-5.9 2.7-5.9 6.2s2.5 6.2 5.9 6.2c2.2 0 3.8-1.1 4.9-2.5" clip-path="url('#SVGID_30_')" id="path1757" style="clip-path:url(#SVGID_30_)"/></g><g id="g1769"><defs id="defs1762"><path id="SVGID_31_" d="M24.3 24.3h157.2v138.1H24.3z"/></defs><clipPath id="SVGID_32_"><use xlink:href="#SVGID_31_" style="overflow:visible" id="use1764" x="0" y="0" width="100%" height="100%"/></clipPath><path d="M121 87.2h4.9l6.9 18.3h-4l-1.8-4.8h-7.3l-1.8 4.8H114Zm5 10.4-2.5-6.9-2.5 6.9z" clip-path="url('#SVGID_32_')" id="path1767" style="clip-path:url(#SVGID_32_)"/></g><g id="g1779"><defs id="defs1772"><path id="SVGID_33_" d="M24.3 24.3h157.2v138.1H24.3z"/></defs><clipPath id="SVGID_34_"><use xlink:href="#SVGID_33_" style="overflow:visible" id="use1774" x="0" y="0" width="100%" height="100%"/></clipPath><path clip-path="url('#SVGID_34_')" id="rect1777" style="clip-path:url(#SVGID_34_)" d="M135.6 87.2h3.7v18.3h-3.7z"/></g><g id="g1789"><defs id="defs1782"><path id="SVGID_35_" d="M24.3 24.3h157.2v138.1H24.3z"/></defs><clipPath id="SVGID_36_"><use xlink:href="#SVGID_35_" style="overflow:visible" id="use1784" x="0" y="0" width="100%" height="100%"/></clipPath><path d="M145.5 100.5c1.1 1.4 2.6 2.2 4.1 2.2 1.5 0 2.4-.8 2.4-2.1 0-3.3-8.4-2.5-8.4-8.6 0-2.9 2.4-5.3 5.9-5.3 2.7 0 4.9 1.2 6.4 3.1l-2.7 2.4c-1.1-1.4-2.3-2.3-3.7-2.3-1.3 0-2.1.8-2.1 1.9 0 3.3 8.4 2.5 8.4 8.7-.1 3.4-2.7 5.5-6.1 5.5-3.1 0-5.2-1.1-6.8-3.1z" clip-path="url('#SVGID_36_')" id="path1787" style="clip-path:url(#SVGID_36_)"/></g><g id="g1799"><defs id="defs1792"><path id="SVGID_37_" d="M24.3 24.3h157.2v138.1H24.3z"/></defs><clipPath id="SVGID_38_"><use xlink:href="#SVGID_37_" style="overflow:visible" id="use1794" x="0" y="0" width="100%" height="100%"/></clipPath><path clip-path="url('#SVGID_38_')" id="polygon1797" style="clip-path:url(#SVGID_38_)" d="M163.3 94.6h5.9v3.2h-5.9v4.6h7v3.1h-10.7V87.2h10.7v3.2h-7z"/></g><g id="g1809"><defs id="defs1802"><path id="SVGID_39_" d="M24.3 24.3h157.2v138.1H24.3z"/></defs><clipPath id="SVGID_40_"><use xlink:href="#SVGID_39_" style="overflow:visible" id="use1804" x="0" y="0" width="100%" height="100%"/></clipPath><path d="M84 156.1c.5 0 .9.4.7 1.3l-2.3.5c.4-1 1-1.8 1.6-1.8m1.3 3.7h-.5c-.6.7-1.2 1.2-1.8 1.2-.6 0-1-.4-1-1.2 0-.3 0-.7.1-1l3.7-1.2c.7-1.7-.1-2.5-1.2-2.5-1.8 0-3.8 2.9-3.8 5.5 0 1.2.6 1.8 1.4 1.8 1.1 0 2.2-1 3.1-2.6m-.8-5.4 2.6-2.4v-.3h-1.4l-1.6 2.7zm-8 1.7h1.2l-2 5.4c-.2.5.1.9.5.9 1.1 0 2.9-1.1 3.5-2.6h-.3c-.5.5-1.5 1.2-2.3 1.4l1.8-5h1.8l.2-.8h-1.8l.7-1.9h-.7l-1.3 1.9-1.5.2v.5zm-1.7-.2c.1-.5-.2-.8-.4-.8-1.1 0-2.3 1-2.9 2.3h.3c.3-.5.9-1 1.5-1.1l-2.1 5.3c-.2.5.2.8.4.8 1 0 2.2-1 2.7-2.3H74c-.3.5-.9 1-1.5 1.1zm.4-2.7c.5 0 .9-.4.9-.9s-.4-.9-.9-.9-.9.4-.9.9.4.9.9.9m-11.8 8.2c-.3.6 0 1 .6 1 .4 0 .5-.1.7-.5l1.4-3.8c.7-.8 2-1.7 2.6-1.7.4 0 .3.3.1.8l-2.2 4.2c-.2.4.1.9.5.9 1.1 0 2.4-1 2.9-2.3h-.3c-.3.5-.9 1-1.5 1.1l1.9-3.8c.2-.5.4-.9.4-1.3 0-.6-.3-1-1-1-.9 0-1.9 1-3 2.3v-1c0-.7-.2-1.3-.9-1.3-.4 0-.8.3-1.2.8v.1c.7 0 1 1 .5 2.1zm-.1-4.7c.3-.9.1-1.6-.6-1.6-.8 0-1 .6-1.8 2.3v-1c0-.7-.2-1.3-.9-1.3-.8 0-1.4 1.2-2 2.3h.3c.4-.5.7-.8 1-.8.3 0 .5.5 0 1.6l-1.5 3.2c-.3.6 0 1 .6 1 .4 0 .5-.1.7-.5l1.4-3.8c.4-.5.8-.9 1.2-1.4zm-8.2-.6c.5 0 .9.4.7 1.3l-2.3.5c.4-1 1.1-1.8 1.6-1.8m1.3 3.7h-.5c-.6.7-1.2 1.2-1.8 1.2-.6 0-1-.4-1-1.2 0-.3 0-.7.1-1l3.7-1.2c.7-1.7-.1-2.5-1.2-2.5-1.8 0-3.8 2.9-3.8 5.5 0 1.2.6 1.8 1.4 1.8 1.2 0 2.2-1 3.1-2.6m-8.8-3.7h1.2l-2 5.4c-.2.5.1.9.5.9 1.1 0 2.9-1.1 3.5-2.6h-.3c-.5.5-1.5 1.2-2.3 1.4l1.8-5h2l.2-.8h-1.8l.7-1.9h-.7l-1.3 1.9-1.5.2v.5zm-6.8 4.2c0-1.7 1.8-3.9 2.9-3.9.2 0 .4 0 .6.1l-1.1 2.9c-.6.8-1.6 1.7-2 1.7-.2-.1-.4-.3-.4-.8m5.7-5.5h-.6l-.6.6h-.1c-3.1 0-5.7 3.4-5.7 5.9 0 .7.4 1.1 1.1 1.1.8 0 1.6-1.1 2.4-2.3v.4c-.1 1.2.3 1.9.9 1.9.8 0 1.4-1.2 2-2.3h-.3c-.4.5-.7.8-1 .8-.3 0-.5-.5 0-1.6zm-6.6 1.9c.3-.9.1-1.6-.6-1.6-.8 0-1 .6-1.8 2.3v-1c0-.7-.2-1.3-.9-1.3-.8 0-1.4 1.2-2 2.3h.3c.4-.5.7-.8 1-.8.3 0 .5.5 0 1.6l-1.5 3.2c-.3.6 0 1 .6 1 .4 0 .5-.1.7-.5l1.4-3.8c.4-.5.8-.9 1.2-1.4zm-10.2 5.4.1-.4c-1.8-.3-2-.3-1.3-2.3l.7-2h2c.9 0 .9.4.8 1.3h.5l1.2-3.2h-.5c-.4.8-.8 1.3-1.8 1.3h-1.9l1-2.8c.3-.9.5-1.1 1.7-1.1h.8c1.2 0 1.4.3 1.4 1.6h.5l.4-2.2h-7.4l-.1.4c1.4.3 1.6.4.9 2.3l-1.6 4.4c-.7 1.8-1 2-2.6 2.3l-.1.4z" clip-path="url('#SVGID_40_')" id="path1807" style="clip-path:url(#SVGID_40_)"/></g><g id="g1819"><defs id="defs1812"><path id="SVGID_41_" d="M24.3 24.3h157.2v138.1H24.3z"/></defs><clipPath id="SVGID_42_"><use xlink:href="#SVGID_41_" style="overflow:visible" id="use1814" x="0" y="0" width="100%" height="100%"/></clipPath><path d="M66 139.3c.5 0 .9.4.7 1.3l-2.3.5c.4-1 1.1-1.8 1.6-1.8m1.3 3.7h-.5c-.6.7-1.2 1.2-1.8 1.2-.6 0-1-.4-1-1.2 0-.3 0-.7.1-1l3.7-1.2c.7-1.7-.1-2.5-1.2-2.5-1.8 0-3.8 2.9-3.8 5.5 0 1.2.6 1.8 1.4 1.8 1.2 0 2.2-1 3.1-2.6m-.8-5.4 2.6-2.4v-.3h-1.4l-1.6 2.7zm-8 1.7h1.2l-2 5.4c-.2.5.1.9.5.9 1.1 0 2.9-1.1 3.5-2.6h-.3c-.5.5-1.5 1.2-2.3 1.4l1.8-5h1.8l.2-.8h-1.8l.7-1.9h-.7l-1.3 1.9-1.5.2v.5zm-1.7-.2c.1-.5-.2-.8-.4-.8-1.1 0-2.3 1-2.9 2.3h.3c.3-.5.9-1 1.5-1.1l-2.1 5.3c-.2.5.2.8.4.8 1 0 2.2-1 2.7-2.3H56c-.3.5-.9 1-1.5 1.1zm.4-2.7c.5 0 .9-.4.9-.9s-.4-.9-.9-.9-.9.4-.9.9.4.9.9.9m-7.1 8 3.7-9.8-.1-.1-2.3.3v.3l.5.3c.4.3.3.6-.1 1.6l-2.9 7.7c-.2.4.1.9.5.9 1.1 0 2.2-1 2.7-2.3h-.3c-.5.5-1.2 1-1.7 1.1m-7.1-.9c0-1.7 1.8-3.9 2.9-3.9.2 0 .4 0 .6.1l-1.1 2.9c-.6.8-1.6 1.7-2 1.7-.3-.1-.4-.3-.4-.8m5.6-5.5H48l-.6.6h-.1c-3.1 0-5.7 3.4-5.7 5.9 0 .7.4 1.1 1.1 1.1.8 0 1.6-1.1 2.4-2.3v.4c-.1 1.2.3 1.9.9 1.9.8 0 1.4-1.2 2-2.3h-.3c-.4.5-.7.8-1 .8-.3 0-.5-.5 0-1.6zm-13.7 8.9c0-.7.7-1.2 1.7-1.5.3.2.8.3 1.4.6 1 .3 1.4.5 1.4.8 0 .7-1.1 1.2-2.6 1.2-1.2-.1-1.9-.4-1.9-1.1m2.8-4.3c-.4 0-.6-.4-.6-.8 0-1.2.6-3 1.7-3 .4 0 .6.4.6.8 0 1.2-.7 3-1.7 3m2.9 3.7c0-.9-.8-1.2-2-1.5-1.1-.3-1.6-.4-1.6-.8 0-.3.2-.6.7-.9 1.8-.1 2.9-1.7 2.9-3 0-.3-.1-.5-.1-.7H42l.2-.8h-2.4c-.3-.2-.6-.3-1-.3-1.9 0-3.1 1.6-3.1 3 0 1 .6 1.6 1.4 1.8-.9.4-1.4.8-1.4 1.4 0 .3.1.5.4.7-2 .6-2.8 1.3-2.8 2.2 0 .9 1.2 1.3 2.7 1.3 2.6 0 4.6-1.3 4.6-2.4m-9.4-5.8c.9 0 .9.4.8 1.3h.5l1.2-3.2h-.5c-.4.8-.8 1.3-1.8 1.3h-1.9l1-2.7c.3-.9.5-1.1 1.7-1.1h.8c1.2 0 1.4.3 1.4 1.6h.5l.4-2.2h-7.4l-.1.4c1.4.3 1.6.4.9 2.3l-1.6 4.4c-.7 1.8-1 2-2.6 2.3l-.1.4h8.2l1.5-2.3h-.6c-.9.9-2.1 1.7-3.8 1.7-2.2 0-2-.1-1.3-2.1l.8-2.1zm1.1-5.6 2.6-1.8v-.3h-1.6l-1.4 2.1z" clip-path="url('#SVGID_42_')" id="path1817" style="clip-path:url(#SVGID_42_)"/></g><g id="g1829"><defs id="defs1822"><path id="SVGID_43_" d="M24.3 24.3h157.2v138.1H24.3z"/></defs><clipPath id="SVGID_44_"><use xlink:href="#SVGID_43_" style="overflow:visible" id="use1824" x="0" y="0" width="100%" height="100%"/></clipPath><path d="M65.1 122.5c.5 0 .9.4.7 1.3l-2.3.5c.4-1 1.1-1.8 1.6-1.8m1.3 3.7h-.5c-.6.7-1.2 1.2-1.8 1.2-.6 0-1-.4-1-1.2 0-.4 0-.7.1-1L67 124c.7-1.7-.1-2.5-1.2-2.5-1.8 0-3.8 2.9-3.8 5.5 0 1.2.6 1.8 1.4 1.8 1.1 0 2.1-.9 3-2.6m-.7-5.4 2.6-2.4v-.3h-1.4l-1.6 2.7h.4zm-7.7 1.8h1l-2 5.4c-.2.5.1.9.5.9 1.1 0 2.9-1.1 3.5-2.6h-.3c-.5.5-1.4 1.2-2.3 1.4l1.8-5H62l.2-.8h-1.8l.7-1.9h-.7l-1.3 1.9-1.1.1zm-1 .6c.3-.9.1-1.6-.6-1.6-.8 0-1 .6-1.8 2.3v-1c0-.7-.2-1.3-.9-1.3-.8 0-1.4 1.2-2 2.3h.3c.4-.5.7-.8 1-.8.3 0 .5.5 0 1.6l-1.4 3.2c-.3.6 0 1 .6 1 .4 0 .5-.1.7-.5l1.4-3.8c.4-.5.8-.9 1.2-1.4H57zm-8.2-.7c.5 0 .9.4.7 1.3l-2.3.5c.3-1 1-1.8 1.6-1.8m1.2 3.7h-.5c-.6.7-1.2 1.2-1.8 1.2-.6 0-1-.4-1-1.2 0-.4 0-.7.1-1l3.7-1.2c.7-1.7-.1-2.5-1.2-2.5-1.8 0-3.8 2.9-3.8 5.5 0 1.2.6 1.8 1.4 1.8 1.2 0 2.3-.9 3.1-2.6m-9.1 1.5c-.4 0-.9-.3-.9-.6 0-.1.2-.5.4-1l.6-1.6c.6-.8 1.6-1.6 2.2-1.6.3 0 .6.2.6.7 0 1.5-1.4 4.1-2.9 4.1m4.2-4.7c0-1.1-.4-1.5-1.2-1.5-.9 0-1.8 1-2.7 2.2l2.2-5.9-.1-.1-2.3.3v.3l.5.3c.4.3.3.7-.1 1.6l-2.4 6.2c-.2.5-.4 1-.4 1.1 0 .6.9 1.2 1.7 1.2 1.8.1 4.8-3.2 4.8-5.7m-7.3-.7c.1-.5-.2-.8-.4-.8-1.1 0-2.3 1-2.9 2.3h.3c.3-.5.9-1 1.5-1.1l-2.1 5.3c-.2.5.2.8.4.8 1 0 2.2-1 2.7-2.3H37c-.3.5-.9 1-1.5 1.1zm.4-2.7c.5 0 .9-.4.9-.9s-.4-.9-.9-.9-.9.4-.9.9.4.9.9.9m-5.4-.8h-4.9l-.1.4c1.4.3 1.6.4.9 2.3l-1.6 4.4c-.7 1.8-1 2-2.6 2.3l-.1.4h7.4l1.6-2.9h-.6c-.9 1-2 2.3-3.6 2.3-1.2 0-1.4-.2-.7-2.1l1.6-4.4c.7-1.8 1-2 2.6-2.3z" clip-path="url('#SVGID_44_')" id="path1827" style="clip-path:url(#SVGID_44_)"/></g><g id="g1839"><defs id="defs1832"><path id="SVGID_45_" d="M24.3 24.3h157.2v138.1H24.3z"/></defs><clipPath id="SVGID_46_"><use xlink:href="#SVGID_45_" style="overflow:visible" id="use1834" x="0" y="0" width="100%" height="100%"/></clipPath><path d="m52 45.8.8-.8c.5-.6 1-1.1 1.5-1.6.2-.2.3-.3.5-.4 0 0 0-.1.1-.2-.2.1-.4.3-.6.4 0 0-.1 0 0-.1.2-.1.3-.2.5-.4v-.1c-.6-.1-1.1.3-1.5.7h-.2c-.7.2-1.2.8-1.9 1.1v-.1c-.3.1-.5.3-.8.3-.4.1-.8 0-1.1 0-.6.1-1.1.2-1.7.3l-.9.3s0 .1-.1.1l-.3.3c-.3.1-.5.4-.8.6h-.1l-.7.7h-.1c0-.1.1-.1.1-.2s.1-.1.1-.2c.1-.1.1-.2.2-.3v-.1h-.1c.2-.2.5-.4.8-.6h-.1l.1-.1c-.1 0-.2.1-.2.2-.1.1-.2.3-.4.3H45v-.1s0-.1.1-.1v-.2l.3-.3c.2-.1.4-.2.5-.3 0 0 .1 0 .1-.1-.3.1-.5.2-.7.4h-.2c0-.1.2-.1.3-.2h.1c1.5-1.1 3.5-.9 5.2-1.5.1-.1.3-.2.4-.3.2-.1.4-.3.7-.5.4-.3.6-.6.8-1.1v-.1c-.6.6-1.3 1.1-2 1.5-1 .5-2 .4-3 .6 0-.1.1-.1.2-.1 0-.1.1-.2.2-.3 0 0 0-.1.1-.1h.2c-.1-.2-.4.1-.6 0 .1-.1 0-.2.1-.3h.2c0-.1.1-.2.1-.2.7-.4 1.3-.7 2-1.1-.1 0-.2.1-.4 0 .1 0 0-.1.1-.1.5-.1.9-.4 1.4-.6-.2 0-.3.1-.5 0 .1 0 .1-.1.3-.1v-.1h.1-.1c0-.1.2 0 .3-.1h-.1c.1-.2.4-.2.6-.3 0-.1-.2 0-.2-.1h.1-.1c-.1 0 0-.1 0-.2.3-.3.3-.7.4-1.1h-.1c-.5.5-1.2.7-1.9.9h-.2c-.2.1-.6.1-.8 0-.2-.1-.3-.2-.5-.4-.4-.2-.7-.4-1.1-.6-1.1-.4-2.3-.6-3.5-.5.5-.3 1.1-.3 1.6-.5.8-.2 1.5-.5 2.3-.5h-.5c-.6 0-1.3.1-2 .3-.5.1-.9.3-1.3.4-.3.1-.4.4-.7.3v-.1c.5-.6 1-1.1 1.7-1.1.8-.1 1.6 0 2.4.1.6 0 1.1.2 1.7.3.2 0 .3.4.5.4.3.1.6 0 .8.2v-.3c.2-.2.4 0 .6 0 .4-.2-.3-.6-.5-1v-.1c.4.3.6.7 1.1.9.2.1.8.2.7 0-.2-.5-.7-.9-1.1-1.4v-.2c-.1 0-.1 0-.1-.1v-.2c-.2-.1-.1-.3-.2-.4-.1-.2 0-.6-.1-.8-.1-.3-.1-.5-.2-.8-.1-.8-.3-1.5-.4-2.2-.1-.9.5-1.6.9-2.3.3-.6.7-1.1 1.3-1.5.1-.6.5-1 .9-1.5.4-.4 1-.7 1.4-.9.6-.3 1.2-.5 1.2-.5H24.3V49h22.3c.9-.6 1.7-.9 3-1.5.6-.7 1.9-1.3 2.4-1.7m-7.1-3.3h-.2c0-.2.4-.2.6-.3.1 0 .2-.1.3-.1.1.1.2.1.3.2-.3.2-.7 0-1 .2m-7-1s-.1-.1 0 0c.6-.9 1-1.6 1.4-2.4.6-.3 1.1-.8 1.6-1.3.8-.8 1.6-1.6 2.6-2 .4-.1.8-.1 1.2 0-.1.2-.4.1-.6.3H44V36c-.5.5-1.1.7-1.5 1.3-.3.5-.5 1.1-1.1 1.2-.2 0 0-.1 0-.1-1.4.8-2.4 1.8-3.5 3.1m3.8-3.1c0 .1-.1.1-.1.2s-.1.1-.2.2h-.1c0-.2.2-.4.4-.4 0-.1 0 0 0 0m2.1 6.9c0 .1-.1.1 0 0v.2c-.1.1-.2.2-.3.2h-.1l-.2.2c-.1 0-.3 0-.2-.1l.3-.3.2-.2.1-.1c0 .1.3 0 .2.1m-.8-.4c-.2.1-.4.3-.5.4l-.6.3h-.1c-.2.1-.3.2-.5.4l-.1.1-.1.1-.1.1-.1.1H40.6c-.1 0-.1.1-.2.1l-.3.3v-.1c0-.1.1-.1.1-.2v-.1l.1-.1c.1-.1.1-.1.1-.2 0 0 0-.1.1-.1 0 0 0-.1.1-.1V45.6c.1-.1.1-.2.2-.2-.1 0-.1.1-.2.1 0 0-.1 0-.1-.1l.1-.1c.1-.1.1-.2.2-.2s.1-.1.1-.1l.1-.1c.4-.4 1.2-.4 1.8-.7.2-.1.5 0 .7 0 .1 0 .3 0 .4.1-.1.1-.5.4-.9.6m.9-3.2s.1 0 .2-.1h-.4v-.1c-.2 0-.5.1-.7.2-.3.1-.6.3-1 .4-.5.2-.9.6-1.5.8v-.1c0-.1.2-.2.3-.3v-.1c.4-.5.9-.8 1.3-1.2v-.1c.1-.2.4-.3.5-.5 0-.1.2-.3.5-.4 0 0-.1 0-.1-.1-.2 0-.4.1-.6 0 .1-.1.2-.1.3-.2 0 0-.1 0-.1-.1s.1-.2.2-.2c.2 0 .4 0 .6-.2-.3 0-.7.1-1-.1.2-.6.6-1.1 1.2-1.4h.1c0 .2-.1.4-.4.5.4.1.7.1 1.1.3 0 .1-.1 0-.2 0 .2.1.5 0 .7.2-.1.1-.3 0-.4 0 1.4.4 2.9.7 4.1 1.7-1 .5-2.1.7-3.2 1H45v.1c-.2 0-.3 0-.5.1-.2 0-.4.1-.6-.1" clip-path="url('#SVGID_46_')" id="path1837" style="fill:#273375;clip-path:url(#SVGID_46_)"/></g><g id="g1849"><defs id="defs1842"><path id="SVGID_47_" d="M24.3 24.3h157.2v138.1H24.3z"/></defs><clipPath id="SVGID_48_"><use xlink:href="#SVGID_47_" style="overflow:visible" id="use1844" x="0" y="0" width="100%" height="100%"/></clipPath><path d="M91.2 24.3H65l.2.1c.2.1.5.3.7.4.3.2.7.4.9.7.1.1.2.4.1.6-.1.2-.1.6-.4.7-.3.1-.6.1-1 .1-.2 0-.4 0-.6-.1.7.3 1.3.6 1.8 1.2 0 .1.2.1.4.1v.1c-.1.1-.2.1-.1.3h.1c.2-.1.2-.6.5-.4.2.1.3.5.2.7-.2.2-.4.3-.6.5v.3c.1.2.2.4.2.6.1.3.2.7.3 1 .2.7.4 1.4.3 2.1 0 .4-.2.7 0 1.1.1.4.3.6.5 1 .2.3.4.5.5.7.3.5.8.9.6 1.5-.1.3-.6.3-1 .5-.3.2 0 .6.1.8.2.4-.3.7-.6.8.1.1.3.1.3.2 0 .2.3.4.1.6-.2.3-.7.4-.5.8.2.3.1.7 0 1-.1.4-.5.6-.8.7-.3.1-.6.1-.9 0-.1 0-.2-.1-.3-.1-.8-.1-1.6-.3-2.3-.3-.2 0-.5.1-.6.2-.2.2-.4.3-.6.5l-.1.1-.1.1c-.1.2-.3.3-.4.5v.1c-.2.3-.3.6-.3.8-.3 1.1-.2 2 0 2.2.1.1 1.5.5 2.5 1 .5.2.8.4 1.1.5h25.7V24.3Z" clip-path="url('#SVGID_48_')" id="path1847" style="fill:#e30613;clip-path:url(#SVGID_48_)"/></g><g id="g1859"><defs id="defs1852"><path id="SVGID_49_" d="M24.3 24.3h157.2v138.1H24.3z"/></defs><clipPath id="SVGID_50_"><use xlink:href="#SVGID_49_" style="overflow:visible" id="use1854" x="0" y="0" width="100%" height="100%"/></clipPath><path d="M66.6 33.2c.2 0 .5 0 .5.1-.1.4-.6.5-.9.8H66c-.1.1-.1.3-.2.3h-.4c.2.2.4.3.7.3 0 0 .1.1.1.2h.2v.2c-.1.2-.4.1-.6.1.4.1.7.1 1.1 0 .3-.1 0-.6.2-.8-.1 0 0-.1-.1-.1l.3-.3c.1 0 .2 0 .3-.1 0-.1-.2-.1-.1-.2.3-.2.5-.5.4-.7 0-.1-.4-.1-.6-.2-.2-.1-.5 0-.8 0-.2 0-.5.1-.7.2-.3.1-.6.3-.9.5.3-.1.6-.2 1-.3.2 0 .4-.1.7 0" clip-path="url('#SVGID_50_')" id="path1857" style="fill:#9d9d9c;clip-path:url(#SVGID_50_)"/></g></g></svg>