<svg xmlns="http://www.w3.org/2000/svg"><defs><font id="tools" horiz-adv-x="1000"><font-face font-family="tools" font-weight="400" ascent="850" descent="-150"/><glyph glyph-name="poi" unicode="" d="M500 775c-169 0-305-140-308-309 0-93 50-190 108-287 41-68 86-143 121-207 32-62 118-62 150 0 36 74 77 135 122 207 9 15 20 30 29 45 49 82 87 161 86 242 0 169-139 309-308 309zm0-187c67 0 124-51 122-122-3-71-58-123-122-122s-122 54-122 122 54 122 122 122z" horiz-adv-x="1000"/><glyph glyph-name="select" unicode="" d="M208 821a21 21 0 0 1-19-23l90-669a21 21 0 0 1 35-12l116 120 159-346a21 21 0 0 1 29-10L801-13a21 21 0 0 1 7 30L587 327l162 41a21 21 0 0 1 8 36L222 817a21 21 0 0 1-14 4z" horiz-adv-x="1000"/><glyph glyph-name="snap" unicode="" d="M305 774c-70 0-139-26-192-79C8 590 8 417 113 312c43-42 86-86 130-129 29-29 57-58 86-87l15-14 29-30 147 148-29 29-101 101-130 130c-25 25-25 62 0 88 26 26 63 26 89 0l129-130 101-101 30-29 147 147-29 30-101 101-130 129c-52 53-122 79-191 79zm0-41c58 0 117-23 162-67l129-130-88-88-130 130c-41 40-106 40-147 0-41-41-41-107 0-148 43-42 86-86 130-130l-89-88c-43 44-87 87-129 130h-1c-88 89-88 235 0 324 45 44 104 67 163 67zm594-356c-37 0-67-30-67-67 0-24 14-46 34-57-11-78-22-157-34-234-14 0-27-4-38-12L683 85c1 5 2 10 2 15 0 37-30 67-66 67-37 0-67-30-67-67 0-36 30-66 67-66 16 0 31 6 42 16l108-77c-2-7-3-13-3-20 0-37 30-66 66-66 37 0 67 29 67 66 0 21-11 40-26 52l34 240c33 4 58 32 58 65 0 37-30 67-66 67z" horiz-adv-x="1000"/><glyph glyph-name="vectorlayer" unicode="" d="M509 712c-116 0-210-95-212-211 1-64 35-131 74-197h-95a40 40 0 0 1-28-12L12 55a40 40 0 0 1 28-67h920a40 40 0 0 1 28 68L744 292a40 40 0 0 1-28 11h-75c6 11 13 21 20 32 34 56 60 110 59 166 0 116-95 211-211 211zm0-128c46 0 85-35 83-84-1-48-40-84-84-83s-83 37-83 84c0 46 37 83 84 83zM293 224h126c12-21 25-42 36-63 21-42 80-42 102 0 10 22 22 43 34 63h109L862 67H135l158 157z" horiz-adv-x="1000"/><glyph glyph-name="arrow" unicode="" d="M211 791c-10-6-16-17-16-29l-10-562c-1-33 37-50 61-28l120 113L526-75c11-26 46-31 63-8 65 74 89 96 194 112 28 4 42 36 25 59L576 406l158 48c31 10 35 51 7 67L249 793c-12 7-27 6-38-2zm56-91 364-201-126-39c-25-7-34-36-19-57L711 95c-79-19-91-32-142-82L414 361c-10 24-40 31-59 13l-96-90z" horiz-adv-x="1000"/><glyph glyph-name="color" unicode="" d="M458 683c-208 0-333-166-333-250 0-83 42-145 125-145s125-21 125-84c0-83 63-146 146-146 271 0 396 146 396 292 0 250-209 333-459 333zm-52-83c29 0 52-23 52-52s-23-52-52-52c-28 0-52 23-52 52s24 52 52 52zm167 0c29 0 52-23 52-52s-23-52-52-52-52 23-52 52 23 52 52 52zm167-83c28 0 52-24 52-52 0-29-24-52-52-52-29 0-52 23-52 52 0 28 23 52 52 52zm-480-42c29 0 53-23 53-52s-24-52-53-52c-28 0-52 23-52 52s24 52 52 52zm261-208c34 0 62-28 62-63 0-34-28-62-62-62-35 0-63 28-63 62 0 35 28 63 63 63zm-63 416c-208 0-333-166-333-250 0-83 42-145 125-145s125-21 125-84c0-83 63-146 146-146 271 0 396 146 396 292 0 250-209 333-459 333zm-52-83c29 0 52-23 52-52s-23-52-52-52c-28 0-52 23-52 52s24 52 52 52zm167 0c29 0 52-23 52-52s-23-52-52-52-52 23-52 52 23 52 52 52zm167-83c28 0 52-24 52-52 0-29-24-52-52-52-29 0-52 23-52 52 0 28 23 52 52 52zm-480-42c29 0 53-23 53-52s-24-52-53-52c-28 0-52 23-52 52s24 52 52 52zm261-208c34 0 62-28 62-63 0-34-28-62-62-62-35 0-63 28-63 62 0 35 28 63 63 63z" horiz-adv-x="1000"/><glyph glyph-name="copypoly" unicode="" d="M661 849c-67 0-122-53-125-120l-213-68c-23 29-58 49-98 49-70 0-127-57-127-127 0-44 23-83 58-105l-46-169C49 301 1 248 1 185 1 115 58 58 127 58c33 0 63 13 85 34L422-12c-1-3-1-7-1-11 0-69 57-126 126-126 60 0 111 43 123 100l32-15 18 37-48 23c-6 36-27 67-56 87l61 425 51 15-12 40-32-10 7 47c55 14 97 64 97 123 0 69-57 126-127 126zm0-64c35 0 63-27 63-62s-28-62-63-62c-34 0-62 27-62 62s28 62 62 62zM559 649c13-17 30-30 49-40l-73-507c-31-3-59-16-79-38L252 165c1 7 2 13 2 20 0 46-25 86-62 108l45 165c64 6 114 60 114 125l208 66zm-334-4c35 0 62-27 62-62s-27-62-62-62-63 27-63 62 28 62 63 62zm747-5-17-5 3-12-11-64 42-7 10 65-27 23zm-97-29-80-24 12-40 80 24-12 40zm-319-97-30-9-14-15-13-50 41-10 9 39 19 5-12 40zm378-37-13-83 42-6 13 82-42 7zM479 359l-20-81 40-10 20 81-40 10zm429-47-13-82 41-7 13 82-41 7zm-781-65c35 0 63-27 63-62s-28-63-63-63c-34 0-62 28-62 63s28 62 62 62zm312-50-20-80 40-10 20 80-40 10zm443-50-13-82 41-7 13 83-41 6zM547 40c35 0 62-28 62-63s-27-62-62-62-62 27-62 62 27 63 62 63zm309-57-11-69-50 24-18-38 75-36 16 32 16-2 13 82-41 7z" horiz-adv-x="1000"/><glyph glyph-name="drawline" unicode="" d="M335 743c-70 0-127-57-127-126 0-33 13-62 34-85L138 323c-3 0-7 1-11 1C58 324 1 267 1 198 1 128 58 71 127 71c70 0 127 57 127 127 0 35-16 67-40 90l101 205c7-1 13-2 20-2 46 0 86 25 108 62l165-45c6-64 60-115 125-115l66-208c-31-23-52-60-52-102 0-69 56-126 126-126 69 0 126 57 126 126 0 67-53 122-120 126l-68 212c29 23 49 59 49 99 0 69-57 126-127 126-44 0-83-23-105-57l-169 46c-8 61-61 108-124 108zm0-64c35 0 62-27 62-62s-27-62-62-62-63 27-63 62 28 62 63 62zm398-97c35 0 62-28 62-62 0-35-27-63-62-63s-62 28-62 63c0 34 27 62 62 62zM127 260c35 0 63-28 63-62 0-35-28-63-63-63s-62 28-62 63c0 34 27 62 62 62zm746-114c35 0 62-28 62-63s-27-62-62-62-62 27-62 62 27 63 62 63z" horiz-adv-x="1000"/><glyph glyph-name="drawpoly" unicode="" d="M873 145c35 0 62-27 62-62s-27-62-62-62-62 27-62 62 27 62 62 62zM127 260c35 0 63-28 63-63 0-34-28-62-63-62s-62 28-62 62c0 35 27 63 62 63zm606 322c35 0 62-28 62-62 0-35-27-63-62-63s-62 28-62 63c0 34 27 62 62 62zm-398 97c35 0 62-27 62-62s-27-62-62-62-63 27-63 62 28 62 63 62zm0 64c-70 0-127-57-127-126 0-33 13-62 34-85L138 323c-3 0-7 1-11 1C58 324 1 267 1 197 1 128 58 71 127 71c44 0 83 23 106 57l517-74c14-56 64-97 123-97 69 0 126 57 126 126 0 67-53 123-120 126l-68 212c29 23 49 59 49 99 0 69-57 126-127 126-44 0-83-23-105-57l-169 46c-8 61-61 108-124 108z" horiz-adv-x="1000"/><glyph glyph-name="drawpoly-o" unicode="" d="M335 743c-70 0-127-57-127-126 0-33 13-62 34-85L138 323c-3 0-7 1-11 1C58 324 1 267 1 197 1 128 58 71 127 71c44 0 83 23 106 57l517-74c14-56 64-97 123-97 69 0 126 57 126 126 0 67-53 123-120 126l-68 212c29 23 49 59 49 99 0 69-57 126-127 126-44 0-83-23-105-57l-169 46c-8 61-61 108-124 108zm0-64c35 0 62-27 62-62s-27-62-62-62-63 27-63 62 28 62 63 62zm398-97c35 0 62-28 62-62 0-35-27-63-62-63s-62 28-62 63c0 34 27 62 62 62zm-290-29 165-45c6-64 60-115 125-115l66-208c-17-12-30-29-40-48l-507 73c-3 30-16 58-38 78l101 205c7-1 13-2 20-2 46 0 86 25 108 62zM127 260c35 0 63-28 63-63 0-34-28-62-63-62s-62 28-62 62c0 35 27 63 62 63zm746-115c35 0 62-27 62-62s-27-62-62-62-62 27-62 62 27 62 62 62z" horiz-adv-x="1000"/><glyph glyph-name="layer" unicode="" d="M295 652c-16 0-31-8-41-19L37 388c-17-20-20-45-12-66 7-19 28-39 53-39h844c25 0 46 20 53 40 8 20 5 46-12 65a21 21 0 0 1 0 1L739 633c-11 11-26 18-41 18l-403 1zM115 241l-78-88c-17-19-20-45-12-66 7-19 28-38 53-39h844c25 0 46 20 53 40 8 21 5 47-12 66l-81 87H769l101-109H129l97 109H115z" horiz-adv-x="1000"/><glyph glyph-name="layer2" unicode="" d="M276 642c-10 0-20-5-28-13L12 352c-25-29-8-79 28-79h88L12 137c-25-29-8-79 28-79h920c36 0 54 50 28 79L868 273h92c36 0 54 51 28 80L744 629c-8 8-18 13-28 13zm-36-369h514l108-122H135z" horiz-adv-x="1000"/><glyph glyph-name="layerdown" unicode="" d="M276 721c-10 0-20-4-28-11L12 473c-25-25-8-68 28-68h88L12 289c-25-25-8-68 28-68h88L12 105c-25-25-8-67 28-68h425l35-127 35 127h425c36 0 54 44 28 69L868 221h92c36 0 54 44 28 69L868 405h92c36 0 54 44 28 68L744 710c-8 7-18 11-28 11zm17-79h407l162-157H657l14 51H329l14-51H135zm-53-237h125l28-104H135zm395 0h119l108-104H607zM240 221h175l29-104H135zm345 0h169l108-104H557z" horiz-adv-x="1000"/><glyph glyph-name="layers" unicode="" d="M276 721a40 40 0 0 1-28-11L12 473a40 40 0 0 1 28-68h88L12 289a40 40 0 0 1 28-68h88L12 105a40 40 0 0 1 28-68h920a40 40 0 0 1 28 69L868 221h92a40 40 0 0 1 28 69L868 405h92a40 40 0 0 1 28 68L744 710a40 40 0 0 1-28 11H276zm17-79h407l162-157H135l158 157zm-53-237h514l108-104H135l105 104zm0-184h514l108-104H135l105 104z" horiz-adv-x="1000"/><glyph glyph-name="layerup" unicode="" d="m500 795-20-74H276c-10 0-20-4-28-11L12 473c-25-25-8-68 28-68h88L12 289c-25-25-8-68 28-68h88L12 105c-25-25-8-67 28-68h920c36 0 54 44 28 69L868 221h92c36 0 54 44 28 69L868 405h92c36 0 54 44 28 68L744 710c-8 7-18 11-28 11H520zM293 642h165l-43-157H135zm249 0h158l162-157H585zM240 405h154l-29-104H135zm366 0h148l108-104H635zM240 221h103l-14-53h342l-14 53h97l108-104H135z" horiz-adv-x="1000"/><glyph glyph-name="locate" unicode="" d="M500 756C276 756 94 574 94 350S276-56 500-56s406 182 406 406-182 406-406 406zm-52-109V530h104v117c126-21 224-119 245-245H680V298h117C776 173 678 74 552 53v118H448V53C323 74 224 173 203 298h118v104H203c21 126 120 224 245 245z" horiz-adv-x="1000"/><glyph glyph-name="layerstack" unicode="" d="M499 766a57 30 0 0 1-39-9L19 522a57 30 0 0 1 0-43l441-235a57 30 0 0 1 80 0l441 235a57 30 0 0 1 0 43L540 757a57 30 0 0 1-41 9zm1-74 360-192-360-191-360 191 360 192zM60 367l-41-21c-22-12-22-32 0-43L460 68c22-12 58-12 80 0l441 235c22 11 22 31 0 42l-41 22-400-213c0-1-1-1-2-2l-38-20-40 22L60 367zm0-168-41-21c-22-12-22-31 0-43l441-235c22-12 58-12 80 0l441 235c22 12 22 31 0 43l-41 21L540-14c0-1-1-1-2-1v-1l-38-20-40 22L60 199z" horiz-adv-x="1000"/><glyph glyph-name="measure" unicode="" d="M21 333a41 41 0 0 1-15-57L189-41a41 41 0 0 1 56-16l734 424a41 41 0 0 1 16 57L811 741a41 41 0 0 1-56 16L21 333zm77-51 662 382 142-246-47-27-54 92-35-21 53-92-55-32-53 93-36-21 54-92-55-32-53 93-36-21 53-92-54-32-74 128-36-20 74-129-55-31-53 92-36-20 53-93-54-31-53 92-36-21 53-92-55-31-53 92-36-21 54-92-37-21L98 282z" horiz-adv-x="1000"/><glyph glyph-name="measure-line" unicode="" d="M345 850c-65 0-118-53-118-118 0-31 12-59 32-80l-97-195c-4 0-7 1-11 1-65 0-118-54-118-119 0-64 53-118 118-118s118 54 118 118c0 34-14 64-36 85l94 191c6-1 12-1 18-1 43 0 81 23 102 58l154-43c6-59 56-106 117-107l62-194c-30-22-49-56-49-96 0-65 53-118 118-118s118 53 118 118c0 63-50 115-112 118l-64 199c27 21 45 54 45 92 0 65-53 118-118 118-41 0-77-22-99-54l-157 43c-8 57-57 102-117 102zm0-60c33 0 59-26 59-58 0-33-26-59-59-59-32 0-58 26-58 59 0 32 26 58 58 58zm373-91c33 0 58-26 58-58 0-33-25-59-58-59s-58 26-58 59c0 32 25 58 58 58zM151 398c33 0 59-26 59-59 0-32-26-58-59-58-32 0-58 26-58 58 0 33 26 59 58 59zm698-107c32 0 58-26 58-59 0-32-26-58-58-58-33 0-59 26-59 58 0 33 26 59 59 59zM49 96v-246h898V96h-63V-88h-77V43h-62V-88h-77V43h-62V-88h-77V96h-62V-88h-77V43h-62V-88h-77V43h-63V-88h-76V96H49z" horiz-adv-x="1000"/><glyph glyph-name="measure-poly" unicode="" d="M345 850c-65 0-118-53-118-118 0-31 12-59 32-80l-97-196c-4 1-7 2-11 2-65 0-118-54-118-119s53-118 118-118c41 0 78 22 99 54l484-70c13-52 59-91 115-91 65 0 118 53 118 118 0 63-50 115-112 118l-64 199c27 21 45 54 45 92 0 65-53 118-118 118-41 0-77-22-99-54l-157 43c-8 57-57 102-117 102zm0-60c33 0 59-26 59-58 0-33-26-59-59-59-32 0-58 26-58 59 0 32 26 58 58 58zm373-91c33 0 58-26 58-58 0-33-25-59-58-59s-58 26-58 59c0 32 25 58 58 58zm-271-27 154-43c6-59 56-106 117-107l62-194c-16-12-29-28-38-46l-474 69c-3 29-15 54-35 73l94 191c6-1 12-1 18-1 43 0 81 23 102 58zM151 398c33 0 59-26 59-59 0-32-26-58-59-58-32 0-58 26-58 58 0 33 26 59 58 59zm698-107c32 0 58-26 58-59 0-32-26-58-58-58-33 0-59 26-59 58 0 33 26 59 59 59zM49 96v-246h898V96h-63V-88h-77V43h-62V-88h-77V43h-62V-88h-77V96h-62V-88h-77V43h-62V-88h-77V43h-63V-88h-76V96H49z" horiz-adv-x="1000"/><glyph glyph-name="measure-poly-o" unicode="" d="M335 743c-70 0-127-57-127-126 0-33 13-62 34-85L138 323c-3 0-7 1-11 1C58 324 1 267 1 197 1 128 58 71 127 71c44 0 82 23 105 56l519-76c15-54 64-94 122-94 69 0 126 57 126 126 0 67-53 123-120 126l-68 212c29 23 49 59 49 99 0 69-57 126-127 126-44 0-83-23-105-57l-169 46c-8 61-61 108-124 108zm0-64c35 0 62-27 62-62s-27-62-62-62-63 27-63 62 28 62 63 62zm398-97c35 0 62-28 62-62 0-35-27-63-62-63s-62 28-62 63c0 34 27 62 62 62zm-290-29 165-45c6-64 60-115 125-115l66-208c-17-12-30-29-40-48v-4l-18 3 15 106-41 6-15-106-63 9 16 106-41 6-15-106-63 9 22 147-41 6-22-147-62 10 15 105-40 6-16-105-62 9 15 105-41 6-15-105-34 5v2h-1c-3 30-16 58-38 78l101 205c7-1 13-2 20-2 46 0 86 25 108 62zM127 260c35 0 63-28 63-63 0-34-28-62-63-62s-62 28-62 62c0 35 27 63 62 63zm746-115c35 0 62-27 62-62s-27-62-62-62-62 27-62 62 27 62 62 62z" horiz-adv-x="1000"/><glyph glyph-name="modifyline" unicode="" d="M335 740c-69 0-126-56-126-125 0-34 14-64 35-86L141 322c-4 0-9 1-14 1C58 323 2 266 2 198 2 129 58 72 127 72s126 57 126 126c0 34-14 65-37 87l103 206c5-1 10-2 16-2 18 0 36 5 52 12l371-366c-7-15-11-32-11-50 0-69 57-125 126-125S998 16 998 85c0 60-42 110-99 123l-2 28-54-4 2-25c-10-2-20-6-29-11L447 559c7 15 11 31 12 48l64-2 2 54-74 3c-19 46-64 78-116 78zm506 0c-69 0-125-56-125-125 0-63 47-115 108-124l3-43 54 4-3 43c51 16 89 64 89 120 0 69-57 125-126 125zm-506-62c35 0 63-28 63-63s-28-63-63-63-63 28-63 63 28 63 63 63zm506 0c35 0 63-28 63-63s-28-63-63-63-63 28-63 63 28 63 63 63zm-262-21-2-54 108-5 2 54-108 5zm306-259-54-4 8-108 54 4-8 108zM127 261c35 0 63-28 63-63 0-36-28-64-63-64s-63 28-63 64c0 35 28 63 63 63zm746-113c35 0 63-28 63-63s-28-63-63-63-63 28-63 63 28 63 63 63z" horiz-adv-x="1000"/><glyph glyph-name="modifypoly" unicode="" d="M25 460c-35-60-14-138 46-173 28-16 61-20 91-13L291 79c-2-3-5-5-7-9-34-60-13-138 47-172 60-35 138-14 172 46 7 11 11 23 13 34l49 18-14 39-33-12c-2 14-5 28-12 41l324 411c16-5 33-6 50-4l-1-19 41-2 2 33c22 11 40 27 53 50 35 60 14 138-46 172-58 34-133 15-169-41l-218 47c-5 37-26 71-61 91-60 35-138 14-173-46-22-38-21-83-3-120L181 513c-57 24-124 2-156-53zm55-32c18 30 55 40 85 23 31-18 41-55 23-85-17-31-55-41-85-23-30 17-40 55-23 85zm284 296c17 30 55 40 85 23s40-55 23-85c-18-30-55-41-85-23-30 17-41 55-23 85zM340 38c17 31 55 41 85 23 30-17 40-55 23-85-18-30-55-40-85-23-31 17-41 55-23 85zm472 589c17 30 55 40 85 23 30-18 40-55 23-85-18-31-55-41-85-23-31 17-41 55-23 85zM590 49l14-39 79 27-14 40-79-28zm287 362-4-84 41-2 4 84-41 2zM768 209c-18-31-19-68-6-99l-54-19 14-40 63 23c7-8 16-15 25-21 55-31 125-12 156 42 32 54 13 125-41 156-5 3-9 4-14 6l1 27-41 2-1-20c-41 0-80-20-102-57zm48-27c17 28 52 38 81 21 28-16 38-52 22-80-17-29-53-39-81-22-29 16-38 52-22 81z" horiz-adv-x="1000"/><glyph glyph-name="ol3" unicode="" d="M500 829c-28 0-55-9-77-27L113 541c-43-36-42-93 0-129l310-261c43-36 111-36 154 0l310 261c43 36 43 93 0 129L577 802c-22 18-49 27-77 27zM83 363c-5-28 5-56 30-78L423 24c43-36 111-36 154 0l310 261c25 22 35 50 30 78L621 113c-66-56-175-56-242 0L83 363zm0-127c-5-27 5-56 30-77l310-261c43-36 111-36 154 0l310 261c25 21 35 50 30 77L621-13c-66-56-175-56-242 0L83 236z" horiz-adv-x="1000"/><glyph glyph-name="help-larrow" unicode="" d="M944-130c-92 366-407 654-783 718-36 6-20 60 16 54 394-67 726-373 822-757 9-35-46-50-55-15M392 796C282 718 165 651 43 593v49c89-58 165-129 229-214 22-29-27-58-49-29-58 77-128 142-209 194-17 11-21 39 0 49 123 57 239 125 350 203 29 21 58-28 28-49" horiz-adv-x="1000"/><glyph glyph-name="help-rarrow" unicode="" d="M56-130c92 366 407 654 783 718 36 6 21 60-15 54C429 575 97 269 1-115c-9-35 46-50 55-15m552 926c110-78 227-145 349-203v49c-89-58-165-129-229-214-22-29 27-58 49-29 58 77 128 142 209 194 17 11 21 39 0 49-123 57-239 125-349 203-30 21-59-28-29-49" horiz-adv-x="1000"/><glyph glyph-name="recherche-idee" unicode="" d="M446-126c-27 5-40 14-52 38-12 23-21 62-23 94-2 19-1 19 4 25l6 5h241l5-5c5-5 5-7 5-16 0-26-11-77-22-100-13-27-25-36-56-41-22-4-86-4-108 0zm105 40c13 3 21 11 28 34 7 22 11 42 9 46-1 3-11 3-87 3-78 0-86 0-87-3-1-4 6-39 12-53 8-22 13-26 38-29 16-2 73-1 87 2zM495 65c-3 1-7 4-9 7l-5 6v240l5 7c5 6 7 6 15 6s11-1 15-6l6-7V78l-5-6c-6-6-14-8-22-7zm-129 6c-6 6-6 7-10 34-4 36-8 53-14 70-7 17-26 56-46 90-38 67-47 93-47 137 0 68 27 132 75 180 37 37 83 62 134 71 22 4 64 4 87 0 90-16 167-83 196-172 8-25 12-51 12-80 0-38-8-63-33-105-6-12-18-32-25-44-23-39-39-85-50-141-6-31-7-35-13-40-8-7-18-7-26 2-4 4-7 8-7 11s2 16 5 30c14 75 32 120 70 184 32 52 41 77 39 112-6 106-82 189-186 204-19 3-34 3-56-1-92-13-164-85-179-178-8-49 0-80 34-139 25-44 55-105 60-123 5-19 12-63 12-82 1-13 0-14-6-19-8-8-18-8-26-1zm425 344c-4 5-4 13 1 18 4 4 7 4 62 4h59l5-5c4-4 4-6 3-11-2-10-1-10-66-10-56 0-60 0-64 4zm-710 3c-4 6-4 11 1 16 4 5 5 5 63 5 51 0 60-1 62-3 5-5 6-12 2-18l-3-5h-61c-61 0-61 0-64 5zm617 197c-5 1-8 8-7 13 1 2 19 22 42 44 42 43 45 45 53 37s6-11-37-53c-22-23-42-42-44-42-1-1-5 0-7 1zm-445 40c-36 37-41 42-41 48 0 7 7 13 15 11 2 0 22-19 44-41 43-43 45-46 36-55-8-8-11-5-54 37zm239 46c-3 3-4 10-4 63 0 54 1 59 4 62 5 4 15 4 19 0 3-3 3-11 3-63 0-55 0-60-4-63-4-4-14-4-18 1z" horiz-adv-x="1000"/><glyph glyph-name="recherche-poi" unicode="" d="M441-147c-10 6-10-1-10 194v181l-5 1c-3 0-12 2-20 3-9 2-24 5-35 9-90 29-159 107-178 202-5 24-5 74 0 99 24 119 124 207 245 214l21 1 7-7 8-6 1-115 1-114 114-1 115-1 6-7c5-6 6-8 6-22 0-34-12-81-30-115-37-71-112-125-188-137-10-1-19-3-20-4-3-1-4-25-4-185l-1-183-6-5c-7-6-18-7-27-2zm72 426c24 7 42 16 63 29 34 23 65 61 80 97 8 19 18 57 16 62-1 3-12 3-112 3-119 0-119 0-126 11-2 4-2 31-3 118l-1 112h-9c-27-2-74-22-101-42-38-29-66-70-81-118-5-18-5-22-5-59s0-41 5-58c19-61 57-108 109-136 41-22 61-26 110-25 32 0 39 1 55 6zm22 289c-10 6-10 7-10 140 0 134 0 134 10 140 6 3 37 3 58-1 89-16 167-80 200-165 13-33 21-90 16-103-6-13 0-13-142-13-83 0-130 1-132 2zm230 43c1 1 0 10-2 18-14 71-59 128-125 159-18 8-52 18-63 18h-6v-98c0-53 0-98 1-99 1 0 45-1 98-1 81 0 97 0 97 3z" horiz-adv-x="1000"/><glyph glyph-name="environnement-abeille" unicode="" d="M383-5c-17 4-38 16-51 27-26 25-38 57-38 101 0 33 5 60 18 92 12 33 26 52 70 97 28 29 35 38 35 41 0 1-1 2-3 1-85-19-160-24-218-14-78 12-140 51-164 101-8 16-11 28-11 43 0 22 7 39 24 56 28 29 75 39 147 32 98-10 200-27 275-44 12-4 24-6 26-6 1 1 3 5 5 13 8 31 32 56 62 66 7 2 13 4 14 5 2 4 2 59-1 61-1 1-7 4-13 7-15 6-19 10-19 19s6 16 15 16c7 0 42-16 48-22l5-4-1-38c-1-21-1-39 0-40s4-3 8-4 14-5 22-9l15-7 8 8c47 43 48 44 55 44 5 1 45-18 49-23 8-10 0-25-13-25-2 0-10 3-18 6l-15 7-7-7c-29-27-36-33-36-34s3-6 5-11c7-14 10-26 10-42 0-22-7-41-18-57-3-3-4-6-4-7s11-10 26-21c76-54 201-159 238-201 36-40 52-81 44-115-3-17-9-28-21-40-13-12-28-21-47-25-20-5-54-4-77 2-51 14-103 48-146 96-25 28-64 84-81 115-10 18-12 21-14 18-2-4-5-21-7-56-3-43-6-63-12-81C550 68 494 8 440-5c-16-5-41-5-57 0zm40 29c2 1 2 2 0 3-2 2-79 37-81 37-3 0 1-6 9-15 11-10 28-20 43-24 9-2 24-2 29-1zm57 30c6 5 10 10 10 11 0 2-159 74-162 73-2-1-2-4-2-14 0-7 0-14 1-15 2-3 136-64 140-64 2 0 8 4 13 9zm418 19c21 4 35 13 43 28 4 7 5 9 5 23 0 13-1 17-5 27-11 27-29 48-74 90-87 79-174 147-250 195-15 10-21 13-22 12-3-2-3-39-1-61 6-55 27-103 73-170 29-41 55-70 82-92 51-41 107-61 149-52zM517 98c7 9 12 18 10 20-3 3-183 83-185 82-2 0-9-21-8-25 0-2 27-15 89-42 49-22 89-40 89-40 1 0 3 2 5 5zm27 57c1 4 2 10 2 15v8l-58 27c-121 54-113 51-116 48-2-2-6-7-9-11-5-7-6-9-4-11s177-81 180-81c2-1 4 2 5 5zm8 73c1 11 1 14-1 16s-127 59-130 59-22-21-20-22c2-3 145-67 148-67 2 0 2 3 3 14zm12 64c3 7 5 13 5 13-1 1-26 12-57 26-35 16-56 25-57 24-2-2-9-19-10-23 0-3 9-7 54-28 30-14 56-25 57-25 1 1 5 6 8 13zm3 54c0 2-1 9-2 15-1 7-3 25-3 42-1 16-2 30-3 30-1 1-5-2-9-5-13-12-37-30-51-39-11-6-13-8-12-10 3-2 76-35 78-35s2 1 2 2zm-262 24c94 9 151 27 199 62 14 10 43 36 43 38 0 4-76 24-140 37-72 15-170 29-236 34-22 2-48 0-64-4-22-5-42-19-49-32-11-21-3-50 22-76 46-47 126-69 225-59zm342 102c14 21 15 43 4 65-12 22-41 37-67 35-28-2-54-27-55-52v-8l28-9c28-10 42-16 69-34 12-7 14-7 21 3z" horiz-adv-x="1000"/><glyph glyph-name="environnement-arbres" unicode="" d="M759-63c-2 1-5 4-7 6-4 4-4 8-5 61-1 48-1 57-4 58-1 1-9 3-17 4-70 10-137 60-170 126-7 13-16 38-20 56-4 19-5 73-1 93 9 45 31 86 64 120 9 10 16 18 16 18s-3 5-6 12c-17 28-24 55-24 91 0 32 4 51 16 77 26 54 72 90 132 102 14 3 52 3 67 0 60-12 106-48 131-102 13-26 17-45 17-77 0-36-7-63-24-91-3-7-6-12-6-12s7-8 16-18c26-27 44-56 55-90 9-27 11-40 11-75 0-36-2-49-12-78-28-79-101-140-181-152-8-1-16-3-17-4-3-1-3-10-4-58l-1-57-5-5c-5-5-15-7-21-5zm-12 442 1 276 5 6c4 4 7 5 14 5s9-1 13-6l6-6v-38c0-21 1-39 1-39 2-1 112 46 115 49 2 2-8 24-18 38-50 72-151 83-215 23-54-50-62-133-18-191 16-21 15-28-4-43-44-34-70-81-76-137-4-29 1-60 12-90 25-64 83-111 153-124h7c3 0 3 32 4 277zm69-272c61 15 116 66 137 127 5 13 5 20 0 18-16-6-165-72-166-74s-2-74 0-76c2-1 9 0 29 5zm61 146c51 22 84 38 85 40 3 4 0 32-3 34-1 0-40-17-87-38l-85-37-1-17c0-18 0-22 5-20 2 1 41 18 86 38zm-8 69c43 19 80 36 81 37 2 2 1 6-3 16-3 8-7 14-8 15-1 0-36-14-77-33l-75-33-1-16c0-15 0-22 2-22 1 0 37 16 81 36zm-15 65c35 16 65 30 65 32 1 2-20 25-23 25-1 0-26-11-55-24l-54-24-1-16c0-15 0-21 2-21 1 0 30 13 66 28zm-24 62c32 15 40 19 40 22 1 2 1 5 1 7s5 10 10 18c11 14 12 17 8 17-1 0-25-10-52-22l-50-22-1-17c0-16 0-21 3-21 1 0 19 8 41 18zm18 80c32 14 59 27 60 27 1 1 1 9 2 19 0 16 0 17-3 17-2 0-30-11-62-25l-58-26-1-16c0-15 0-22 2-22 1 0 28 12 60 26zM226-54c-11 5-11 9-11 66v50l-5 1c-2 0-10 2-17 3-16 2-46 12-62 20-50 25-92 70-113 120C4 240-3 282 1 314c7 55 49 134 123 230 22 30 67 84 87 104 24 27 27 26 63-15 92-105 157-201 183-270 11-29 14-49 13-77-2-46-17-89-43-126-13-18-42-46-60-58-28-19-67-34-96-37-6-1-12-2-13-3-2-2-3-14-3-52 0-27 0-52-1-55-4-9-18-14-28-9zm-11 370 1 214 6 5c10 9 25 7 31-5 2-2 2-14 2-29 0-21 1-25 3-25 5 0 66 31 66 33 0 4-26 36-83 103-2 3-5 5-6 4-6-2-56-62-88-105-59-78-96-144-106-190-6-28-1-68 13-100 25-59 79-104 140-116 9-2 17-3 18-3 2 1 3 47 3 214zm61-211c58 12 109 51 134 101 6 11 6 12 3 12-4 0-155-67-156-70-2-2-2-44 0-46 1-1 1-1 19 3zm70 118 82 36 2 7c1 4 2 12 2 18 1 9 1 12-2 13s-171-73-173-76-2-34 0-35c1-2-6-5 89 37zm-9 69c90 40 89 39 89 42 0 4-10 29-12 30-1 0-37-15-80-35l-78-35v-16c-1-18 0-22 4-21 1 1 36 16 77 35zm-8 69c36 16 67 31 69 32 1 1 0 5-5 15-5 8-9 14-10 14 0 0-29-13-64-28l-63-27v-17c-1-17 0-22 4-20 1 0 32 14 69 31zm-22 62c62 27 58 25 58 28 0 5-19 30-22 30-2 0-22-9-45-21l-42-21v-16c-1-15 0-22 2-22 0 0 22 10 49 22z" horiz-adv-x="1000"/><glyph glyph-name="environnement-feuille" unicode="" d="M508-127c-8 5-10 13-9 38 2 34 7 75 12 98 2 11 3 21 3 22-1 1-12 2-25 3-13 0-33 2-43 4-23 4-61 16-80 26-48 24-88 66-114 120-12 26-22 54-35 106-14 54-16 60-26 77-15 27-40 48-65 53-17 4-25 17-18 30s11 14 66 14c69-1 116-7 173-25 14-4 24-7 26-6 0 1 4 11 7 22 10 36 30 75 57 113 19 26 65 74 94 97 24 19 75 53 102 69 61 33 138 66 212 88 29 9 34 9 43 2 5-5 7-8 7-15s-2-9-16-23c-19-19-28-35-36-63-5-19-5-23-5-69 0-55 2-70 18-139 24-102 29-172 15-242-21-112-96-188-211-216-26-6-66-12-82-12-12 0-15-3-21-21-8-26-13-64-17-128-1-11-1-14-6-19s-8-6-14-6c-5 0-10 1-12 2zm20 213c13 32 20 76 18 106-4 49-20 82-61 120-58 55-137 91-229 105-33 5-49 6-49 3 0-1 4-8 9-15 10-13 19-31 24-45 2-4 9-30 16-56 15-57 23-80 37-108 26-51 63-85 113-104 30-11 73-18 105-18l13 1 4 11zm-59 40c-7 3-10 9-14 24-7 28-25 51-54 69-8 5-17 11-20 13-6 6-7 16-3 24 9 18 31 12 67-16 24-19 44-50 50-77 5-20 4-24-4-32-7-7-13-8-22-5zm154-34c137 24 208 106 213 246 2 53-3 95-20 167-26 107-28 181-8 244 3 9 4 17 4 17-2 2-48-16-86-33-150-67-257-162-299-267-6-18-15-49-13-52 1-1 11-7 22-14 33-19 55-36 83-63 16-16 26-24 27-22 0 1 2 11 3 21 10 80 32 156 63 211 14 25 33 52 46 65 9 10 11 11 19 11 7 0 10-1 14-6 6-7 8-16 4-23-2-3-7-10-11-15-71-87-107-230-98-388 2-32 0-53-7-82-2-10-4-18-3-20 1-3 22-2 47 3z" horiz-adv-x="1000"/><glyph glyph-name="environnement-terre" unicode="" d="M597-147c-26 4-48 10-69 18C421-88 345 4 325 117c-5 31-5 81 0 112 16 88 67 165 143 215 105 69 245 68 351-1 70-45 122-120 139-200 39-182-78-356-262-389-32-5-67-6-99-1zm79 53c62 35 119 123 137 207 2 10 3 23 4 29v10H662V-98c1-3 3-3 14 4zM540-81c-53 55-94 142-101 213-3 22 1 21-41 21-29 0-37-1-38-3-1-3 3-32 8-50 9-35 29-75 51-103s57-57 87-74c17-9 43-20 45-18 1 0-4 6-11 14zm82 109v124H476v-10c0-6 2-19 5-29 17-81 67-161 125-201 18-12 17-24 16 116zM768-83c82 40 140 118 156 209 2 12 3 23 2 24 0 2-7 3-34 3-38 0-36 1-38-20-6-68-46-155-96-210-7-6-12-12-12-13 0-3 6-1 22 7zM435 195c1 1 3 11 4 23 10 79 42 147 96 205 9 10 15 18 13 18-1 0-9-3-18-7-67-29-125-88-152-157-10-25-20-74-18-82 1-2 74-3 75 0zm187 121c1 117 0 123-3 123-7 0-33-20-54-41-40-40-69-93-82-152-5-20-9-47-7-50 1-2 12-3 73-2h73v122zm195-111c-1 17-9 53-16 75-24 69-71 129-123 158-7 3-14 6-15 5-2-1-3-246 0-249 0 0 35-1 78 0h76v11zm109-10c2 3-2 28-8 51-20 77-74 144-147 181-11 5-21 10-22 10-2 0 3-7 11-15 38-43 60-81 78-134 9-26 15-53 16-74 2-22 0-21 38-21 20 0 34 1 34 2zM257 483c-42 3-80 14-125 35-13 6-39 16-58 22-18 6-35 13-37 14-4 4-6 15-3 21 2 7 10 11 17 11 11 0 81-25 110-39 15-8 42-16 67-22 15-3 25-4 52-4 50 0 68 4 120 31 52 25 76 33 135 44 18 3 42 8 53 11 10 3 34 8 52 13 34 7 46 11 47 16 1 4-7 15-14 20-15 10-25 10-162 7-61-1-75-1-93 2-31 4-49 9-55 16-9 11-4 27 9 30 3 1 12 0 20-3 36-9 60-10 139-7 113 4 137 3 160-11 24-14 40-45 33-66-7-22-24-31-77-42-13-3-34-8-47-11-12-4-37-9-55-12-59-11-83-18-127-41-28-15-46-22-66-27-29-8-65-10-95-8zm623 72c-21 2-42 9-73 22-16 7-33 14-38 16-13 4-19 10-19 19s7 18 15 20c6 1 24-5 59-21 33-14 49-18 71-18 14 0 18 0 22 4 7 5 13 15 11 20-2 7-105 69-164 98-51 25-168 70-207 80-28 7-70 14-96 17-27 2-29 2-129-36-117-44-128-47-179-54-49-6-100 0-114 14-7 7-7 18 0 26 7 6 14 7 28 2 15-5 39-8 56-7 26 2 71 10 90 16 9 3 49 18 88 32 109 41 116 44 137 45s54-3 95-11c51-10 75-18 175-58 66-27 139-65 207-108 30-19 44-30 49-37 5-8 5-21 0-37-10-33-40-49-84-44z" horiz-adv-x="1000"/><glyph glyph-name="ign-map" unicode="" d="M7-115c-3 3-6 8-7 12-2 6 117 520 123 531s8 11 71 11c57 0 61 0 67-5 8-6 11-16 7-26-5-13-13-15-61-15-39 0-44 0-46-4-4-8-109-457-107-460 1-2 151-3 446-3h445v7c0 3-26 112-59 242-32 130-59 240-59 244 0 18 23 27 37 14 6-5 14-33 72-268 43-171 65-264 64-268s-4-9-8-12c-6-5-12-5-493-5-482 0-487 0-492 5zM412 11l-8 7v162c0 126-1 162-3 163-2 2-10 5-19 8-33 12-62 39-76 73-7 20-9 58-3 78 7 24 16 40 33 57 72 72 197 30 212-71 5-35-6-75-30-102-13-15-36-30-55-36-8-2-15-5-17-6-3-2-3-38-3-165V16l-7-6c-8-9-15-8-24 1zm49 377c19 9 34 24 43 42 17 35 12 71-14 99-21 22-37 29-65 29-20 0-24 0-39-8-21-10-38-28-46-49-8-20-6-52 3-71 10-18 29-36 47-43 20-9 52-8 71 1zm252-154-6 6-1 164-1 164-19 7c-45 16-77 53-85 100-9 57 26 118 80 137 69 25 144-12 164-81 8-23 6-60-2-82-13-32-43-61-74-73-7-2-15-5-18-6l-6-2V242l-6-7c-8-7-17-8-26-1zm50 379c18 9 32 22 41 39 7 14 9 20 10 36 1 23-2 35-13 54-22 37-72 53-110 35-21-9-38-27-47-46-7-13-8-20-8-37s1-23 7-36c10-19 25-35 44-45 15-7 18-7 40-7 19 1 27 2 36 7zM588 401c-11 13-9 29 6 37 10 5 40 5 48 0 10-7 14-18 11-28-5-14-11-17-36-17-22 0-23 0-29 8z" horiz-adv-x="1000"/><glyph glyph-name="ign-ville" unicode="" d="m977 88-5 5c-1 2-2 59-2 169 0 91 0 167-1 168s-20 2-81 2l-80 1-5 4-4 5v51c0 41-1 50-2 52-2 1-10 1-27 1h-26V345c-1-213-1-206-8-210-4-2-114-2-117 0-7 4-7 7-8 57l-1 48-29 1c-30 1-34 2-37 7-1 2-1 28-1 71v68l-9 9c-19 21-58 61-59 61 0 0-14-13-31-28l-29-29-1-147V105l-5-4-5-4h-83l-5 4-5 4-1 238-1 239H187V476c0-115 0-115-8-119-3-2-19-2-75-3H32V230l-1-123-4-4c-7-7-20-5-25 5-3 7-3 260 0 268 4 9 1 9 80 10h73v110l1 109 5 4 5 5 81-1c62 0 83 0 86-1 2-1 4-5 6-7 2-5 2-20 2-241V128h21l20 1 1 141c1 78 2 143 2 144 2 4 82 79 86 81 9 3 12 0 53-43 21-22 41-43 44-46l4-6v-63c0-47 1-63 2-64 1-2 10-2 30-2 16 0 29-1 31-2 6-3 7-6 7-56l1-49h69v202l1 201 5 5 4 4h98l4-4 5-4v-50c0-28 0-51 1-53 0-2 9-2 80-2h80l5-5 5-5V97l-4-5c-5-5-13-7-19-4zM62 107c-3 3-3 11 1 14 2 2 8 2 52 2 49 0 49 0 51-3 3-4 3-9 0-13-3-3-5-3-52-3-46 0-49 0-52 3zm406 1c-3 3-3 6-3 23s0 19 3 23c2 2 5 4 8 4 2 0 5-2 7-4 3-4 3-6 3-23s0-20-3-23c-2-3-5-4-7-4-3 0-6 1-8 4zm363 3c-3 4-3 12 1 15 3 1 10 2 51 2 53 0 54 0 54-10s1-10-54-10c-46 0-50 1-52 3zM63 191c-2 2-3 4-3 8 0 11 0 11 54 11 45 0 47 0 51-3 2-2 4-5 4-8 0-2-2-5-4-7-4-3-6-3-51-3-41 0-48 0-51 2zm771-1c-7 3-7 16 0 18 3 1 22 2 52 1 45 0 47 0 49-3 3-4 3-10 0-13-2-3-4-3-50-4-26 0-50 1-51 1zm-365 34c-4 4-4 4-4 25 1 18 1 21 4 23 1 1 4 2 7 2 2 0 5-1 6-2 3-2 3-5 4-23 0-21 0-21-4-25-2-2-5-4-6-4-2 0-5 2-7 4zM62 278c-3 4-3 11 1 14 2 2 8 3 51 3 47 0 49 0 52-3 3-4 3-9 0-13-2-4-2-4-52-4-46 0-49 1-52 3zm769 0c-3 4-3 12 1 14 3 2 10 3 51 3 53 0 54 0 54-10s1-10-54-10c-46 0-50 1-52 3zm-359 60c-6 2-7 6-7 26 0 22 1 25 10 26 10 0 11-2 11-26 0-17 0-20-3-23-3-4-7-5-11-3zm360 25c-4 3-5 11-1 14 3 2 9 3 52 3 46 0 50-1 52-3 4-4 3-12-1-14-3-2-10-3-51-3s-48 1-51 3z" horiz-adv-x="1000"/><glyph glyph-name="ign-voiture" unicode="" d="M250 81c-29 10-51 28-66 55l-7 12-22 3c-42 5-58 12-79 34-14 14-23 34-30 59-4 16-4 22-4 75 0 59 4 114 10 143 17 80 83 136 179 150 66 9 150 14 214 12 93-3 152-14 199-38 17-8 23-13 49-38 74-69 97-86 140-105 71-30 106-65 121-120 5-22 6-75 1-94-9-30-24-51-47-62-12-6-14-7-45-8-17-1-38-2-46-3l-15-1-7-15c-14-29-43-53-74-61-15-4-46-4-61 0-28 7-55 28-71 54l-8 15-93-2c-51 0-93-1-94-2 0 0-4-5-7-11-14-24-36-42-63-52-14-4-19-5-38-5-18 0-24 1-36 5zm68 42c30 14 49 48 43 80-5 25-20 45-44 56-11 6-15 7-31 7s-19-1-31-7c-46-22-59-81-24-118 17-18 36-26 60-25 10 1 18 3 27 7zm406 1c17 9 26 19 35 37 6 12 6 15 6 30s0 19-6 30c-10 23-26 36-49 43-35 10-72-8-88-43-5-9-6-14-6-30s1-20 6-30c13-29 41-46 72-45 12 1 18 2 30 8zm-172 65 21 1 2 17c7 46 36 80 79 94 41 14 84 5 115-25 21-18 31-38 36-65l3-13 34 1c19 0 38 1 42 2 23 7 34 30 34 73 0 41-9 65-33 89-17 17-30 25-67 42-54 24-79 42-152 112-24 23-29 27-45 35-50 24-112 32-225 30-84-1-157-8-188-17-61-17-102-55-114-105-7-26-15-123-13-162 3-55 15-85 43-99 8-4 38-9 43-7 1 0 3 6 4 13 3 26 15 50 35 70 21 21 49 32 80 32 20 0 34-3 53-12 35-17 63-60 64-97 0-4 1-9 2-10 2-3 104-2 147 1z" horiz-adv-x="1000"/><glyph glyph-name="loisir-chateau" unicode="" d="M17-126c-3 1-8 4-11 7-5 4-6 8-6 15 0 18 6 23 31 25l16 1 1 212 2 211 5 5c3 4 8 5 20 6l16 1 1 30c0 16 1 32 2 35 1 6 13 13 21 13s18-5 20-10c1-2 3-18 3-36l2-32h41l1 30c0 16 1 32 2 35 1 6 13 13 21 13s18-5 21-10c1-2 2-18 3-36l1-32h20l1 82c1 73 1 82 5 87l4 6c0 1 23 1 50 2l49 1v95l-13 1c-8 1-16 3-18 5-8 7-10 23-4 32 2 3 142 130 167 151 10 9 22 10 31 3 10-8 159-142 168-151 8-8 9-18 4-29-4-8-8-9-25-11l-13-1v-95l49-1c47-1 49-1 54-6s5-5 6-88l1-83h22l1 34c1 30 2 34 6 38 9 9 30 7 36-3 2-3 4-18 4-37l1-32h42l1 34c1 38 3 42 20 44 9 1 11 0 18-6l7-6 1-33 1-33h15c13-1 15-2 21-8l6-6 1-211 1-210 8-1c16-3 22-9 22-24 0-7-2-11-6-16l-7-7-483-1c-266 0-485 1-487 1zm232 242v193H96l-1-191c0-105 0-193 1-194 0-3 17-3 77-3l76 1v194zm144-61c2 151 0 136 22 157 63 59 166 52 218-15l8-9 1-133 1-133h75v565H300l-1-280c0-154 0-282 1-283 1-3 11-3 47-3l45 1 1 133zM597-76c2 6 1 240-1 246-3 8-26 24-42 31-18 7-55 7-73 0-16-7-39-23-41-31-3-6-4-240-1-246 1-3 10-3 79-3 68 0 77 0 79 3zm323 192v193H766l-1-191c0-105 0-193 1-194 1-3 17-3 77-3l77 1v194zM608 583v47H410l-1-45c0-25 0-46 1-48s21-3 99-2h99v48zm1 98c0 4-97 89-101 89-5 0-102-86-100-89 2-2 201-2 201 0z" horiz-adv-x="1000"/><glyph glyph-name="loisir-marche" unicode="" d="M672-146c-3 2-6 7-8 9-1 3-3 35-4 79-2 116-4 166-6 166-1 0-38-56-82-124-45-68-83-126-85-128-11-10-28 1-23 15 2 3 42 66 90 140 47 73 86 134 86 136-1 4-145 110-152 112-2 0-4-1-5-4 0-2-10-36-20-76-11-40-21-76-24-80-9-17-168-234-174-237-17-8-34 3-34 21 0 10 5 17 79 119 43 60 81 112 83 116s36 123 75 266c74 275 71 266 86 269 8 2 17 0 23-7 2-2 23-47 46-98l42-93 74-30c47-19 77-32 80-36 9-9 9-24-1-33-5-4-10-7-15-7-10 0-165 63-172 70-3 3-19 34-34 69-16 35-30 63-31 63-3-1-65-227-65-235 0-4 161-123 167-124 2 0 20 25 49 70 28 42 48 70 51 71 10 4 19-3 19-14 0-3-21-37-46-75l-46-71 5-8c4-7 5-13 7-102 1-51 2-117 2-146v-53l-7-7c-8-8-22-9-30-3zM340 197c-4 1-8 6-10 10-2 7-2 10 1 24 9 29 10 35 7 38-1 1-29 10-63 20-87 25-91 27-96 33-3 4-5 10-5 15 0 14 82 306 90 324 16 31 46 55 78 62 38 8 95-8 122-35 19-18 29-48 26-71-1-6-27-101-58-211-53-185-57-200-64-206-8-8-18-9-28-3zm17 126c1 2 20 70 43 150 44 155 45 159 36 173-15 22-62 36-92 27-12-4-30-21-37-35-5-12-79-278-78-282 1-3 111-37 121-37 4 0 7 1 7 4zm266 332c-13 3-31 12-42 22-23 21-34 47-33 79 1 18 3 23 10 39 30 60 110 74 158 27 54-53 32-143-40-165-16-5-37-6-53-3zm50 53c16 12 24 27 24 43 0 37-39 61-72 45-33-15-38-62-9-84 16-13 42-14 57-4z" horiz-adv-x="1000"/><glyph glyph-name="loisir-oeil" unicode="" d="M470-27C352-16 243 39 131 144c-30 28-84 88-90 98-2 5-2 17 0 21 1 2 7 10 12 17 41 55 101 115 156 156 77 58 160 94 244 105 31 4 81 4 112-1 93-14 177-55 268-130 46-38 139-138 143-153 2-8-1-16-14-32-37-47-91-100-140-137-81-62-165-99-251-112-26-4-77-6-101-3zm77 69c66 11 128 58 158 120 16 33 22 65 21 104-1 22-2 29-6 46-6 25-22 57-37 78-34 44-83 74-139 84-24 4-66 3-88-3-85-22-145-85-163-170-5-23-6-62-1-83 20-99 96-168 197-179 11-1 43 0 58 3zm-70 104c-40 11-72 44-82 84-3 15-3 40 0 55 10 42 46 77 88 86 18 4 43 2 61-4 34-10 61-38 74-73 4-12 4-16 4-35 0-18 0-24-4-34-6-20-14-33-30-49s-31-25-51-30c-17-4-44-4-60 0zm233-76c71 38 146 99 202 165 10 12 12 15 10 18-2 6-40 48-64 72-25 25-52 49-77 69-27 21-83 56-85 54-1-1 4-7 11-15 40-47 60-97 66-163 1-16-2-49-6-69-11-47-36-94-70-129-16-16-14-16 13-2zm-398 9c-44 49-66 104-69 168-2 73 21 138 71 192 7 7 12 13 11 14-3 1-37-18-61-34-40-27-74-55-113-95-23-24-50-56-57-66l-3-5 14-15c51-58 103-104 156-139 24-16 63-39 65-37 0 0-6 8-14 17zM94 406c-5 2-91 88-93 92-4 9 6 20 16 18 3-1 21-17 50-47 40-39 46-46 46-50 0-10-10-17-19-13zm798 2c-5 5-6 11-3 15 1 3 22 24 46 48 44 43 45 44 52 44 10 0 16-10 11-19-1-2-22-23-46-47-42-41-45-44-51-44-4 0-7 1-9 3zM274 533c-5 2-5 1-33 67-13 31-22 53-22 56 0 4 1 7 4 10 4 4 14 4 18 0 5-5 52-115 52-121 0-4-5-12-8-12-1 0-3 0-4-1-1 0-4 1-7 1zm441 2c-9 7-9 8 17 67 13 31 25 58 26 60 3 6 11 8 16 6 5-1 9-8 9-12 0-6-48-117-52-121-6-4-11-4-16 0zm-213 52-4 4v129l4 4c6 6 15 6 20 0l4-4V591l-4-4c-2-2-6-4-10-4s-7 2-10 4z" horiz-adv-x="1000"/><glyph glyph-name="loisir-triomphe" unicode="" d="M14-131C1-123-3-110 2-96c6 15 11 17 50 18l33 1v669l-34 1c-36 1-40 3-47 13-8 13-3 33 11 41 7 3 26 3 485 3 451 0 478 0 484-3 14-7 20-24 13-39-6-13-9-14-59-15l-45-1V-77l44-1c39-1 45-1 50-4 17-11 17-38 0-49-6-4-8-4-486-4-473 0-481 0-487 4zm308 56c1 2 1 97 1 212 0 190 1 208 4 214 1 4 10 15 19 24 63 66 160 86 243 48 30-14 70-47 83-68l5-10 1-211 1-211h155v667H144l-1-331c0-183 0-333 1-334 0-2 20-3 89-3 78 0 88 1 89 3zm300 0c1 2 1 93 1 202 0 219 1 202-13 215-19 19-40 31-66 39-15 4-21 5-42 5-46 0-82-14-113-45l-11-11V127c0-111 1-203 2-203 0-1 55-2 121-2 108 0 120 1 121 3zM110 661c-2 1-6 3-8 5-4 4-4 6-4 42s0 37 4 41 7 5 12 5 9-1 12-5c5-4 5-5 5-41s0-38-4-42c-6-4-11-6-17-5zm147 2c-4 2-7 5-8 8s-2 20-2 38v34l5 5c8 8 17 8 24 0l6-5v-34c0-18-1-35-2-38-1-4-11-11-15-11-1 0-4 1-8 3zm153-2c-2 1-5 3-8 6-4 3-4 5-4 41s0 37 5 41c6 7 17 7 23 0 5-4 5-5 5-41s0-38-4-42c-5-4-13-6-17-5zm149 0c-2 1-5 3-7 5-4 4-4 8-5 40v36l6 6c7 8 15 8 23 1l5-4 1-32c1-40 0-44-8-49-4-2-7-4-8-4-2 0-4 1-7 1zm151 0c-2 1-5 3-8 6-4 3-4 5-4 41s0 37 5 41c6 7 17 7 24 0 4-4 4-5 4-41 0-35 0-36-4-41-5-5-12-8-17-6zm149 0c-2 1-6 4-8 6-4 5-4 8-4 41v35l6 5c7 8 15 8 23 1l5-4 1-34c1-38 0-44-11-48-3-2-6-3-7-3 0 0-2 1-5 1zM20 779c-3 1-8 4-12 8-13 12-10 33 5 43l7 5h480c461 0 480 0 486-4 19-10 18-40-2-50-6-3-33-3-483-3-262 0-479 1-481 1z" horiz-adv-x="1000"/><glyph glyph-name="recherche-carte" unicode="" d="M641-126c-4 2-9 6-12 9-8 7-275 208-279 209-2 1-64-44-150-109C67-117 53-127 45-127c-9 0-16 4-20 12-2 4-3 101-3 353 0 310 1 348 4 352 3 5 300 230 313 236 8 5 17 4 27-4 17-14 281-212 284-213 2-1 59 41 149 108 105 79 148 110 153 111 8 1 20-5 23-11 4-7 3-699 0-706-3-4-300-230-314-238-6-3-12-3-20 1zM195 36c68 51 125 94 127 96 4 5 4 623 0 623-3 0-248-183-252-189-3-2-3-68-3-309 0-168 0-308 1-310s2-3 3-3c0 0 57 41 124 92zm433 221v310l-125 94c-68 51-125 94-127 94s-3-64-3-311V133l126-95c70-52 127-93 128-92s2 141 1 311zM804 38c67 50 123 93 125 95 4 4 4 23 4 312 0 273 0 308-3 309-2 1-46-30-123-88-66-49-122-92-125-95l-7-6V256c0-170 1-310 2-311 1 0 3 0 4 1s57 42 123 92z" horiz-adv-x="1000"/><glyph glyph-name="recherche-ecran" unicode="" d="M202-72c-9 5-12 10-12 23 0 8 2 12 8 17l7 7 133 1 134 2v135l-196 1-196 1-13 6c-16 8-31 23-40 39l-6 12v546l6 12c9 16 23 30 40 38l13 7h414c454 1 425 2 449-13 13-9 26-25 32-42 4-11 4-29 4-276V179l-5-13c-7-18-24-36-42-44l-14-7-196-1-196-1V-22l133-2c102 0 134-1 138-4 6-3 13-14 13-22s-9-21-16-23c-4-2-113-3-296-3-251 0-291 1-296 4zm711 240c4 2 9 8 12 13 6 7 6 9 5 55l-1 48H68v-44c-1-26 0-48 1-52 3-11 14-22 25-24 4-1 189-2 410-2l403 1 6 5zm17 351 1 183-6 8c-3 4-8 10-12 12l-6 5H500c-401 0-406 0-414-4-4-3-10-8-13-12-5-7-5-8-5-188-1-100 0-184 0-185 1-3 85-3 431-3l430 1 1 183z" horiz-adv-x="1000"/><glyph glyph-name="logo-ign-seul" unicode="" d="M45 351v200h80V150H45v201zm896-212c-1 0-52 57-114 124L715 386V151h-73v412h13l113-125c62-69 113-126 114-126 0 0 1 53 1 119v119h72V137h-6c-4 0-7 0-8 2zm-564-1c-28 2-53 9-78 21-34 16-62 41-82 73-39 64-43 155-8 222 30 58 84 96 153 107 14 2 47 3 62 1 33-3 71-16 95-33l8-5-1-7c0-5-1-25-3-46l-2-38-6 7c-29 32-61 48-103 52-23 2-45-1-65-8-44-14-73-49-82-98-2-12-2-35-1-48 4-38 17-66 39-89 19-18 41-30 70-35 7-2 15-2 31-2 25 0 35 1 57 8l13 5v41h12c19 0 40 4 58 10l7 2V177l-13-6c-31-15-55-23-87-28-24-5-53-7-74-5zm97 148c-49 4-91 22-122 53-12 12-19 20-25 31l-3 6 8 4c16 10 39 17 60 19 15 2 43 1 59-2 52-11 96-40 119-80l3-6-6-4c-22-12-44-18-70-21-11 0-14-1-23 0zM45 351v200h80V150H45v201zm896-212c-1 0-52 57-114 124L715 386V151h-73v412h13l113-125c62-69 113-126 114-126 0 0 1 53 1 119v119h72V137h-6c-4 0-7 0-8 2zm-564-1c-28 2-53 9-78 21-34 16-62 41-82 73-39 64-43 155-8 222 30 58 84 96 153 107 14 2 47 3 62 1 33-3 71-16 95-33l8-5-1-7c0-5-1-25-3-46l-2-38-6 7c-29 32-61 48-103 52-23 2-45-1-65-8-44-14-73-49-82-98-2-12-2-35-1-48 4-38 17-66 39-89 19-18 41-30 70-35 7-2 15-2 31-2 25 0 35 1 57 8l13 5v41h12c19 0 40 4 58 10l7 2V177l-13-6c-31-15-55-23-87-28-24-5-53-7-74-5z" horiz-adv-x="1000"/><glyph glyph-name="logo-ign-vert" unicode="" d="M474 573c-48 3-90 22-122 53-12 12-18 20-24 31l-3 6 7 4c17 9 39 17 60 19 16 2 44 1 59-2 52-11 96-40 119-80l4-6-7-4c-22-12-43-18-69-21-12-1-14-1-24 0z" horiz-adv-x="1000"/><glyph glyph-name="logo-ign-vert-seul" unicode="" d="M474 286c-49 4-91 22-122 53-12 12-19 20-25 31l-3 6 8 4c16 10 39 17 60 19 15 2 43 1 59-2 52-11 96-40 119-80l3-6-6-4c-22-12-44-18-70-21-11 0-14-1-23 0z" horiz-adv-x="1000"/><glyph glyph-name="logo-ign" unicode="" d="M707-120v31h11v-61h-11v30zM53-148c-1 1-4 3-5 5-2 2-2 3-2 23s0 22 2 24c4 5 6 6 26 6h19v-8H76c-16-1-16-1-18-3s-2-4-2-8l1-6h17l17-1v-8H57l-1-6c0-9 3-11 24-11h13v-8H75c-13 0-19 0-22 1zm85 24v26h-18v8h47v-8h-9l-9-1v-50h-11v25zm105 1c0 22 0 26 2 28 3 4 7 5 27 5h18v-8h-16c-20-1-21-1-21-11v-6h37v-9h-37v-25h-10v26zm86-24c-6 3-6 4-6 28 0 22 0 24 6 27 3 2 6 2 20 2 14-1 16-1 19-3 5-3 5-5 5-27 0-19 0-20-2-23-3-5-7-6-24-6-11 0-15 0-18 2zm31 8c3 2 3 5 3 22 0 19 0 18-15 18-16 0-15 1-15-20 0-18 0-20 6-21 4-1 19 0 21 1zm44 19v30h21c23 0 26-1 29-7 2-4 2-17 0-20 0-2-2-4-4-5-3-2-5-3-12-3h-9c0-1 6-6 13-12 6-6 12-11 12-11 1-1-2-1-6-1h-6l-13 12c-12 10-14 12-14 14 0 5 3 6 15 6 13 0 15 0 15 9s-3 10-20 10l-10-1-1-25v-25h-10v29zm88-28c-2 1-4 3-6 5s-2 3-2 23 0 22 2 24c5 5 7 6 27 6h18v-8h-14c-21 0-23-2-22-12v-5h17l17-1v-8h-34v-6c-1-9 2-11 23-11h13v-8h-18c-13 0-19 0-21 1zm71 3v4h14c16 0 20 1 21 6 2 4 1 9-2 10-1 1-6 1-10 1-12 0-18 2-21 6-2 2-2 4-2 11 0 16 2 17 28 17h18v-8h-16c-16-1-16-1-18-3-3-3-3-8-1-11 1-2 3-2 14-3 18 0 21-3 21-17 0-7 0-9-2-11-4-5-7-6-27-6h-17v4zm90 21v26h-17v8h47v-8h-19v-51h-11v25zm103-24c-1 1-4 2-5 4-3 2-3 3-3 23 0 24 0 25 6 29 3 2 4 2 22 2h20v-8h-15c-11 0-16-1-19-2l-3-1v-14h37v-9h-37v-6c0-10 1-10 20-11h17v-8h-18c-10 0-20 1-22 1zm68 28v30h21c30 0 31-1 31-17 0-15-2-17-17-18h-10l14-12c7-6 13-11 13-12h-13l-13 12c-12 10-14 12-14 14 0 5 3 6 15 6 13 0 15 0 15 9s-1 9-18 10h-13v-51h-11v29zm89-27c-7 3-8 3-8 27 0 30 0 30 29 30h18v-8h-16c-16-1-17-1-18-3-2-2-2-4-2-8v-6h17l17-1v-8h-34v-5c0-3 0-7 1-8 1-3 7-4 22-4h13v-8h-18c-14 0-19 0-21 2zM772-80c-2 2-4 4-4 5h4c4 0 5 0 8-5l3-5h-4c-3 0-4 1-7 5zm0 65c-5 4-5 4-15 5-16 0-18 3-17 31 0 18 0 19 2 22 4 5 7 6 24 6 13 0 16 0 19-2 6-3 7-4 7-27 0-24-1-26-6-29-2 0-3-1-4-1 0-1 2-3 5-5l5-5h-7c-7 0-8 0-13 5zm7 15c2 2 2 3 2 19v17l-2 2c-3 2-4 2-14 2s-12 0-13-2-1-6-1-19c0-22 0-22 17-21 7 0 10 0 11 2zM54-9c-2 1-5 2-6 4-2 2-2 3-2 24 0 24 0 25 6 28 3 1 7 1 23 1h19v-8H76c-12 0-17-1-18-2-1 0-2-6-2-18C56-2 55-2 72-2c15 0 15 0 15 14l1 10h10V11c0-14-1-17-8-20-3-1-6-2-18-2-9 0-15 1-18 2zm81 1c-2 1-5 3-5 4-2 4-2 42-1 46l5 5c4 2 5 2 23 2h19v-9h-16c-20 0-21 0-21-10l-1-6h19l19-1v-8h-38V9c0-4 1-6 2-8 3-2 3-2 19-3h17v-9h-18c-17 0-18 0-23 3zm79-2c-2 1-4 3-6 4l-2 4v21c0 23 0 25 6 28 3 1 7 1 19 1 25 0 25 0 25-29 0-23 0-25-7-28-4-1-7-2-18-2-8 0-15 1-17 1zm30 10c2 1 2 3 2 19 0 21 0 21-14 21-10 0-11 0-13-2l-3-2V19c0-21-1-21 15-21 8 0 11 1 13 2zm52-9c-3 1-6 2-7 4-2 2-2 3-2 24 0 30-1 29 29 29h19v-8h-17c-16 0-16 0-18-2-3-3-3-3-3-20 1-21 0-20 16-20 15 0 16 1 16 14v10h10V11c0-14-1-17-8-20-3-1-6-2-18-2-9 0-15 1-17 2zm73 28v29h22c29 0 30 0 30-16 0-15-2-17-17-18l-10-1 11-9c6-5 12-10 14-12l3-3h-14L395 1c-7 6-13 12-14 12v-24h-12v30zm26 2c9 0 11 0 13 2 3 2 3 3 3 7s0 6-2 8c-3 2-4 2-16 2h-12V29c0-10 0-11 1-10 1 2 4 2 13 2zm50-31c0 2 24 56 26 57 3 2 10 2 12-1 2-2 16-34 25-55 1-1-1-2-5-2h-6l-3 7-3 8h-29l-3-8-3-7h-6c-3 0-5 0-5 1zm42 23c-3 7-10 24-11 24s-10-23-10-24 5-1 11-1c9 0 10 0 10 1zm46 6v30h18c30 0 33-1 34-16 1-12 0-16-6-19-4-2-6-2-20-2h-16v-23h-10v30zm40 4c1 2 2 3 2 8 0 9-1 9-18 9h-14V21h14c12 0 14 0 16 2zm43-4v29h10V23h32v25h10v-59h-10v26h-16l-16-1v-25h-10v30zm83 0v30h11v-60h-11v30zM831-9c-2 1-5 2-6 4l-2 3-1 25v25h11V26c0-29-1-28 16-28 6 0 12 1 12 1 3 2 4 7 4 28v21h10V24c0-28 0-30-7-33-5-2-33-2-37 0zm83-1c-2 1-4 3-6 4l-3 4v21c0 30 0 29 29 29h19v-8h-17c-16 0-17 0-18-3-2-2-2-3-2-8v-6h34v-8h-34V9c0-4 0-6 2-8s2-2 18-3h17v-9h-18c-10 0-19 1-21 1zM148 55c1 0 2 3 4 5 2 4 3 5 7 5 2 0 4-1 4-1l-4-6c-3-4-4-4-8-4-2 0-3 0-3 1zm217 73c-2 0-8 10-16 24l-14 23v-47h-10v27c0 25 0 28 1 30 3 3 11 3 14 0 1-1 7-12 14-24l13-21v47h10v-27c0-17 0-27-1-29-1-4-7-5-11-3zm263 1c-1 1-5 11-11 22-5 11-9 20-10 21 0 1-1-8-1-22v-22h-10v27c0 25 0 27 2 29s3 3 7 3 6-1 7-2 6-11 11-23c5-11 10-21 10-21s5 10 10 21c5 12 10 22 11 23 4 3 12 3 14-1 1-1 1-14 1-29v-27h-10v45l-10-22c-5-12-10-22-12-23-2-2-7-2-9 1zm312-1c-1 0-7 9-16 24l-13 23v-47h-11v27c0 30 1 31 6 32h6c3-1 4-2 20-29l11-19v48h10v-54l-3-3c-3-3-6-4-10-2zM46 158v30h21c32-1 32 0 32-30s0-30-32-30H46v30zm39-19c2 1 3 2 3 19 0 22 1 21-18 21H56v-42h14c10 0 14 0 15 2zm43-11c-1 0-2 1-4 1-1 1-4 2-5 3l-3 3v22c0 31-1 30 28 30h19v-8h-16c-14 0-16-1-18-2-2-2-3-3-3-9v-6h35v-9h-35v-6c0-10 1-10 21-10h16v-9h-35zm102 1c-2 0-5 2-7 4l-3 3v51l6 1h5v-24c0-29-2-27 20-27h17v-9h-17c-9 0-18 0-21 1zm66 29v30h12v-60h-12v30zm99-4v26l3 3 3 3 20 1h21v-8l-17-1c-20 0-20 0-20-10v-6h18l19-1v-8h-37v-25h-10v26zm75-25c-2 1-5 2-7 4-2 3-2 3-2 24 0 23 0 25 6 28 3 2 6 2 18 2 26 0 27 0 27-29s-1-30-24-30c-8 0-16 0-18 1zm29 9c2 2 2 3 2 19 1 17 1 17-2 19-2 2-3 3-13 3-8 0-10-1-12-2l-3-3v-16c0-22 0-21 15-21 8 0 12 0 13 1zm30 20v30h21c19-1 22-1 25-3 5-3 6-6 6-16 0-7 0-9-2-11-3-4-6-5-16-6h-9l12-10c18-16 17-14 9-14h-7l-13 11c-20 17-20 20-1 20 15 1 16 2 16 10 0 9-1 10-18 10h-13v-51h-10v30zm153-27c8 20 23 52 24 53 5 5 12 4 15-2 3-5 24-53 24-54h-12l-3 8-3 7h-29l-3-8-3-7h-11l1 3zm41 21s-2 6-5 12c-4 10-6 13-6 11-1-1-3-7-6-13l-4-11h11c6 0 10 0 10 1zm41 1v26h-18v9h47v-9h-19v-51h-10v25zm40 5v30h11v-60h-11v30zm37-29c-2 1-5 2-6 4-3 3-3 3-3 24 0 13 1 21 1 23 1 2 3 4 5 5 4 2 5 2 20 2 25 0 25 0 25-29s0-30-24-30c-8 0-16 0-18 1zm29 9c2 2 2 3 3 19 0 17 0 17-3 19-2 2-3 3-12 3-10 0-11-1-13-3-3-2-3-3-3-18s1-18 4-20c2-2 22-1 24 0zm-603 39c3 6 3 8 2 9-2 2-2 7 0 9 2 1 5 1 7-1s1-6-1-13c-2-5-3-5-6-5-2 0-3 0-2 1zm-154 89c-2 1-7 9-16 25l-14 22v-23l-1-24H72v26c0 15 1 27 1 29 2 5 9 7 14 3 1-1 8-12 15-24l13-22v47h10v-27c0-16 0-28-1-29 0-1-2-2-4-3-4-1-4-1-7 0zm414 0c-2 1-6 7-16 24l-14 23v-23l-1-24h-10v27c0 30 1 31 7 33 6 1 8 0 22-25l14-23v47h10v-27c0-29 0-30-5-32-3-1-4-1-7 0zm280 0c-2 1-8 11-16 24l-13 23-1-23v-24h-10v27c0 26 0 28 2 30 3 3 11 4 13 1 1-2 7-12 14-24 7-11 13-21 13-21s1 11 1 23v23h10v-27c0-26 0-27-2-29-3-3-8-4-11-3zM45 296v30h12v-60H45v30zm95-25v4h17c18 0 19 1 20 7 0 4 0 6-2 7-2 3-3 3-14 4-19 0-21 2-21 16 0 8 1 9 3 12 4 4 8 5 28 5h16v-9h-16c-18 0-19 0-20-7-1-3 0-4 2-7 2-2 3-2 13-2 12 0 18-2 20-7 2-3 2-18 0-21-1-1-3-3-5-4-3-2-5-2-22-3h-19v5zm78 20v26h-18v5l-1 4h47v-9h-17v-25l-1-25-5-1h-5v25zm39 5v30h12v-60h-12v30zm41-4v25h-18v9h47v-9h-19v-51h-10v26zm50-24c-10 3-10 6-10 35v23h11v-23c0-29-1-28 15-28 17 0 16-1 16 28l1 23h10l-1-26v-26l-3-3c-1-1-4-3-6-4-6-1-29-1-33 1zm72 24v25h-18v9h47v-9h-19v-51h-10v26zm131-24c1 6 23 54 25 56 3 2 9 2 12 0 2-2 25-55 25-57 0 0-2-1-5-1h-5l-4 8-3 7h-29l-3-8-3-7h-5c-6 0-6 0-5 2zm41 22c0 1-10 24-11 25 0 0-2-6-5-13l-5-12h21zm40 1v26h-18v5l-1 4h48v-9h-18v-25l-1-25-5-1h-5v25zm39 5v30h13v-60h-13v30zm39-29c-3 1-6 3-8 4l-3 3v22c0 20 1 21 3 24 3 5 6 6 23 6 14 0 17-1 19-2 6-4 6-5 6-28s0-25-6-27c-5-3-28-3-34-2zm27 10c3 1 3 2 3 19 0 22 0 21-15 21s-15 1-15-20c0-22 0-22 15-22 7 0 11 1 12 2zm93-10c2 5 22 49 24 53 3 6 11 8 15 3 1-1 25-55 25-56s-2-1-5-1h-6l-3 8-3 7h-29l-3-7-4-8h-5c-5 0-6 0-6 1zm43 23s-3 6-6 13c-5 11-5 12-6 10-1-1-2-5-3-8s-3-7-4-10l-2-5h21zm46-23c-6 1-10 2-12 5-1 2-2 4-2 28v26h11v-23c0-30-2-28 20-28h16v-9h-15c-9 0-17 1-18 1zM378 425c-29 2-54 9-78 21-35 16-62 41-82 73-40 64-43 155-9 222 30 58 84 96 154 107 14 2 47 3 61 1 34-3 71-16 96-33l7-5v-8c-1-4-2-24-3-45l-2-38-7 7c-28 32-60 48-103 52-22 2-44-1-65-8-44-14-72-49-81-98-2-12-3-35-2-48 5-38 17-66 40-89 18-18 40-30 70-36 7-1 14-1 30-1 25 0 36 1 58 8l12 4v42h12c19 0 40 4 58 10l7 2V464l-13-7c-30-14-54-22-86-27-25-5-53-7-74-5zm564 0c-1 1-52 57-114 125L716 673l-1-117V438h-72v412h13l113-126c62-69 113-125 113-125 1 0 1 53 1 119v119h72V424h-6c-4 0-6 0-7 1zM46 637v201h79V437H46v200zm428-64c-48 3-90 22-122 53-12 12-18 20-24 31l-3 6 7 4c17 9 39 17 60 19 16 2 44 1 59-2 52-11 96-40 119-80l4-6-7-4c-22-12-43-18-69-21-12-1-14-1-24 0zm233-693v31h11v-61h-11v30zM53-148c-1 1-4 3-5 5-2 2-2 3-2 23s0 22 2 24c4 5 6 6 26 6h19v-8H76c-16-1-16-1-18-3s-2-4-2-8l1-6h17l17-1v-8H57l-1-6c0-9 3-11 24-11h13v-8H75c-13 0-19 0-22 1zm85 24v26h-18v8h47v-8h-9l-9-1v-50h-11v25zm105 1c0 22 0 26 2 28 3 4 7 5 27 5h18v-8h-16c-20-1-21-1-21-11v-6h37v-9h-37v-25h-10v26zm86-24c-6 3-6 4-6 28 0 22 0 24 6 27 3 2 6 2 20 2 14-1 16-1 19-3 5-3 5-5 5-27 0-19 0-20-2-23-3-5-7-6-24-6-11 0-15 0-18 2zm31 8c3 2 3 5 3 22 0 19 0 18-15 18-16 0-15 1-15-20 0-18 0-20 6-21 4-1 19 0 21 1zm44 19v30h21c23 0 26-1 29-7 2-4 2-17 0-20 0-2-2-4-4-5-3-2-5-3-12-3h-9c0-1 6-6 13-12 6-6 12-11 12-11 1-1-2-1-6-1h-6l-13 12c-12 10-14 12-14 14 0 5 3 6 15 6 13 0 15 0 15 9s-3 10-20 10l-10-1-1-25v-25h-10v29zm88-28c-2 1-4 3-6 5s-2 3-2 23 0 22 2 24c5 5 7 6 27 6h18v-8h-14c-21 0-23-2-22-12v-5h17l17-1v-8h-34v-6c-1-9 2-11 23-11h13v-8h-18c-13 0-19 0-21 1zm71 3v4h14c16 0 20 1 21 6 2 4 1 9-2 10-1 1-6 1-10 1-12 0-18 2-21 6-2 2-2 4-2 11 0 16 2 17 28 17h18v-8h-16c-16-1-16-1-18-3-3-3-3-8-1-11 1-2 3-2 14-3 18 0 21-3 21-17 0-7 0-9-2-11-4-5-7-6-27-6h-17v4zm90 21v26h-17v8h47v-8h-19v-51h-11v25zm103-24c-1 1-4 2-5 4-3 2-3 3-3 23 0 24 0 25 6 29 3 2 4 2 22 2h20v-8h-15c-11 0-16-1-19-2l-3-1v-14h37v-9h-37v-6c0-10 1-10 20-11h17v-8h-18c-10 0-20 1-22 1zm68 28v30h21c30 0 31-1 31-17 0-15-2-17-17-18h-10l14-12c7-6 13-11 13-12h-13l-13 12c-12 10-14 12-14 14 0 5 3 6 15 6 13 0 15 0 15 9s-1 9-18 10h-13v-51h-11v29zm89-27c-7 3-8 3-8 27 0 30 0 30 29 30h18v-8h-16c-16-1-17-1-18-3-2-2-2-4-2-8v-6h17l17-1v-8h-34v-5c0-3 0-7 1-8 1-3 7-4 22-4h13v-8h-18c-14 0-19 0-21 2zM772-80c-2 2-4 4-4 5h4c4 0 5 0 8-5l3-5h-4c-3 0-4 1-7 5zm0 65c-5 4-5 4-15 5-16 0-18 3-17 31 0 18 0 19 2 22 4 5 7 6 24 6 13 0 16 0 19-2 6-3 7-4 7-27 0-24-1-26-6-29-2 0-3-1-4-1 0-1 2-3 5-5l5-5h-7c-7 0-8 0-13 5zm7 15c2 2 2 3 2 19v17l-2 2c-3 2-4 2-14 2s-12 0-13-2-1-6-1-19c0-22 0-22 17-21 7 0 10 0 11 2zM54-9c-2 1-5 2-6 4-2 2-2 3-2 24 0 24 0 25 6 28 3 1 7 1 23 1h19v-8H76c-12 0-17-1-18-2-1 0-2-6-2-18C56-2 55-2 72-2c15 0 15 0 15 14l1 10h10V11c0-14-1-17-8-20-3-1-6-2-18-2-9 0-15 1-18 2zm81 1c-2 1-5 3-5 4-2 4-2 42-1 46l5 5c4 2 5 2 23 2h19v-9h-16c-20 0-21 0-21-10l-1-6h19l19-1v-8h-38V9c0-4 1-6 2-8 3-2 3-2 19-3h17v-9h-18c-17 0-18 0-23 3zm79-2c-2 1-4 3-6 4l-2 4v21c0 23 0 25 6 28 3 1 7 1 19 1 25 0 25 0 25-29 0-23 0-25-7-28-4-1-7-2-18-2-8 0-15 1-17 1zm30 10c2 1 2 3 2 19 0 21 0 21-14 21-10 0-11 0-13-2l-3-2V19c0-21-1-21 15-21 8 0 11 1 13 2zm52-9c-3 1-6 2-7 4-2 2-2 3-2 24 0 30-1 29 29 29h19v-8h-17c-16 0-16 0-18-2-3-3-3-3-3-20 1-21 0-20 16-20 15 0 16 1 16 14v10h10V11c0-14-1-17-8-20-3-1-6-2-18-2-9 0-15 1-17 2zm73 28v29h22c29 0 30 0 30-16 0-15-2-17-17-18l-10-1 11-9c6-5 12-10 14-12l3-3h-14L395 1c-7 6-13 12-14 12v-24h-12v30zm26 2c9 0 11 0 13 2 3 2 3 3 3 7s0 6-2 8c-3 2-4 2-16 2h-12V29c0-10 0-11 1-10 1 2 4 2 13 2zm50-31c0 2 24 56 26 57 3 2 10 2 12-1 2-2 16-34 25-55 1-1-1-2-5-2h-6l-3 7-3 8h-29l-3-8-3-7h-6c-3 0-5 0-5 1zm42 23c-3 7-10 24-11 24s-10-23-10-24 5-1 11-1c9 0 10 0 10 1zm46 6v30h18c30 0 33-1 34-16 1-12 0-16-6-19-4-2-6-2-20-2h-16v-23h-10v30zm40 4c1 2 2 3 2 8 0 9-1 9-18 9h-14V21h14c12 0 14 0 16 2zm43-4v29h10V23h32v25h10v-59h-10v26h-16l-16-1v-25h-10v30zm83 0v30h11v-60h-11v30zM831-9c-2 1-5 2-6 4l-2 3-1 25v25h11V26c0-29-1-28 16-28 6 0 12 1 12 1 3 2 4 7 4 28v21h10V24c0-28 0-30-7-33-5-2-33-2-37 0zm83-1c-2 1-4 3-6 4l-3 4v21c0 30 0 29 29 29h19v-8h-17c-16 0-17 0-18-3-2-2-2-3-2-8v-6h34v-8h-34V9c0-4 0-6 2-8s2-2 18-3h17v-9h-18c-10 0-19 1-21 1zM148 55c1 0 2 3 4 5 2 4 3 5 7 5 2 0 4-1 4-1l-4-6c-3-4-4-4-8-4-2 0-3 0-3 1zm217 73c-2 0-8 10-16 24l-14 23v-47h-10v27c0 25 0 28 1 30 3 3 11 3 14 0 1-1 7-12 14-24l13-21v47h10v-27c0-17 0-27-1-29-1-4-7-5-11-3zm263 1c-1 1-5 11-11 22-5 11-9 20-10 21 0 1-1-8-1-22v-22h-10v27c0 25 0 27 2 29s3 3 7 3 6-1 7-2 6-11 11-23c5-11 10-21 10-21s5 10 10 21c5 12 10 22 11 23 4 3 12 3 14-1 1-1 1-14 1-29v-27h-10v45l-10-22c-5-12-10-22-12-23-2-2-7-2-9 1zm312-1c-1 0-7 9-16 24l-13 23v-47h-11v27c0 30 1 31 6 32h6c3-1 4-2 20-29l11-19v48h10v-54l-3-3c-3-3-6-4-10-2zM46 158v30h21c32-1 32 0 32-30s0-30-32-30H46v30zm39-19c2 1 3 2 3 19 0 22 1 21-18 21H56v-42h14c10 0 14 0 15 2zm43-11c-1 0-2 1-4 1-1 1-4 2-5 3l-3 3v22c0 31-1 30 28 30h19v-8h-16c-14 0-16-1-18-2-2-2-3-3-3-9v-6h35v-9h-35v-6c0-10 1-10 21-10h16v-9h-35zm102 1c-2 0-5 2-7 4l-3 3v51l6 1h5v-24c0-29-2-27 20-27h17v-9h-17c-9 0-18 0-21 1zm66 29v30h12v-60h-12v30zm99-4v26l3 3 3 3 20 1h21v-8l-17-1c-20 0-20 0-20-10v-6h18l19-1v-8h-37v-25h-10v26zm75-25c-2 1-5 2-7 4-2 3-2 3-2 24 0 23 0 25 6 28 3 2 6 2 18 2 26 0 27 0 27-29s-1-30-24-30c-8 0-16 0-18 1zm29 9c2 2 2 3 2 19 1 17 1 17-2 19-2 2-3 3-13 3-8 0-10-1-12-2l-3-3v-16c0-22 0-21 15-21 8 0 12 0 13 1zm30 20v30h21c19-1 22-1 25-3 5-3 6-6 6-16 0-7 0-9-2-11-3-4-6-5-16-6h-9l12-10c18-16 17-14 9-14h-7l-13 11c-20 17-20 20-1 20 15 1 16 2 16 10 0 9-1 10-18 10h-13v-51h-10v30zm153-27c8 20 23 52 24 53 5 5 12 4 15-2 3-5 24-53 24-54h-12l-3 8-3 7h-29l-3-8-3-7h-11l1 3zm41 21s-2 6-5 12c-4 10-6 13-6 11-1-1-3-7-6-13l-4-11h11c6 0 10 0 10 1zm41 1v26h-18v9h47v-9h-19v-51h-10v25zm40 5v30h11v-60h-11v30zm37-29c-2 1-5 2-6 4-3 3-3 3-3 24 0 13 1 21 1 23 1 2 3 4 5 5 4 2 5 2 20 2 25 0 25 0 25-29s0-30-24-30c-8 0-16 0-18 1zm29 9c2 2 2 3 3 19 0 17 0 17-3 19-2 2-3 3-12 3-10 0-11-1-13-3-3-2-3-3-3-18s1-18 4-20c2-2 22-1 24 0zm-603 39c3 6 3 8 2 9-2 2-2 7 0 9 2 1 5 1 7-1s1-6-1-13c-2-5-3-5-6-5-2 0-3 0-2 1zm-154 89c-2 1-7 9-16 25l-14 22v-23l-1-24H72v26c0 15 1 27 1 29 2 5 9 7 14 3 1-1 8-12 15-24l13-22v47h10v-27c0-16 0-28-1-29 0-1-2-2-4-3-4-1-4-1-7 0zm414 0c-2 1-6 7-16 24l-14 23v-23l-1-24h-10v27c0 30 1 31 7 33 6 1 8 0 22-25l14-23v47h10v-27c0-29 0-30-5-32-3-1-4-1-7 0zm280 0c-2 1-8 11-16 24l-13 23-1-23v-24h-10v27c0 26 0 28 2 30 3 3 11 4 13 1 1-2 7-12 14-24 7-11 13-21 13-21s1 11 1 23v23h10v-27c0-26 0-27-2-29-3-3-8-4-11-3zM45 296v30h12v-60H45v30zm95-25v4h17c18 0 19 1 20 7 0 4 0 6-2 7-2 3-3 3-14 4-19 0-21 2-21 16 0 8 1 9 3 12 4 4 8 5 28 5h16v-9h-16c-18 0-19 0-20-7-1-3 0-4 2-7 2-2 3-2 13-2 12 0 18-2 20-7 2-3 2-18 0-21-1-1-3-3-5-4-3-2-5-2-22-3h-19v5zm78 20v26h-18v5l-1 4h47v-9h-17v-25l-1-25-5-1h-5v25zm39 5v30h12v-60h-12v30zm41-4v25h-18v9h47v-9h-19v-51h-10v26zm50-24c-10 3-10 6-10 35v23h11v-23c0-29-1-28 15-28 17 0 16-1 16 28l1 23h10l-1-26v-26l-3-3c-1-1-4-3-6-4-6-1-29-1-33 1zm72 24v25h-18v9h47v-9h-19v-51h-10v26zm131-24c1 6 23 54 25 56 3 2 9 2 12 0 2-2 25-55 25-57 0 0-2-1-5-1h-5l-4 8-3 7h-29l-3-8-3-7h-5c-6 0-6 0-5 2zm41 22c0 1-10 24-11 25 0 0-2-6-5-13l-5-12h21zm40 1v26h-18v5l-1 4h48v-9h-18v-25l-1-25-5-1h-5v25zm39 5v30h13v-60h-13v30zm39-29c-3 1-6 3-8 4l-3 3v22c0 20 1 21 3 24 3 5 6 6 23 6 14 0 17-1 19-2 6-4 6-5 6-28s0-25-6-27c-5-3-28-3-34-2zm27 10c3 1 3 2 3 19 0 22 0 21-15 21s-15 1-15-20c0-22 0-22 15-22 7 0 11 1 12 2zm93-10c2 5 22 49 24 53 3 6 11 8 15 3 1-1 25-55 25-56s-2-1-5-1h-6l-3 8-3 7h-29l-3-7-4-8h-5c-5 0-6 0-6 1zm43 23s-3 6-6 13c-5 11-5 12-6 10-1-1-2-5-3-8s-3-7-4-10l-2-5h21zm46-23c-6 1-10 2-12 5-1 2-2 4-2 28v26h11v-23c0-30-2-28 20-28h16v-9h-15c-9 0-17 1-18 1zM378 425c-29 2-54 9-78 21-35 16-62 41-82 73-40 64-43 155-9 222 30 58 84 96 154 107 14 2 47 3 61 1 34-3 71-16 96-33l7-5v-8c-1-4-2-24-3-45l-2-38-7 7c-28 32-60 48-103 52-22 2-44-1-65-8-44-14-72-49-81-98-2-12-3-35-2-48 5-38 17-66 40-89 18-18 40-30 70-36 7-1 14-1 30-1 25 0 36 1 58 8l12 4v42h12c19 0 40 4 58 10l7 2V464l-13-7c-30-14-54-22-86-27-25-5-53-7-74-5zm564 0c-1 1-52 57-114 125L716 673l-1-117V438h-72v412h13l113-126c62-69 113-125 113-125 1 0 1 53 1 119v119h72V424h-6c-4 0-6 0-7 1zM46 637v201h79V437H46v200z" horiz-adv-x="1000"/><glyph glyph-name="ign-poi" unicode="" d="M480 301c50-6 97 10 133 44 37 34 54 72 54 122s-17 88-55 124c-16 15-38 28-62 36-20 7-63 8-86 3-26-5-57-21-77-40-36-34-53-74-53-123 0-30 4-48 17-75 10-20 13-25 31-43 16-15 24-22 37-29 22-11 41-17 61-19zm9-405c-3 2-19 17-35 34C332 59 247 184 201 302c-13 36-19 54-24 86-17 97 3 193 57 274 21 31 62 73 92 93 109 72 240 71 349-1 28-19 70-62 90-92 37-55 57-112 63-180 4-56-4-111-27-172C757 192 677 74 539-76c-31-34-36-37-50-28z" horiz-adv-x="1000"/><glyph glyph-name="ign-poi-o" unicode="" d="M489-104c-3 2-19 17-35 34C332 59 247 184 201 302c-13 36-19 54-24 86-17 97 3 193 57 274 21 31 62 73 92 93 109 72 240 71 349-1 28-19 70-62 90-92 37-55 57-112 63-180 4-56-4-111-27-172C757 192 677 74 539-76c-31-34-36-37-50-28zm51 94c92 103 151 187 194 274 39 80 53 134 50 201-2 53-10 88-34 136-49 101-145 164-250 164-120 0-228-84-269-209-12-36-15-56-15-102 0-36 1-46 5-66 24-119 121-276 266-430l12-12 6 6c4 4 20 21 35 38zm-60 311c-20 2-39 8-61 19-13 7-21 14-37 29-18 18-21 23-31 43-13 27-17 45-17 75 0 49 17 89 53 123 20 19 51 35 77 40 23 5 66 4 86-3 24-8 46-21 62-36 38-36 55-74 55-124s-17-88-54-122c-36-34-83-50-133-44zm60 49c38 14 65 41 78 80 4 11 5 18 5 38 0 21-1 27-6 39-16 42-46 69-88 80-9 2-22 4-29 4-17 0-43-7-59-15-17-9-41-33-50-50-4-7-9-21-11-30-17-67 27-136 97-151 15-3 47-1 63 5z" horiz-adv-x="1000"/></font>
</defs>
</svg>
